<svg width="295" height="56" viewBox="0 0 295 56" fill="none" xmlns="http://www.w3.org/2000/svg">
<path d="M0.042549 55.6797H43.1528C43.1528 52.5508 41.0726 49.9134 38.239 49.0616C37.4692 45.6215 34.4226 43.0497 30.77 43.0005C28.8045 39.1837 24.8244 36.579 20.2546 36.579C14.4072 36.579 9.54252 40.8382 8.59252 46.4242C8.54339 46.4242 8.47787 46.4242 8.42873 46.4242C3.77702 46.4242 0.00979847 50.1919 0.00979847 54.8442C-0.00658078 55.1227 -0.00658878 55.4012 0.042549 55.6797C0.0261697 55.6797 0.042549 55.6797 0.042549 55.6797Z" fill="#47C372" fill-opacity="0.73"/>
<path d="M237.836 25.3419H295C295 21.1974 292.248 17.6918 288.481 16.5615C287.466 12.0075 283.42 8.58381 278.572 8.51828C275.967 3.45645 270.693 0 264.616 0C256.853 0 250.399 5.63517 249.154 13.0559C249.073 13.0559 249.007 13.0559 248.925 13.0559C242.767 13.0559 237.771 18.0522 237.771 24.2116C237.771 24.5884 237.787 24.9651 237.836 25.3419Z" fill="#47C372" fill-opacity="0.73"/>
</svg>
