<svg width="18" height="18" viewBox="0 0 18 18" fill="none" xmlns="http://www.w3.org/2000/svg">
<path d="M9 0L10.4302 5.31181C10.6047 5.96 10.692 6.28409 10.8642 6.54905C11.0166 6.78349 11.2165 6.98336 11.451 7.13577C11.7159 7.30802 12.04 7.39528 12.6882 7.5698L18 9L12.6882 10.4302C12.04 10.6047 11.7159 10.692 11.451 10.8642C11.2165 11.0166 11.0166 11.2165 10.8642 11.451C10.692 11.7159 10.6047 12.04 10.4302 12.6882L9 18L7.5698 12.6882C7.39528 12.04 7.30802 11.7159 7.13577 11.451C6.98336 11.2165 6.78349 11.0166 6.54905 10.8642C6.28409 10.692 5.96 10.6047 5.31181 10.4302L0 9L5.31181 7.5698C5.96 7.39528 6.28409 7.30802 6.54905 7.13577C6.78349 6.98336 6.98336 6.78349 7.13577 6.54905C7.30802 6.28409 7.39528 5.96 7.5698 5.31181L9 0Z" fill="#3785EF"/>
</svg>
