<svg width="108" height="202" viewBox="0 0 108 202" fill="none" xmlns="http://www.w3.org/2000/svg">
<path d="M97.9792 201.193H9.65996C4.77255 201.193 0.807311 197.227 0.807311 192.339V9.66079C0.807311 4.77276 4.77255 0.807 9.65996 0.807H97.9792C102.867 0.807 106.832 4.77276 106.832 9.66079V192.339C106.832 197.227 102.867 201.193 97.9792 201.193Z" fill="#3785EF"/>
<path d="M97.9788 202H9.65953C4.3341 202 0 197.665 0 192.339V9.66078C0 4.33467 4.3341 0 9.65953 0H97.9788C103.304 0 107.638 4.33467 107.638 9.66078V192.339C107.638 197.665 103.304 202 97.9788 202ZM9.65953 1.61397C5.2332 1.61397 1.61377 5.21083 1.61377 9.66078V192.339C1.61377 196.766 5.21014 200.386 9.65953 200.386H97.9788C102.405 200.386 106.025 196.789 106.025 192.339V9.66078C106.025 5.23388 102.428 1.61397 97.9788 1.61397H9.65953Z" fill="#473789"/>
<path d="M98.4631 179.197H9.17557C8.66838 179.197 8.25341 178.782 8.25341 178.275V24.9704C8.25341 24.4632 8.66838 24.0481 9.17557 24.0481H98.4631C98.9703 24.0481 99.3852 24.4632 99.3852 24.9704V178.275C99.3852 178.782 98.9703 179.197 98.4631 179.197Z" fill="white"/>
<path d="M98.4632 179.935H9.17569C8.25353 179.935 7.51582 179.197 7.51582 178.275V24.9704C7.51582 24.0482 8.25353 23.3104 9.17569 23.3104H98.4632C99.3853 23.3104 100.123 24.0482 100.123 24.9704V178.275C100.123 179.197 99.3853 179.935 98.4632 179.935ZM9.17569 24.786C9.08347 24.786 8.99127 24.8782 8.99127 24.9704V178.275C8.99127 178.367 9.08347 178.459 9.17569 178.459H98.4632C98.5554 178.459 98.6476 178.367 98.6476 178.275V24.9704C98.6476 24.8782 98.5554 24.786 98.4632 24.786H9.17569Z" fill="#473789"/>
<path d="M61.577 194.253H46.0848C43.595 194.253 41.5663 192.224 41.5663 189.734C41.5663 187.244 43.595 185.215 46.0848 185.215H61.577C64.0668 185.215 66.0955 187.244 66.0955 189.734C66.0955 192.201 64.0437 194.253 61.577 194.253Z" fill="white"/>
<path d="M26.9733 15.0791C24.9445 15.0791 23.2616 13.419 23.2616 11.367C23.2616 9.33797 24.9215 7.65483 26.9733 7.65483C29.002 7.65483 30.6849 9.31491 30.6849 11.367C30.6619 13.419 29.002 15.0791 26.9733 15.0791Z" fill="white"/>
<path d="M71.9281 13.6957C70.6602 13.6957 69.6228 12.6581 69.6228 11.39C69.6228 10.1219 70.6602 9.08435 71.9281 9.08435C73.1961 9.08435 74.2335 10.1219 74.2335 11.39C74.2335 12.6581 73.1961 13.6957 71.9281 13.6957Z" fill="white"/>
<path d="M62.6142 13.1193H45.0011C44.563 13.1193 44.1942 12.7504 44.1942 12.3123V10.4447C44.1942 10.0066 44.563 9.6377 45.0011 9.6377H62.6142C63.0522 9.6377 63.4211 10.0066 63.4211 10.4447V12.3123C63.4211 12.7734 63.0753 13.1193 62.6142 13.1193Z" fill="white"/>
<path d="M81.4491 107.79H26.1661C23.6532 107.79 21.6244 105.761 21.6244 103.248C21.6244 100.735 23.6532 98.7059 26.1661 98.7059H81.4491C83.962 98.7059 85.9908 100.735 85.9908 103.248C86.0138 105.761 83.962 107.79 81.4491 107.79Z" fill="#775BE4"/>
<mask id="mask0_59_919" style="mask-type:alpha" maskUnits="userSpaceOnUse" x="25" y="62" width="58" height="44">
<rect x="25.4154" y="62.936" width="57.0775" height="42.8887" fill="#D9D9D9"/>
</mask>
<g mask="url(#mask0_59_919)">
<path d="M53.8308 117.958C68.2946 117.958 80.0199 106.232 80.0199 91.7659C80.0199 77.3002 68.2946 65.5734 53.8308 65.5734C39.3669 65.5734 27.6416 77.3002 27.6416 91.7659C27.6416 106.232 39.3669 117.958 53.8308 117.958Z" fill="white"/>
<path d="M53.8313 118.765C38.9386 118.765 26.8353 106.661 26.8353 91.7659C26.8353 76.8712 38.9386 64.7664 53.8313 64.7664C68.7241 64.7664 80.8274 76.8712 80.8274 91.7659C80.8274 106.661 68.701 118.765 53.8313 118.765ZM53.8313 66.3804C39.8377 66.3804 28.449 77.7704 28.449 91.7659C28.449 105.761 39.8377 117.151 53.8313 117.151C67.825 117.151 79.2136 105.761 79.2136 91.7659C79.2136 77.7704 67.825 66.3804 53.8313 66.3804Z" fill="#473789"/>
<path d="M53.8306 113.186C65.6589 113.186 75.2476 103.596 75.2476 91.7659C75.2476 79.9361 65.6589 70.3462 53.8306 70.3462C42.0023 70.3462 32.4135 79.9361 32.4135 91.7659C32.4135 103.596 42.0023 113.186 53.8306 113.186Z" fill="#FEBB66"/>
<path d="M67.0246 90.0543V88.2842H63.1967C62.5551 84.4476 65.4669 80.8233 59.4928 81.7128C59.1344 87.2797 61.5063 88.9436 54.3507 88.2842L50.3946 81.7128C43.6461 80.9074 46.3411 83.5183 45.841 88.2842H41.3583C40.4467 91.2049 44.3718 89.718 45.841 90.0543C46.403 94.6831 44.956 93.4927 41.3538 93.5945C40.4688 96.5107 44.3718 95.0283 45.841 95.3646V103.613H49.5139C50.2884 98.6968 46.7216 94.2627 54.1649 95.3646L59.068 103.613H63.1967V95.3646H67.0246C67.7813 92.5723 64.7234 93.8689 63.1967 93.5945C62.9047 89.3994 63.21 90.0056 67.0246 90.0543ZM49.3237 86.4566C49.7662 86.7442 49.9122 87.7399 50.2795 88.2842C48.9652 88.6073 49.483 87.3195 49.3192 86.4566H49.3237ZM49.4653 90.0543C51.7929 89.4481 52.0363 92.1342 53.1249 93.5945C49.7308 93.9574 49.129 93.4794 49.4608 90.0543H49.4653ZM59.8557 98.4622C59.307 97.6037 58.9308 96.3868 58.3644 95.3646C60.3911 94.8645 59.5017 97.1258 59.8513 98.449L59.8557 98.4622ZM59.5636 93.5945C57.0014 94.2716 56.6076 91.7802 55.4216 90.0543C58.7892 89.8154 60.0283 89.78 59.5592 93.5945H59.5636Z" fill="#473789"/>
</g>
</svg>
