<svg width="26" height="10" viewBox="0 0 26 10" fill="none" xmlns="http://www.w3.org/2000/svg">
<path d="M25.0001 3.99668H3.41334L5.70669 1.70334C6.09335 1.31667 6.09335 0.676669 5.70669 0.290001C5.32002 -0.096667 4.68001 -0.096667 4.29335 0.290001L0.293334 4.29001C0.200001 4.38335 0.133334 4.49001 0.0800003 4.61001C-0.0266668 4.85002 -0.0266668 5.13002 0.0800003 5.37002C0.133334 5.49002 0.200001 5.59669 0.293334 5.69002L4.29335 9.69003C4.49335 9.89003 4.74668 9.98337 5.00002 9.98337C5.25335 9.98337 5.50668 9.89003 5.70669 9.69003C6.09335 9.30336 6.09335 8.66336 5.70669 8.27669L3.41334 5.98335H25.0001C25.5467 5.98335 26.0001 5.53002 26.0001 4.98335C26.0001 4.43668 25.5467 3.98335 25.0001 3.98335V3.99668Z" fill="#686E7C"/>
</svg>
