<svg width="54" height="54" viewBox="0 0 54 54" fill="none" xmlns="http://www.w3.org/2000/svg">
<path d="M45.516 45.5117C55.7436 35.2828 55.7436 18.6985 45.516 8.46955C35.2884 -1.75935 18.7061 -1.75935 8.47851 8.46955C-1.74911 18.6985 -1.74911 35.2828 8.47851 45.5117C18.7061 55.7406 35.2884 55.7406 45.516 45.5117Z" fill="white"/>
<path d="M26.9966 54C12.1035 54 0 41.895 0 27C0 12.105 12.1035 0 26.9966 0C41.8897 0 53.9932 12.105 53.9932 27C53.9932 41.895 41.8666 54 26.9966 54ZM26.9966 1.59094C13.0026 1.59094 1.6138 12.9812 1.6138 26.9769C1.6138 40.9727 13.0026 52.3629 26.9966 52.3629C40.9906 52.3629 52.3794 40.9727 52.3794 26.9769C52.3794 12.9812 40.9906 1.59094 26.9966 1.59094Z" fill="#473789"/>
<path d="M42.1416 42.1368C50.5056 33.7718 50.5056 20.2094 42.1416 11.8444C33.7777 3.47937 20.217 3.47938 11.8531 11.8444C3.48912 20.2094 3.48911 33.7718 11.8531 42.1368C20.217 50.5018 33.7777 50.5018 42.1416 42.1368Z" fill="#F4C458"/>
<path d="M39.5328 24.4317V22.6616H35.7049C35.0632 18.8248 37.9751 15.2005 32.0009 16.09C31.6424 21.6571 34.0144 23.321 26.8587 22.6616L22.9024 16.09C16.1538 15.2846 18.8488 17.8955 18.3488 22.6616H13.8659C12.9543 25.5823 16.8796 24.0954 18.3488 24.4317C18.9108 29.0606 17.4637 27.8702 13.8615 27.972C12.9764 30.8883 16.8796 29.4058 18.3488 29.7421V37.9909H22.0218C22.7962 33.0744 19.2294 28.6402 26.6728 29.7421L31.576 37.9909H35.7049V29.7421H39.5328C40.2895 26.9497 37.2316 28.2463 35.7049 27.972C35.4128 23.7768 35.7181 24.383 39.5328 24.4317ZM21.8315 20.8339C22.274 21.1216 22.4201 22.1173 22.7874 22.6616C21.473 22.9846 21.9908 21.6969 21.8271 20.8339H21.8315ZM21.9731 24.4317C24.3008 23.8255 24.5442 26.5116 25.6328 27.972C22.2386 28.3349 21.6368 27.8569 21.9687 24.4317H21.9731ZM32.3638 32.8398C31.815 31.9813 31.4389 30.7644 30.8724 29.7421C32.8992 29.242 32.0097 31.5034 32.3593 32.8266L32.3638 32.8398ZM32.0717 27.972C29.5094 28.6491 29.1156 26.1576 27.9296 24.4317C31.2973 24.1928 32.5363 24.1574 32.0673 27.972H32.0717Z" fill="#473789"/>
</svg>
