<svg width="273" height="273" viewBox="0 0 273 273" fill="none" xmlns="http://www.w3.org/2000/svg">
<path d="M78.5312 4H57C38.4483 4 29.1724 4 22.0866 7.61041C15.8537 10.7862 10.7862 15.8537 7.61041 22.0866C4 29.1724 4 38.4483 4 57V78.5312M194.469 4H216C234.552 4 243.828 4 250.913 7.61041C257.146 10.7862 262.214 15.8537 265.39 22.0866C269 29.1724 269 38.4483 269 57V78.5312M269 194.469V216C269 234.552 269 243.828 265.39 250.913C262.214 257.146 257.146 262.214 250.913 265.39C243.828 269 234.552 269 216 269H194.469M4 194.469V216C4 234.552 4 243.828 7.61041 250.913C10.7862 257.146 15.8537 262.214 22.0866 265.39C29.1724 269 38.4483 269 57 269H78.5312" stroke="#0566EB" stroke-width="8" stroke-linecap="round" stroke-linejoin="round"/>
</svg>
