<svg width="40" height="22" viewBox="0 0 40 22" fill="none" xmlns="http://www.w3.org/2000/svg">
<path d="M14.4116 21.9899C13.9201 21.9899 13.4052 21.9431 12.8669 21.8729C7.039 21.0536 1.88984 16.7465 0.0408277 11.1754C-0.0996036 10.754 0.134437 10.2859 0.555731 10.1454C0.977025 10.005 1.44511 10.2391 1.58554 10.6604C3.24731 15.6697 7.85816 19.5321 13.0775 20.2577C14.4116 20.445 16.284 20.445 17.4777 19.415C18.9756 18.1276 18.999 15.6697 18.5075 13.7971C18.2969 12.9778 18.016 12.2053 17.7351 11.3626C17.2436 9.98157 16.7522 8.55367 16.6117 7.03214C16.4713 5.53402 16.7989 4.31679 17.5713 3.52092C18.5777 2.49096 20.1693 2.25688 22.3226 2.81867C25.5759 3.68477 28.6186 5.25311 31.1931 7.40666L31.2868 4.01248C31.3102 2.84207 31.4272 1.55462 32.4102 0.68852C33.4869 -0.271214 35.0784 -0.0839463 36.2019 0.384217C38.0041 1.15669 39.4084 2.74844 39.9701 4.6445C40.0871 5.08926 39.8531 5.53401 39.4084 5.65105C38.9637 5.76809 38.519 5.53401 38.402 5.08925C37.9807 3.68476 36.9041 2.44414 35.57 1.88234C34.938 1.60145 34.0252 1.46099 33.5103 1.90575C33.0188 2.32709 32.9719 3.19319 32.9485 4.03588L32.8081 9.2091C32.8081 9.53681 32.5975 9.8177 32.2932 9.93474C31.989 10.0518 31.6379 9.98156 31.4038 9.77088C28.759 7.19599 25.4823 5.32333 21.9013 4.38701C20.3799 3.98907 19.3033 4.08271 18.7416 4.6445C18.2033 5.18289 18.1799 6.14262 18.2267 6.84486C18.3437 8.17913 18.8118 9.44318 19.2799 10.7774C19.5842 11.6201 19.865 12.4628 20.0991 13.3523C20.8715 16.3954 20.2863 19.1107 18.5309 20.6089C17.5479 21.5452 16.1202 21.9899 14.4116 21.9899Z" fill="#775BE4"/>
</svg>
