<svg width="26" height="10" viewBox="0 0 26 10" fill="none" xmlns="http://www.w3.org/2000/svg">
<path d="M0.99992 5.98669L22.5867 5.98669L20.2933 8.28003C19.9066 8.6667 19.9066 9.3067 20.2933 9.69337C20.68 10.08 21.32 10.08 21.7067 9.69337L25.7067 5.69336C25.8 5.60002 25.8667 5.49336 25.92 5.37336C26.0267 5.13336 26.0267 4.85335 25.92 4.61335C25.8667 4.49335 25.8 4.38669 25.7067 4.29335L21.7067 0.29334C21.5067 0.0933388 21.2533 5.87264e-06 21 5.87264e-06C20.7466 5.87264e-06 20.4933 0.0933388 20.2933 0.29334C19.9066 0.680007 19.9066 1.32001 20.2933 1.70668L22.5867 4.00002L0.99992 4.00002C0.453251 4.00002 -8.41746e-05 4.45335 -8.41746e-05 5.00002C-8.41746e-05 5.54669 0.453251 6.00003 0.99992 6.00003V5.98669Z" fill="#0566EB"/>
</svg>
