<svg width="30" height="35" viewBox="0 0 30 35" fill="none" xmlns="http://www.w3.org/2000/svg">
<path d="M8.80843 17.6242C13.672 17.6242 17.6169 13.6793 17.6169 8.81573C17.6169 3.95213 13.672 0 8.80843 0C3.94484 0 0 3.94484 0 8.80844C0 13.672 3.94484 17.6242 8.80843 17.6242ZM5.73132 12.2939C5.81153 12.0022 5.89173 11.7178 5.97924 11.4262C6.08132 11.0908 6.17611 11.0543 6.48237 11.2147C7.00737 11.4845 7.56155 11.6376 8.14489 11.7106C8.51676 11.7543 8.88864 11.7178 9.23136 11.5647C9.88032 11.2803 9.98241 10.5293 9.43553 10.0772C9.24594 9.92407 9.03448 9.80741 8.81573 9.71261C8.24697 9.46469 7.65634 9.27511 7.11675 8.95427C6.24903 8.43656 5.69486 7.71467 5.76048 6.65737C5.8334 5.46152 6.51153 4.71047 7.6053 4.31672C8.05738 4.14901 8.05738 4.1563 8.06468 3.68233C8.06468 3.52192 8.06468 3.3615 8.06468 3.20108C8.07197 2.84378 8.13759 2.78545 8.4876 2.77087C8.59697 2.77087 8.70635 2.77087 8.81573 2.77087C9.57407 2.77087 9.57407 2.77087 9.57407 3.52921C9.57407 4.06151 9.57407 4.0688 10.1064 4.14901C10.5147 4.21463 10.9012 4.3313 11.2803 4.49901C11.4918 4.5938 11.5647 4.73964 11.5064 4.95839C11.4116 5.28652 11.3241 5.61465 11.2147 5.93549C11.1126 6.24174 11.0178 6.28549 10.7262 6.14695C10.1355 5.86257 9.51573 5.73861 8.85948 5.77507C8.68447 5.78236 8.52406 5.80423 8.36364 5.87715C7.80217 6.12507 7.70738 6.74487 8.18864 7.13133C8.42926 7.32821 8.70635 7.46675 8.99802 7.58342C9.49386 7.78759 9.99699 7.99176 10.4782 8.25426C11.9876 9.09281 12.396 10.9887 11.3314 12.2793C10.9449 12.746 10.4491 13.0595 9.85845 13.2199C9.60324 13.2929 9.48657 13.4241 9.50115 13.6866C9.51573 13.9491 9.50115 14.2043 9.50115 14.4668C9.50115 14.7002 9.38448 14.8241 9.15115 14.8314C8.87406 14.8387 8.58968 14.8387 8.3126 14.8314C8.06468 14.8241 7.94801 14.6856 7.94801 14.445C7.94801 14.2554 7.94801 14.0658 7.94072 13.8762C7.93343 13.4606 7.92613 13.4387 7.51779 13.3731C7.00008 13.2929 6.49695 13.1762 6.02299 12.9429C5.66569 12.7751 5.62923 12.6804 5.73132 12.2939Z" fill="#2C3032"/>
<path d="M28.5695 18.3602H27.5414C26.8632 16.2821 25.5361 14.4373 23.7642 13.0081C23.7642 12.9425 23.7496 12.8696 23.7351 12.8039C23.3632 11.4987 23.8226 10.3102 24.3549 9.45702C24.7267 8.85909 24.2455 8.09346 23.5455 8.18096C21.9778 8.37784 20.8986 8.95388 20.1548 9.60285C19.6444 10.0476 19.2798 10.6456 19.1194 11.3091C17.9965 15.9613 13.8037 19.4248 8.80885 19.4248C6.38069 19.4248 4.14942 18.6082 2.36294 17.2373C1.74314 18.579 1.40772 20.0446 1.40772 21.5832C1.40772 22.4145 1.5098 23.2238 1.69939 24.0041C1.69939 24.0041 1.69939 24.0186 1.70668 24.0405C1.90356 24.8499 2.20252 25.6301 2.58169 26.3666C3.08482 27.4531 3.814 28.7218 4.82026 29.75C6.27132 31.2448 6.51924 33.0969 6.5557 33.899V34.2417C6.5557 34.2563 6.5557 34.2708 6.5557 34.2854C6.5557 34.2927 6.5557 34.2927 6.5557 34.2927C6.58486 34.6865 6.91299 35 7.31404 35H11.9224C12.3381 35 12.6808 34.6646 12.6808 34.2417V33.1042C13.3516 33.1917 14.037 33.2427 14.7297 33.2427C15.2766 33.2427 15.8089 33.2135 16.3412 33.1552V34.2417C16.3412 34.6573 16.6766 35 17.0996 35H21.7225C22.1382 35 22.4809 34.6646 22.4809 34.2417V33.1042C22.4882 32.725 22.6194 31.2156 24.0486 29.925C24.0997 29.8812 24.1507 29.8375 24.2017 29.7937C24.2163 29.7791 24.2309 29.7718 24.2455 29.7573C25.8351 28.3427 27.0091 26.578 27.6143 24.6093H28.5841C29.357 24.6093 29.9841 23.9822 29.9841 23.2093V19.7603C29.9695 18.9873 29.3424 18.3602 28.5695 18.3602ZM22.8017 18.6082C22.1673 18.6082 21.6569 18.0977 21.6569 17.4634C21.6569 16.829 22.1673 16.3186 22.8017 16.3186C23.4361 16.3186 23.9465 16.829 23.9465 17.4634C23.9465 18.0977 23.4361 18.6082 22.8017 18.6082Z" fill="#2C3032"/>
</svg>
