<svg width="108" height="202" viewBox="0 0 108 202" fill="none" xmlns="http://www.w3.org/2000/svg">
<path d="M97.9785 201.193H9.65925C4.77184 201.193 0.806577 197.227 0.806577 192.339V9.6608C0.806577 4.77277 4.77184 0.807021 9.65925 0.807021H97.9785C102.866 0.807021 106.831 4.77277 106.831 9.6608V192.339C106.831 197.227 102.866 201.193 97.9785 201.193Z" fill="#9BC2F7"/>
<path d="M97.9788 202H9.65956C4.33413 202 0 197.665 0 192.339V9.66076C0 4.33466 4.33413 0 9.65956 0H97.9788C103.304 0 107.638 4.33466 107.638 9.66076V192.339C107.638 197.665 103.304 202 97.9788 202ZM9.65956 1.61397C5.23323 1.61397 1.61377 5.21081 1.61377 9.66076V192.339C1.61377 196.766 5.21017 200.386 9.65956 200.386H97.9788C102.405 200.386 106.025 196.789 106.025 192.339V9.66076C106.025 5.23387 102.428 1.61397 97.9788 1.61397H9.65956Z" fill="#473789"/>
<path d="M98.4628 179.22H9.17532C8.66813 179.22 8.25317 178.805 8.25317 178.298V24.9935C8.25317 24.4863 8.66813 24.0713 9.17532 24.0713H98.4628C98.97 24.0713 99.3849 24.4863 99.3849 24.9935V178.298C99.3849 178.805 98.97 179.22 98.4628 179.22Z" fill="white"/>
<path d="M98.4624 179.958H9.17498C8.25283 179.958 7.51509 179.22 7.51509 178.298V24.9935C7.51509 24.0712 8.25283 23.3334 9.17498 23.3334H98.4624C99.3846 23.3334 100.122 24.0712 100.122 24.9935V178.298C100.122 179.197 99.3846 179.958 98.4624 179.958ZM9.17498 24.8091C9.08276 24.8091 8.99054 24.9013 8.99054 24.9935V178.298C8.99054 178.39 9.08276 178.482 9.17498 178.482H98.4624C98.5546 178.482 98.6469 178.39 98.6469 178.298V24.9935C98.6469 24.9013 98.5546 24.8091 98.4624 24.8091H9.17498Z" fill="#473789"/>
<path d="M61.5765 194.253H46.0843C43.5945 194.253 41.5658 192.224 41.5658 189.734C41.5658 187.244 43.5945 185.215 46.0843 185.215H61.5765C64.0663 185.215 66.095 187.244 66.095 189.734C66.095 192.224 64.0663 194.253 61.5765 194.253Z" fill="white"/>
<path d="M26.9732 15.1022C24.9445 15.1022 23.2616 13.4421 23.2616 11.39C23.2616 9.36104 24.9214 7.6779 26.9732 7.6779C29.002 7.6779 30.6849 9.33798 30.6849 11.39C30.6849 13.4421 29.002 15.1022 26.9732 15.1022Z" fill="white"/>
<path d="M71.9279 13.7188C70.6599 13.7188 69.6225 12.6812 69.6225 11.4131C69.6225 10.145 70.6599 9.10742 71.9279 9.10742C73.1959 9.10742 74.2333 10.145 74.2333 11.4131C74.2333 12.6812 73.1959 13.7188 71.9279 13.7188Z" fill="white"/>
<path d="M62.6369 13.1423H45.0238C44.5858 13.1423 44.2169 12.7734 44.2169 12.3354V10.4678C44.2169 10.0297 44.5858 9.66077 45.0238 9.66077H62.6369C63.075 9.66077 63.4438 10.0297 63.4438 10.4678V12.3354C63.4208 12.7734 63.075 13.1423 62.6369 13.1423Z" fill="white"/>
<path d="M82.9246 107.168H24.7137C23.0077 107.168 21.6244 105.784 21.6244 104.078C21.6244 102.372 23.0077 100.988 24.7137 100.988H82.9246C84.6306 100.988 86.0138 102.372 86.0138 104.078C86.0138 105.784 84.6306 107.168 82.9246 107.168Z" fill="#775BE4"/>
<path d="M72.3432 86.696C82.5706 76.4673 82.5706 59.8833 72.3432 49.6546C62.1158 39.4259 45.5339 39.4259 35.3065 49.6546C25.0791 59.8833 25.0791 76.4673 35.3065 86.6959C45.5339 96.9246 62.1158 96.9246 72.3432 86.696Z" fill="white"/>
<path d="M53.8306 95.1782C38.9378 95.1782 26.8345 83.0734 26.8345 68.1787C26.8345 53.2841 38.9378 41.1793 53.8306 41.1793C68.7233 41.1793 80.8266 53.2841 80.8266 68.1787C80.8266 83.0734 68.7233 95.1782 53.8306 95.1782ZM53.8306 42.7933C39.8369 42.7933 28.4483 54.1833 28.4483 68.1787C28.4483 82.1742 39.8369 93.5642 53.8306 93.5642C67.8242 93.5642 79.2128 82.1742 79.2128 68.1787C79.2128 54.1833 67.8242 42.7933 53.8306 42.7933Z" fill="#473789"/>
<path d="M53.8308 89.5984C65.6591 89.5984 75.2478 80.0085 75.2478 68.1787C75.2478 56.349 65.6591 46.759 53.8308 46.759C42.0025 46.759 32.4138 56.349 32.4138 68.1787C32.4138 80.0085 42.0025 89.5984 53.8308 89.5984Z" fill="#FEBB66"/>
<path d="M66.7099 66.3848V64.6147H62.8821C62.2405 60.7781 65.1523 57.1538 59.1782 58.0433C58.8198 63.6102 61.1917 65.2741 54.0361 64.6147L50.08 58.0433C43.3315 57.2379 46.0264 59.8488 45.5264 64.6147H41.0436C40.132 67.5354 44.0572 66.0485 45.5264 66.3848C46.0884 71.0136 44.6414 69.8232 41.0392 69.925C40.1542 72.8412 44.0572 71.3588 45.5264 71.6951V79.9437H49.1993C49.9737 75.0273 46.407 70.5932 53.8502 71.6951L58.7534 79.9437H62.8821V71.6951H66.7099C67.4667 68.9028 64.4088 70.1994 62.8821 69.925C62.5901 65.7299 62.8954 66.3361 66.7099 66.3848ZM49.009 62.7871C49.4516 63.0747 49.5976 64.0704 49.9649 64.6147C48.6506 64.9378 49.1684 63.65 49.0046 62.7871H49.009ZM49.1507 66.3848C51.4783 65.7786 51.7217 68.4647 52.8103 69.925C49.4162 70.2879 48.8143 69.8099 49.1462 66.3848H49.1507ZM59.5411 74.7927C58.9924 73.9342 58.6162 72.7173 58.0498 71.6951C60.0765 71.195 59.1871 73.4563 59.5367 74.7795L59.5411 74.7927ZM59.249 69.925C56.6868 70.6021 56.293 68.1106 55.107 66.3848C58.4746 66.1458 59.7137 66.1104 59.2446 69.925H59.249Z" fill="#473789"/>
</svg>
