<svg width="32" height="32" viewBox="0 0 32 32" fill="none" xmlns="http://www.w3.org/2000/svg">
<path d="M21.9999 15C21.7347 15 21.4804 15.1054 21.2928 15.2929C21.1053 15.4804 20.9999 15.7348 20.9999 16C21.0095 19.7825 20.2703 23.5295 18.8249 27.025C18.7636 27.1766 18.7404 27.341 18.7573 27.5037C18.7743 27.6664 18.8309 27.8225 18.9222 27.9582C19.0135 28.0939 19.1367 28.2052 19.281 28.2822C19.4254 28.3592 19.5864 28.3997 19.7499 28.4C19.9492 28.4013 20.1441 28.3423 20.3092 28.2308C20.4743 28.1192 20.6018 27.9603 20.6749 27.775C22.2143 24.0403 23.0043 20.0395 22.9999 16C22.9999 15.7348 22.8946 15.4804 22.707 15.2929C22.5195 15.1054 22.2651 15 21.9999 15Z" fill="black"/>
<path d="M15.9999 11C16.7023 11.0029 17.3963 11.1522 18.0377 11.4384C18.6791 11.7247 19.2537 12.1416 19.7249 12.6625C19.8118 12.7611 19.9174 12.8416 20.0354 12.8993C20.1535 12.9571 20.2818 12.991 20.413 12.9991C20.5442 13.0072 20.6757 12.9894 20.8 12.9467C20.9243 12.9039 21.0389 12.8371 21.1374 12.75C21.2351 12.6622 21.3145 12.556 21.3712 12.4375C21.4278 12.319 21.4605 12.1905 21.4675 12.0593C21.4745 11.9281 21.4555 11.7969 21.4118 11.673C21.368 11.5492 21.3002 11.4352 21.2124 11.3375C20.2671 10.283 19.0242 9.53991 17.6478 9.20651C16.2714 8.87311 14.8262 8.96504 13.5032 9.47016C12.1801 9.97528 11.0414 10.8698 10.2374 12.0357C9.43334 13.2015 9.00186 14.5838 8.99989 16C8.99896 18.8813 8.26787 21.7154 6.87489 24.2375C6.74909 24.4683 6.71923 24.7394 6.79174 24.992C6.86426 25.2447 7.03334 25.4586 7.26239 25.5875C7.41178 25.6696 7.57946 25.7126 7.74989 25.7125C7.92845 25.7142 8.10412 25.6674 8.2582 25.5772C8.41228 25.4869 8.539 25.3566 8.62489 25.2C10.1819 22.3836 10.9991 19.2182 10.9999 16C11.0032 14.675 11.531 13.4051 12.468 12.4681C13.405 11.5312 14.6748 11.0033 15.9999 11Z" fill="black"/>
<path d="M8.66266 7.79961C8.76033 7.71179 8.83974 7.60559 8.89637 7.48708C8.953 7.36856 8.98573 7.24006 8.99269 7.10889C8.99966 6.97773 8.98072 6.84648 8.93696 6.72264C8.8932 6.59879 8.82548 6.48478 8.73766 6.38711C8.64984 6.28944 8.54364 6.21002 8.42512 6.15339C8.30661 6.09677 8.1781 6.06404 8.04694 6.05707C7.91578 6.05011 7.78453 6.06904 7.66068 6.1128C7.53684 6.15656 7.42283 6.22429 7.32516 6.31211C5.96487 7.533 4.87678 9.02652 4.13164 10.6956C3.38649 12.3646 3.00097 14.1718 3.00016 15.9996C3.00244 17.5831 2.66127 19.1482 2.00016 20.5871C1.8929 20.828 1.88383 21.1012 1.97487 21.3486C2.06591 21.596 2.24988 21.7982 2.48766 21.9121C2.62157 21.9709 2.76641 22.0007 2.91266 21.9996C3.10374 22.0006 3.29091 21.9455 3.45092 21.8411C3.61093 21.7366 3.73672 21.5875 3.81266 21.4121C4.59895 19.7163 5.00428 17.8688 5.00016 15.9996C5.00183 14.4524 5.32875 12.9229 5.95971 11.5103C6.59067 10.0976 7.51156 8.83338 8.66266 7.79961Z" fill="black"/>
<path d="M16 3C14.5229 2.99882 13.0562 3.24819 11.6625 3.7375C11.4142 3.82804 11.2111 4.01208 11.0967 4.25031C10.9822 4.48855 10.9655 4.76208 11.05 5.0125C11.0935 5.13645 11.1609 5.25062 11.2485 5.34849C11.3362 5.44636 11.4422 5.52601 11.5606 5.58289C11.679 5.63977 11.8074 5.67276 11.9386 5.67999C12.0698 5.68722 12.2011 5.66853 12.325 5.625C13.9849 5.03962 15.761 4.86065 17.5044 5.1031C19.2477 5.34555 20.9076 6.00234 22.3448 7.01844C23.7821 8.03454 24.9548 9.38035 25.7648 10.9431C26.5747 12.5058 26.9983 14.2399 27 16C26.9979 18.6161 26.7045 21.2239 26.125 23.775C26.0722 24.0348 26.1222 24.3049 26.2644 24.5287C26.4065 24.7524 26.6299 24.9124 26.8875 24.975L27.1125 25C27.3371 24.9996 27.555 24.9226 27.7299 24.7817C27.9049 24.6408 28.0266 24.4444 28.075 24.225C28.6897 21.5265 28.9999 18.7676 29 16C28.9934 12.5542 27.6216 9.25146 25.1851 6.81491C22.7485 4.37837 19.4458 3.00661 16 3Z" fill="black"/>
<path d="M14.2375 25.0876C13.9951 24.9812 13.7207 24.9739 13.473 25.0674C13.2254 25.1609 13.0242 25.3476 12.9125 25.5876C12.675 26.1126 12.4 26.6376 12.125 27.1376C11.9986 27.3703 11.9684 27.6432 12.0408 27.8979C12.1133 28.1526 12.2826 28.3688 12.5125 28.5001C12.6613 28.5837 12.8294 28.6268 13 28.6251C13.178 28.6241 13.3527 28.5763 13.5063 28.4863C13.6599 28.3963 13.7871 28.2674 13.875 28.1126C14.175 27.5626 14.4625 26.9876 14.725 26.4126C14.8356 26.1722 14.8464 25.8977 14.755 25.6494C14.6636 25.401 14.4775 25.199 14.2375 25.0876Z" fill="black"/>
<path d="M16 15C15.7348 15 15.4804 15.1054 15.2929 15.2929C15.1053 15.4804 15 15.7348 15 16C14.9984 17.9394 14.7549 19.871 14.275 21.75C14.2411 21.8772 14.2326 22.0099 14.2501 22.1404C14.2675 22.2709 14.3106 22.3967 14.3768 22.5105C14.443 22.6243 14.531 22.7239 14.6358 22.8036C14.7406 22.8834 14.8601 22.9416 14.9875 22.975L15.2375 23C15.4598 22.9994 15.6757 22.9256 15.8519 22.79C16.0282 22.6545 16.1549 22.4647 16.2125 22.25C16.7377 20.2083 17.0023 18.1082 17 16C17 15.7348 16.8946 15.4804 16.7071 15.2929C16.5196 15.1054 16.2652 15 16 15Z" fill="black"/>
</svg>
