<svg width="9" height="10" viewBox="0 0 9 10" fill="none" xmlns="http://www.w3.org/2000/svg">
<path fill-rule="evenodd" clip-rule="evenodd" d="M4.375 0C3.94375 0 3.22313 0.165625 2.545 0.35C1.85125 0.5375 1.15188 0.759375 0.740628 0.89375C0.568685 0.950532 0.416248 1.05467 0.300826 1.19419C0.185405 1.33371 0.111683 1.50296 0.0881284 1.6825C-0.284372 4.48063 0.580003 6.55438 1.62875 7.92625C2.07349 8.5131 2.60377 9.02989 3.20188 9.45938C3.44313 9.63 3.66688 9.76062 3.85688 9.85C4.03188 9.9325 4.22 10 4.375 10C4.53 10 4.7175 9.9325 4.89313 9.85C5.12218 9.73867 5.34131 9.60799 5.54813 9.45938C6.14625 9.02991 6.67653 8.51311 7.12125 7.92625C8.17 6.55438 9.03438 4.48063 8.66188 1.6825C8.63836 1.50288 8.56466 1.33353 8.44925 1.1939C8.33383 1.05427 8.18137 0.950019 8.00938 0.893125C7.41238 0.697383 6.81075 0.51608 6.205 0.349375C5.52688 0.16625 4.80625 0 4.375 0ZM4.375 3.125C4.5964 3.12467 4.81077 3.20271 4.98015 3.34529C5.14953 3.48787 5.26298 3.68579 5.30041 3.90401C5.33784 4.12222 5.29683 4.34664 5.18465 4.53751C5.07247 4.72839 4.89636 4.8734 4.6875 4.94688L4.92813 6.19062C4.93688 6.23586 4.93553 6.28248 4.92415 6.32713C4.91278 6.37178 4.89168 6.41336 4.86235 6.4489C4.83302 6.48444 4.7962 6.51305 4.75452 6.53269C4.71284 6.55233 4.66733 6.56251 4.62125 6.5625H4.12875C4.08273 6.56242 4.03729 6.55217 3.99569 6.53249C3.95408 6.51281 3.91734 6.48419 3.88808 6.44866C3.85882 6.41313 3.83778 6.37158 3.82644 6.32698C3.8151 6.28237 3.81376 6.23581 3.8225 6.19062L4.0625 4.94688C3.85365 4.8734 3.67754 4.72839 3.56536 4.53751C3.45318 4.34664 3.41217 4.12222 3.4496 3.90401C3.48703 3.68579 3.60048 3.48787 3.76986 3.34529C3.93923 3.20271 4.1536 3.12467 4.375 3.125Z" fill="#9A9EA7"/>
</svg>
