<svg width="9" height="10" viewBox="0 0 9 10" fill="none" xmlns="http://www.w3.org/2000/svg">
<path d="M8 1H7.5V0.5C7.5 0.225 7.275 0 7 0C6.725 0 6.5 0.225 6.5 0.5V1H2.5V0.5C2.5 0.225 2.275 0 2 0C1.725 0 1.5 0.225 1.5 0.5V1H1C0.445 1 0.005 1.45 0.005 2L0 9C0 9.26522 0.105357 9.51957 0.292893 9.70711C0.48043 9.89464 0.734784 10 1 10H8C8.55 10 9 9.55 9 9V2C9 1.45 8.55 1 8 1ZM8 8.5C8 8.775 7.775 9 7.5 9H1.5C1.225 9 1 8.775 1 8.5V3.5H8V8.5ZM2 4.5H3V5.5H2V4.5ZM4 4.5H5V5.5H4V4.5ZM6 4.5H7V5.5H6V4.5Z" fill="#9A9EA7"/>
</svg>
