<svg width="15" height="22" viewBox="0 0 15 22" fill="none" xmlns="http://www.w3.org/2000/svg">
<path d="M7.77 21.72C6.23 21.72 4.88 21.45 3.72 20.91C2.56 20.37 1.65 19.6 0.99 18.6C0.35 17.6 0.02 16.41 0 15.03H3.36C3.38 16.15 3.77 17.1 4.53 17.88C5.29 18.66 6.36 19.05 7.74 19.05C8.96 19.05 9.91 18.76 10.59 18.18C11.29 17.58 11.64 16.82 11.64 15.9C11.64 15.16 11.47 14.56 11.13 14.1C10.81 13.64 10.36 13.26 9.78 12.96C9.22 12.66 8.57 12.39 7.83 12.15C7.09 11.91 6.31 11.65 5.49 11.37C3.87 10.83 2.65 10.13 1.83 9.27C1.03 8.41 0.63 7.28 0.63 5.88C0.61 4.7 0.88 3.67 1.44 2.79C2.02 1.91 2.82 1.23 3.84 0.75C4.88 0.25 6.09 0 7.47 0C8.83 0 10.02 0.25 11.04 0.75C12.08 1.25 12.89 1.95 13.47 2.85C14.05 3.73 14.35 4.76 14.37 5.94H11.01C11.01 5.4 10.87 4.89 10.59 4.41C10.31 3.91 9.9 3.5 9.36 3.18C8.82 2.86 8.16 2.7 7.38 2.7C6.38 2.68 5.55 2.93 4.89 3.45C4.25 3.97 3.93 4.69 3.93 5.61C3.93 6.43 4.17 7.06 4.65 7.5C5.13 7.94 5.79 8.31 6.63 8.61C7.47 8.89 8.43 9.22 9.51 9.6C10.55 9.94 11.48 10.35 12.3 10.83C13.12 11.31 13.77 11.94 14.25 12.72C14.75 13.5 15 14.49 15 15.69C15 16.75 14.73 17.74 14.19 18.66C13.65 19.56 12.84 20.3 11.76 20.88C10.68 21.44 9.35 21.72 7.77 21.72Z" fill="white"/>
</svg>
