<svg width="178" height="178" viewBox="0 0 178 178" fill="none" xmlns="http://www.w3.org/2000/svg">
<path d="M39.9772 0.752094H20.3647C15.1631 0.752094 10.1746 2.81841 6.49648 6.49648C2.81841 10.1746 0.752094 15.1631 0.752094 20.3647V39.9772" stroke="#0566EB" stroke-width="1.5" stroke-linecap="round" stroke-linejoin="round"/>
<path d="M138.023 0.752094H157.635C162.837 0.752094 167.825 2.81841 171.503 6.49648C175.182 10.1746 177.248 15.1631 177.248 20.3647V39.9772" stroke="#0566EB" stroke-width="1.5" stroke-linecap="round" stroke-linejoin="round"/>
<path d="M128.252 49.7711V69.3837" stroke="#0566EB" stroke-width="1.5" stroke-linecap="round" stroke-linejoin="round"/>
<path d="M49.7711 49.7711V69.3837" stroke="#0566EB" stroke-width="1.5" stroke-linecap="round" stroke-linejoin="round"/>
<path d="M59.5964 128.251C59.5964 128.251 69.4026 138.058 89.0152 138.058C108.628 138.058 118.434 128.251 118.434 128.251" stroke="#0566EB" stroke-width="1.5" stroke-linecap="round" stroke-linejoin="round"/>
<path d="M88.9992 49.7711V98.8025H79.1929" stroke="#0566EB" stroke-width="1.5" stroke-linecap="round" stroke-linejoin="round"/>
<path d="M39.9772 177.248H20.3647C15.1631 177.248 10.1746 175.181 6.49648 171.503C2.81841 167.825 0.752094 162.837 0.752094 157.635V138.023" stroke="#0566EB" stroke-width="1.5" stroke-linecap="round" stroke-linejoin="round"/>
<path d="M138.023 177.248H157.635C162.837 177.248 167.825 175.181 171.503 171.503C175.182 167.825 177.248 162.837 177.248 157.635V138.023" stroke="#0566EB" stroke-width="1.5" stroke-linecap="round" stroke-linejoin="round"/>
</svg>
