<svg width="54" height="362" viewBox="0 0 54 362" fill="none" xmlns="http://www.w3.org/2000/svg">
<path d="M31.5 0.386719C31.5 0.386719 53.5 18.3451 53.5 40.4978C53.5 62.6506 31.5 58.4562 31.5 80.6089C31.5 102.762 53.5 98.5673 53.5 120.72C53.5 142.873 31.5 138.678 31.5 160.831C31.5 182.984 53.5 178.79 53.5 200.942C53.5 223.095 31.5 218.901 31.5 241.053C31.5 263.206 53.5 259.012 53.5 281.164C53.5 303.317 31.5 299.123 31.5 321.276C31.5 343.428 53.5 361.387 53.5 361.387" stroke="#FFC35B"/>
<path d="M20.5 0.386719C20.5 0.386719 42.5 18.3451 42.5 40.4978C42.5 62.6506 20.5 58.4562 20.5 80.6089C20.5 102.762 42.5 98.5673 42.5 120.72C42.5 142.873 20.5 138.678 20.5 160.831C20.5 182.984 42.5 178.79 42.5 200.942C42.5 223.095 20.5 218.901 20.5 241.053C20.5 263.206 42.5 259.012 42.5 281.164C42.5 303.317 20.5 299.123 20.5 321.276C20.5 343.428 42.5 361.387 42.5 361.387" stroke="#FFC35B"/>
<path d="M9.5 0.386719C9.5 0.386719 31.5 18.3451 31.5 40.4978C31.5 62.6506 9.5 58.4562 9.5 80.6089C9.5 102.762 31.5 98.5673 31.5 120.72C31.5 142.873 9.5 138.678 9.5 160.831C9.5 182.984 31.5 178.79 31.5 200.942C31.5 223.095 9.5 218.901 9.5 241.053C9.5 263.206 31.5 259.012 31.5 281.164C31.5 303.317 9.5 299.123 9.5 321.276C9.5 343.428 31.5 361.387 31.5 361.387" stroke="#FFC35B"/>
<path d="M0.5 0.386719C0.5 0.386719 22.5 18.3451 22.5 40.4978C22.5 62.6506 0.5 58.4562 0.5 80.6089C0.5 102.762 22.5 98.5673 22.5 120.72C22.5 142.873 0.5 138.678 0.5 160.831C0.5 182.984 22.5 178.79 22.5 200.942C22.5 223.095 0.5 218.901 0.5 241.053C0.5 263.206 22.5 259.012 22.5 281.164C22.5 303.317 0.5 299.123 0.5 321.276C0.5 343.428 22.5 361.387 22.5 361.387" stroke="#FFC35B"/>
</svg>
