<svg width="12" height="12" viewBox="0 0 12 12" fill="none" xmlns="http://www.w3.org/2000/svg">
<path d="M7.5 1.5V3.2C7.5 3.48003 7.5 3.62004 7.5545 3.727C7.60243 3.82108 7.67892 3.89757 7.773 3.9455C7.87996 4 8.01997 4 8.3 4H10M5 4H3C2.44772 4 2 4.44772 2 5V9.5C2 10.0523 2.44772 10.5 3 10.5H6C6.55228 10.5 7 10.0523 7 9.5V8M8 1.5H6.6C6.03995 1.5 5.75992 1.5 5.54601 1.60899C5.35785 1.70487 5.20487 1.85785 5.10899 2.04601C5 2.25992 5 2.53995 5 3.1V6.4C5 6.96005 5 7.24008 5.10899 7.45399C5.20487 7.64215 5.35785 7.79513 5.54601 7.89101C5.75992 8 6.03995 8 6.6 8H8.4C8.96005 8 9.24008 8 9.45399 7.89101C9.64215 7.79513 9.79513 7.64215 9.89101 7.45399C10 7.24008 10 6.96005 10 6.4V3.5L8 1.5Z" stroke="white" stroke-linejoin="round"/>
</svg>
