<svg width="339" height="17" viewBox="0 0 339 17" fill="none" xmlns="http://www.w3.org/2000/svg">
<path d="M30.3486 0H8.49669C3.82236 0 0 3.82284 0 8.49775C0 13.1727 3.82236 16.9955 8.49669 16.9955H30.3486C35.0229 16.9955 38.8453 13.1727 38.8453 8.49775C38.8453 3.82284 35.0229 0 30.3486 0Z" fill="#775BE4" fill-opacity="0.18"/>
<path d="M330.503 9.92659e-05H308.651C303.977 9.92659e-05 300.155 3.82294 300.155 8.49785C300.155 13.1728 303.977 16.9956 308.651 16.9956H330.503C335.178 16.9956 339 13.1728 339 8.49785C339 3.82294 335.178 9.92659e-05 330.503 9.92659e-05Z" fill="#775BE4" fill-opacity="0.18"/>
</svg>
