<svg width="28" height="19" viewBox="0 0 28 19" fill="none" xmlns="http://www.w3.org/2000/svg">
<path fill-rule="evenodd" clip-rule="evenodd" d="M0 9.00078C0 8.73558 0.10535 8.48124 0.292874 8.29371C0.480399 8.10619 0.734737 8.00084 0.999936 8.00084L24.5844 8.00084L18.2908 1.70924C18.1031 1.52148 17.9976 1.26682 17.9976 1.00129C17.9976 0.735752 18.1031 0.481094 18.2908 0.293333C18.4786 0.105572 18.7333 8.96454e-05 18.9988 8.96454e-05C19.2643 8.96454e-05 19.519 0.105572 19.7067 0.293333L27.7062 8.29282C27.7994 8.38571 27.8732 8.49605 27.9236 8.61753C27.9741 8.73902 28 8.86925 28 9.00078C28 9.1323 27.9741 9.26254 27.9236 9.38402C27.8732 9.5055 27.7994 9.61585 27.7062 9.70873L19.7067 17.7082C19.519 17.896 19.2643 18.0015 18.9988 18.0015C18.7333 18.0015 18.4786 17.896 18.2908 17.7082C18.1031 17.5205 17.9976 17.2658 17.9976 17.0003C17.9976 16.7347 18.1031 16.4801 18.2908 16.2923L24.5844 10.0007L0.999936 10.0007C0.734737 10.0007 0.480399 9.89536 0.292874 9.70784C0.10535 9.52031 0 9.26598 0 9.00078Z" fill="#48565C"/>
</svg>
