<svg width="20" height="16" viewBox="0 0 20 16" fill="none" xmlns="http://www.w3.org/2000/svg">
<path d="M16.7463 6.97519e-09C17.5764 -5.43467e-05 18.3751 0.317554 18.9785 0.887671C19.5819 1.45779 19.9443 2.23719 19.9913 3.066L19.9963 3.25V12.75C19.9963 13.5801 19.6787 14.3788 19.1086 14.9822C18.5385 15.5856 17.7591 15.948 16.9303 15.995L16.7463 16H8.24527C7.48313 16.0003 6.74513 15.7327 6.16027 15.244L6.00527 15.105L1.01027 10.355C0.385812 9.76111 0.02279 8.94352 0.00103681 8.08202C-0.0207164 7.22052 0.30058 6.38565 0.894272 5.761L1.01027 5.645L6.00527 0.895C6.55755 0.369927 7.27678 0.0556187 8.03727 0.00699998L8.24627 6.97519e-09H16.7473H16.7463ZM9.44227 4.397C9.29778 4.28948 9.11941 4.23755 8.93978 4.25069C8.76015 4.26384 8.59125 4.3412 8.46395 4.46862C8.33666 4.59603 8.25947 4.76501 8.24649 4.94465C8.23351 5.12429 8.28561 5.30261 8.39327 5.447L8.46627 5.53L10.9363 8L8.46627 10.47L8.39327 10.554C8.28575 10.6985 8.23382 10.8769 8.24697 11.0565C8.26012 11.2361 8.33747 11.405 8.46489 11.5323C8.59231 11.6596 8.76128 11.7368 8.94092 11.7498C9.12056 11.7628 9.29888 11.7107 9.44327 11.603L9.52627 11.53L11.9963 9.061L14.4663 11.531L14.5503 11.603C14.6948 11.7105 14.8731 11.7625 15.0528 11.7493C15.2324 11.7362 15.4013 11.6588 15.5286 11.5314C15.6559 11.404 15.7331 11.235 15.7461 11.0554C15.759 10.8757 15.7069 10.6974 15.5993 10.553L15.5263 10.47L13.0573 8L15.5273 5.53L15.5993 5.446C15.7068 5.3015 15.7587 5.12314 15.7456 4.94351C15.7324 4.76388 15.6551 4.59498 15.5277 4.46768C15.4002 4.34039 15.2313 4.26319 15.0516 4.25022C14.872 4.23724 14.6937 4.28934 14.5493 4.397L14.4663 4.47L11.9963 6.939L9.52627 4.469L9.44227 4.397Z" fill="#030D24"/>
</svg>
