<svg width="366" height="20" viewBox="0 0 366 20" fill="none" xmlns="http://www.w3.org/2000/svg">
<path d="M8.99142 19.9991C9.36999 19.9904 9.73327 19.848 10.017 19.5973C10.3008 19.3465 10.4867 19.0035 10.5419 18.6289H7.38086C7.43763 19.0137 7.63225 19.3648 7.92851 19.6168C8.22477 19.8689 8.6025 20.0047 8.99142 19.9991Z" fill="#48565C"/>
<path d="M17.9144 16.304L17.71 16.1237C17.1304 15.6072 16.623 15.0149 16.2016 14.3628C15.7414 13.4628 15.4656 12.48 15.3903 11.472V8.50311C15.3879 8.14249 15.3557 7.78268 15.2942 7.42734C14.2762 7.21809 13.3619 6.66349 12.7059 5.85741C12.0499 5.05134 11.6926 4.04333 11.6945 3.00403V2.62541C11.067 2.31661 10.3929 2.11355 9.69929 2.02442V1.26717C9.69929 1.05438 9.61476 0.850304 9.46431 0.699839C9.31385 0.549374 9.10979 0.464844 8.89701 0.464844C8.68423 0.464844 8.48017 0.549374 8.32971 0.699839C8.17926 0.850304 8.09473 1.05438 8.09473 1.26717V2.05447C6.54169 2.27356 5.12034 3.04715 4.0931 4.23242C3.06585 5.41769 2.50207 6.93461 2.50584 8.50311V11.472C2.43057 12.48 2.15475 13.4628 1.69455 14.3628C1.28042 15.0133 0.78121 15.6055 0.210185 16.1237L0.00585938 16.304V17.9988H17.9144V16.304Z" fill="#48565C"/>
<path d="M16.202 6.01005C17.8615 6.01005 19.2068 4.66477 19.2068 3.00527C19.2068 1.34578 17.8615 0.000488281 16.202 0.000488281C14.5426 0.000488281 13.1973 1.34578 13.1973 3.00527C13.1973 4.66477 14.5426 6.01005 16.202 6.01005Z" fill="#FF0000"/>
<path d="M190.582 16.3784C191.608 15.1444 192.321 13.6814 192.662 12.1133C193.003 10.5452 192.961 8.91814 192.54 7.3697C192.119 5.82126 191.331 4.39702 190.243 3.21747C189.155 2.03791 187.799 1.13774 186.289 0.593109C184.78 0.0484744 183.161 -0.124604 181.571 0.0885164C179.981 0.301637 178.465 0.894685 177.152 1.81749C175.839 2.7403 174.768 3.96572 174.029 5.39009C173.29 6.81446 172.905 8.39587 172.906 10.0005C172.907 12.3333 173.729 14.5913 175.228 16.3784L175.214 16.3906C175.264 16.4506 175.321 16.502 175.372 16.5613C175.437 16.6348 175.506 16.7041 175.572 16.7755C175.772 16.9927 175.978 17.2012 176.194 17.3969C176.259 17.4569 176.327 17.5126 176.394 17.5697C176.622 17.7669 176.857 17.954 177.101 18.1283C177.132 18.1497 177.161 18.1775 177.192 18.1997V18.1911C178.865 19.3682 180.86 20 182.906 20C184.951 20 186.947 19.3682 188.62 18.1911V18.1997C188.651 18.1775 188.679 18.1497 188.711 18.1283C188.954 17.9533 189.19 17.7669 189.418 17.5697C189.484 17.5126 189.552 17.4562 189.618 17.3969C189.834 17.2005 190.039 16.9927 190.239 16.7755C190.306 16.7041 190.374 16.6348 190.439 16.5613C190.49 16.502 190.548 16.4506 190.598 16.3899L190.582 16.3784ZM182.905 4.28687C183.541 4.28687 184.162 4.47536 184.691 4.82852C185.219 5.18167 185.631 5.68362 185.874 6.27089C186.118 6.85816 186.181 7.50438 186.057 8.12782C185.933 8.75127 185.627 9.32394 185.178 9.77342C184.728 10.2229 184.156 10.529 183.532 10.653C182.909 10.777 182.263 10.7134 181.675 10.4701C181.088 10.2269 180.586 9.81492 180.233 9.28639C179.88 8.75786 179.691 8.13647 179.691 7.50081C179.691 6.64842 180.03 5.83094 180.633 5.22821C181.235 4.62548 182.053 4.28687 182.905 4.28687ZM177.197 16.3784C177.209 15.4407 177.59 14.5455 178.257 13.8865C178.925 13.2276 179.825 12.8579 180.763 12.8574H185.048C185.986 12.8579 186.886 13.2276 187.553 13.8865C188.22 14.5455 188.601 15.4407 188.614 16.3784C187.047 17.79 185.014 18.5711 182.905 18.5711C180.797 18.5711 178.763 17.79 177.197 16.3784Z" fill="#48565C"/>
<path d="M358.112 20H354.472C354.244 20 354.023 19.9221 353.845 19.7792C353.668 19.6362 353.544 19.4368 353.495 19.214L353.088 17.33C352.545 17.0921 352.031 16.7946 351.553 16.443L349.716 17.028C349.499 17.0973 349.264 17.0902 349.051 17.0078C348.839 16.9254 348.66 16.7727 348.546 16.575L346.722 13.424C346.61 13.2261 346.567 12.9958 346.602 12.7708C346.637 12.5457 346.748 12.3392 346.915 12.185L348.34 10.885C348.276 10.2961 348.276 9.70189 348.34 9.113L346.915 7.816C346.747 7.66177 346.637 7.45507 346.602 7.22978C346.567 7.00449 346.609 6.77397 346.722 6.576L348.542 3.423C348.656 3.22532 348.835 3.07259 349.047 2.99019C349.26 2.90778 349.495 2.90066 349.712 2.97L351.549 3.555C351.793 3.375 352.047 3.207 352.309 3.055C352.562 2.913 352.822 2.784 353.088 2.669L353.496 0.787C353.545 0.564198 353.668 0.364688 353.846 0.221549C354.023 0.0784098 354.244 0.000239966 354.472 0H358.112C358.34 0.000239966 358.562 0.0784098 358.739 0.221549C358.917 0.364688 359.04 0.564198 359.088 0.787L359.5 2.67C359.78 2.794 360.054 2.933 360.319 3.088C360.566 3.231 360.805 3.388 361.035 3.557L362.873 2.972C363.091 2.90292 363.325 2.91017 363.538 2.99256C363.75 3.07495 363.928 3.22753 364.042 3.425L365.862 6.578C366.094 6.985 366.014 7.5 365.669 7.817L364.244 9.117C364.309 9.70589 364.309 10.3001 364.244 10.889L365.669 12.189C366.014 12.507 366.094 13.021 365.862 13.428L364.042 16.581C363.928 16.7787 363.75 16.9314 363.537 17.0138C363.324 17.0962 363.09 17.1033 362.872 17.034L361.035 16.449C360.558 16.8003 360.044 17.0975 359.501 17.335L359.088 19.214C359.04 19.4366 358.916 19.6359 358.739 19.7788C358.561 19.9218 358.34 19.9998 358.112 20ZM356.288 6C355.227 6 354.21 6.42143 353.46 7.17157C352.71 7.92172 352.288 8.93913 352.288 10C352.288 11.0609 352.71 12.0783 353.46 12.8284C354.21 13.5786 355.227 14 356.288 14C357.349 14 358.367 13.5786 359.117 12.8284C359.867 12.0783 360.288 11.0609 360.288 10C360.288 8.93913 359.867 7.92172 359.117 7.17157C358.367 6.42143 357.349 6 356.288 6Z" fill="#48565C"/>
</svg>
