<svg width="85" height="46" viewBox="0 0 85 46" fill="none" xmlns="http://www.w3.org/2000/svg">
<g filter="url(#filter0_d_0_159)">
<path d="M78.0674 0H6.93262C3.65874 0 1.00473 2.64658 1.00473 5.91131V37.4383C1.00473 40.703 3.65874 43.3496 6.93262 43.3496H78.0674C81.3413 43.3496 83.9953 40.703 83.9953 37.4383V5.91131C83.9953 2.64658 81.3413 0 78.0674 0Z" fill="black"/>
</g>
<path d="M78.0674 0H6.93262C3.65874 0 1.00473 2.64658 1.00473 5.91131V37.4383C1.00473 40.703 3.65874 43.3496 6.93262 43.3496H78.0674C81.3413 43.3496 83.9953 40.703 83.9953 37.4383V5.91131C83.9953 2.64658 81.3413 0 78.0674 0Z" fill="#CBCED5"/>
<path fill-rule="evenodd" clip-rule="evenodd" d="M53.3681 29.5566H37.3459L31.8478 21.6748L37.3459 13.7931H53.3681V29.5566ZM54.356 11.8226H36.8302C36.5071 11.8226 36.2038 11.9803 36.0191 12.2453L29.8333 21.1123C29.5972 21.4502 29.5972 21.8995 29.8333 22.2374L36.0191 31.1044C36.2038 31.3694 36.5071 31.527 36.8302 31.527H54.356C54.9014 31.527 55.344 31.0856 55.344 30.5418V12.8079C55.344 12.264 54.9014 11.8226 54.356 11.8226ZM40.3198 25.5733C40.5124 25.7655 40.7653 25.862 41.0183 25.862C41.2712 25.862 41.5241 25.7655 41.7168 25.5733L44.2292 23.0679L46.7417 25.5733C46.9343 25.7655 47.1872 25.862 47.4402 25.862C47.6931 25.862 47.946 25.7655 48.1387 25.5733C48.525 25.1881 48.525 24.5655 48.1387 24.1802L45.6262 21.6748L48.1387 19.1694C48.525 18.7842 48.525 18.1615 48.1387 17.7763C47.7524 17.3911 47.128 17.3911 46.7417 17.7763L44.2292 20.2817L41.7168 17.7763C41.3305 17.3911 40.7061 17.3911 40.3198 17.7763C39.9335 18.1615 39.9335 18.7842 40.3198 19.1694L42.8322 21.6748L40.3198 24.1802C39.9335 24.5655 39.9335 25.1881 40.3198 25.5733Z" fill="black"/>
<defs>
<filter id="filter0_d_0_159" x="0" y="0" width="85" height="45.3591" filterUnits="userSpaceOnUse" color-interpolation-filters="sRGB">
<feFlood flood-opacity="0" result="BackgroundImageFix"/>
<feColorMatrix in="SourceAlpha" type="matrix" values="0 0 0 0 0 0 0 0 0 0 0 0 0 0 0 0 0 0 127 0" result="hardAlpha"/>
<feOffset dy="1"/>
<feGaussianBlur stdDeviation="0.5"/>
<feColorMatrix type="matrix" values="0 0 0 0 0 0 0 0 0 0 0 0 0 0 0 0 0 0 0.36 0"/>
<feBlend mode="normal" in2="BackgroundImageFix" result="effect1_dropShadow_0_159"/>
<feBlend mode="normal" in="SourceGraphic" in2="effect1_dropShadow_0_159" result="shape"/>
</filter>
</defs>
</svg>
