<svg width="70" height="94" viewBox="0 0 70 94" fill="none" xmlns="http://www.w3.org/2000/svg">
<path d="M24.9399 4.79592C24.9399 2.14721 27.0871 0 29.7359 0C32.3846 0 34.5318 2.1472 34.5318 4.79591V74.8162H24.9399V4.79592Z" fill="#F1B38C"/>
<path d="M36.4497 20.1429C36.4497 17.4942 38.5969 15.347 41.2456 15.347C43.8943 15.347 46.0415 17.4942 46.0415 20.1429V44.1224H36.4497V20.1429Z" fill="#F1B38C"/>
<path d="M3.48313 41.4396C1.55945 38.3738 2.48535 34.329 5.55119 32.4053C8.61702 30.4816 12.6618 31.4075 14.5855 34.4733L31.9332 62.121L44.8436 82.6967L33.7412 89.663L3.48313 41.4396Z" fill="#F1B38C"/>
<path d="M47.9592 29.7345C47.9592 27.0858 50.1064 24.9386 52.7551 24.9386C55.4038 24.9386 57.551 27.0858 57.551 29.7345V82.4895H47.9592V29.7345Z" fill="#F1B38C"/>
<path d="M59.4705 37.4081C59.4705 34.7594 61.6177 32.6122 64.2664 32.6122C66.9151 32.6122 69.0623 34.7594 69.0623 37.4082V69.0612C69.0623 74.3586 64.7679 78.653 59.4705 78.653V37.4081Z" fill="#F1B38C"/>
<rect x="24.9399" y="44.1225" width="34.5306" height="26.8571" fill="#F1B38C"/>
<circle cx="48.9177" cy="70.0204" r="20.1428" fill="#F1B38C"/>
<rect x="28.7749" y="82.4898" width="34.5306" height="11.5102" fill="#D1DCE0"/>
</svg>
