<svg width="10" height="20" viewBox="0 0 10 20" fill="none" xmlns="http://www.w3.org/2000/svg">
<path d="M1.65859 19.9999C1.87199 20.0006 2.08284 19.9535 2.27565 19.8621C2.46846 19.7706 2.63833 19.6371 2.77277 19.4714L9.67212 10.9008C9.88222 10.6452 9.99707 10.3246 9.99707 9.9937C9.99707 9.66284 9.88222 9.34224 9.67212 9.08665L2.52993 0.516026C2.28747 0.224316 1.93906 0.0408693 1.56135 0.00604443C1.18363 -0.0287805 0.807549 0.0878684 0.515838 0.330329C0.224127 0.57279 0.0406818 0.921202 0.00585651 1.29892C-0.0289679 1.67663 0.0876799 2.05271 0.330141 2.34442L6.71525 10.0008L0.544407 17.6573C0.369734 17.8669 0.258777 18.1223 0.224667 18.393C0.190556 18.6638 0.234718 18.9386 0.351931 19.1851C0.469142 19.4315 0.654496 19.6392 0.88606 19.7836C1.11762 19.928 1.38571 20.0031 1.65859 19.9999Z" fill="#48565C" fill-opacity="0.7"/>
</svg>
