<svg width="13" height="12" viewBox="0 0 13 12" fill="none" xmlns="http://www.w3.org/2000/svg">
<path fill-rule="evenodd" clip-rule="evenodd" d="M6.01351 6.74989C5.59906 6.74989 5.26179 6.41339 5.26179 5.99989C5.26179 5.99335 5.2633 5.98695 5.26481 5.98053C5.26619 5.97469 5.26757 5.96885 5.2678 5.96289L6.0506 6.74389C6.04462 6.74413 6.03877 6.7455 6.03291 6.74688L6.03291 6.74688C6.02648 6.74839 6.02007 6.74989 6.01351 6.74989ZM2.35859 1.64662C2.16264 1.45112 1.84591 1.45112 1.64996 1.64662C1.45401 1.84212 1.45401 2.15813 1.64996 2.35362L4.47143 5.16863C4.33311 5.42313 4.25944 5.70563 4.25944 6.00012C4.25944 6.96513 5.04624 7.75012 6.01346 7.75012C6.30864 7.75012 6.59178 7.67662 6.84687 7.53862L9.66833 10.3536C9.76606 10.4511 9.89435 10.5001 10.0226 10.5001C10.1509 10.5001 10.2792 10.4511 10.377 10.3536C10.5729 10.1581 10.5729 9.84212 10.377 9.64662L2.35859 1.64662ZM6.12356 8.49893C3.96612 8.54893 2.55789 6.70743 2.09082 5.99793C2.31985 5.64093 2.70373 5.11793 3.23494 4.64243L2.52782 3.93642C1.76508 4.63093 1.27596 5.38993 1.06848 5.75143C0.979777 5.90543 0.979777 6.09493 1.06848 6.24893C1.3837 6.79743 3.08761 9.49993 6.02584 9.49993C6.06693 9.49993 6.10803 9.49943 6.14912 9.49843C6.74248 9.48343 7.27971 9.35543 7.76632 9.16343L6.97451 8.37343C6.7064 8.44443 6.42425 8.49143 6.12356 8.49893ZM5.87845 2.50181C8.87281 2.40831 10.6394 5.19531 10.9591 5.75131C11.0473 5.90531 11.0473 6.09481 10.9591 6.24881C10.7511 6.61031 10.262 7.36931 9.49924 8.06381L8.79212 7.35781C9.32334 6.88231 9.70772 6.35931 9.93624 6.00231C9.46917 5.29281 8.05443 3.44731 5.90401 3.50131C5.60332 3.50881 5.32117 3.55581 5.05256 3.62681L4.26074 2.83681C4.74786 2.64481 5.28459 2.51681 5.87845 2.50181Z" fill="#231F20"/>
<mask id="mask0_357_3923" style="mask-type:luminance" maskUnits="userSpaceOnUse" x="1" y="1" width="11" height="10">
<path fill-rule="evenodd" clip-rule="evenodd" d="M6.01351 6.74989C5.59906 6.74989 5.26179 6.41339 5.26179 5.99989C5.26179 5.99335 5.2633 5.98695 5.26481 5.98053C5.26619 5.97469 5.26757 5.96885 5.2678 5.96289L6.0506 6.74389C6.04462 6.74413 6.03877 6.7455 6.03291 6.74688L6.03291 6.74688C6.02648 6.74839 6.02007 6.74989 6.01351 6.74989ZM2.35859 1.64662C2.16264 1.45112 1.84591 1.45112 1.64996 1.64662C1.45401 1.84212 1.45401 2.15813 1.64996 2.35362L4.47143 5.16863C4.33311 5.42313 4.25944 5.70563 4.25944 6.00012C4.25944 6.96513 5.04624 7.75012 6.01346 7.75012C6.30864 7.75012 6.59178 7.67662 6.84687 7.53862L9.66833 10.3536C9.76606 10.4511 9.89435 10.5001 10.0226 10.5001C10.1509 10.5001 10.2792 10.4511 10.377 10.3536C10.5729 10.1581 10.5729 9.84212 10.377 9.64662L2.35859 1.64662ZM6.12356 8.49893C3.96612 8.54893 2.55789 6.70743 2.09082 5.99793C2.31985 5.64093 2.70373 5.11793 3.23494 4.64243L2.52782 3.93642C1.76508 4.63093 1.27596 5.38993 1.06848 5.75143C0.979777 5.90543 0.979777 6.09493 1.06848 6.24893C1.3837 6.79743 3.08761 9.49993 6.02584 9.49993C6.06693 9.49993 6.10803 9.49943 6.14912 9.49843C6.74248 9.48343 7.27971 9.35543 7.76632 9.16343L6.97451 8.37343C6.7064 8.44443 6.42425 8.49143 6.12356 8.49893ZM5.87845 2.50181C8.87281 2.40831 10.6394 5.19531 10.9591 5.75131C11.0473 5.90531 11.0473 6.09481 10.9591 6.24881C10.7511 6.61031 10.262 7.36931 9.49924 8.06381L8.79212 7.35781C9.32334 6.88231 9.70772 6.35931 9.93624 6.00231C9.46917 5.29281 8.05443 3.44731 5.90401 3.50131C5.60332 3.50881 5.32117 3.55581 5.05256 3.62681L4.26074 2.83681C4.74786 2.64481 5.28459 2.51681 5.87845 2.50181Z" fill="white"/>
</mask>
<g mask="url(#mask0_357_3923)">
<rect width="12.0276" height="12" fill="white"/>
</g>
</svg>
