<svg width="48" height="48" viewBox="0 0 48 48" fill="none" xmlns="http://www.w3.org/2000/svg">
<path d="M41.1426 17.1429H39.4282V15.4286C39.4282 6.9076 32.5206 0 23.9997 0C15.4787 0 8.57111 6.9076 8.57111 15.4286V17.1429H6.8569C5.91009 17.1429 5.14258 17.9104 5.14258 18.8572L5.14258 46.2857C5.14258 47.2325 5.91009 48 6.8569 48H41.1426C42.0894 48 42.8569 47.2325 42.8569 46.2857V18.8571C42.8569 17.9104 42.0894 17.1429 41.1426 17.1429ZM28.8484 32.5501C28.3306 34.0148 27.1786 35.1668 25.714 35.6846V39.4286C25.714 40.3754 24.9465 41.1429 23.9997 41.1429C23.0529 41.1429 22.2854 40.3754 22.2854 39.4286V35.6846C19.6075 34.7378 18.2041 31.7994 19.1509 29.1215C20.0977 26.4436 23.0361 25.0403 25.714 25.9871C28.3919 26.9339 29.7952 29.8722 28.8484 32.5501ZM35.9997 17.1429H11.9997V15.4286C11.9997 8.80111 17.3723 3.42854 23.9998 3.42854C30.6272 3.42854 35.9997 8.80111 35.9997 15.4286V17.1429Z" fill="#FFC2C2"/>
</svg>
