<svg width="32" height="32" viewBox="0 0 32 32" fill="none" xmlns="http://www.w3.org/2000/svg">
<path d="M10.6667 14.6668H10.68M16 14.6668H16.0133M21.3333 14.6668H21.3467M28 26.6668L23.5676 24.4506C23.2316 24.2826 23.0636 24.1986 22.8875 24.1394C22.7312 24.0868 22.5703 24.0488 22.4069 24.0259C22.2229 24.0002 22.0351 24.0002 21.6594 24.0002H8.26667C6.77319 24.0002 6.02646 24.0002 5.45603 23.7095C4.95426 23.4539 4.54631 23.0459 4.29065 22.5441C4 21.9737 4 21.227 4 19.7335V9.60016C4 8.10669 4 7.35995 4.29065 6.78952C4.54631 6.28776 4.95426 5.87981 5.45603 5.62415C6.02646 5.3335 6.77319 5.3335 8.26667 5.3335H23.7333C25.2268 5.3335 25.9735 5.3335 26.544 5.62415C27.0457 5.87981 27.4537 6.28776 27.7094 6.78952C28 7.35995 28 8.10669 28 9.60016V26.6668Z" stroke="#030D24" stroke-width="2" stroke-linecap="round" stroke-linejoin="round"/>
</svg>
