<svg width="136" height="139" viewBox="0 0 136 139" fill="none" xmlns="http://www.w3.org/2000/svg">
<path d="M13.8295 0.605109C13.8295 0.605109 29.1985 -0.882812 36.0924 7.36543C42.9862 15.6137 31.9006 22.2264 38.7944 30.4746C45.6883 38.7229 54.1634 28.9867 61.0573 37.235C67.9511 45.4832 56.8654 52.0959 63.7593 60.3442C70.6532 68.5924 79.1283 58.8563 86.0222 67.1045C92.916 75.3528 81.8303 81.9655 88.7242 90.2137C95.618 98.462 104.093 88.7258 110.987 96.9741C117.881 105.222 106.795 111.835 113.689 120.083C120.583 128.332 135.952 126.844 135.952 126.844" stroke="#FFB3B3"/>
<path d="M8.9388 4.6918C8.9388 4.6918 24.3078 3.20387 31.2017 11.4521C38.0955 19.7004 27.0098 26.3131 33.9037 34.5613C40.7975 42.8096 49.2727 33.0734 56.1665 41.3217C63.0604 49.5699 51.9747 56.1826 58.8686 64.4309C65.7624 72.6791 74.2376 62.943 81.1314 71.1912C88.0253 79.4394 76.9396 86.0522 83.8334 94.3004C90.7273 102.549 99.2024 92.8125 106.096 101.061C112.99 109.309 101.904 115.922 108.798 124.17C115.692 132.418 131.061 130.93 131.061 130.93" stroke="#FFB3B3"/>
<path d="M4.04905 8.77897C4.04905 8.77897 19.418 7.29105 26.3119 15.5393C33.2058 23.7875 22.1201 30.4003 29.0139 38.6485C35.9078 46.8968 44.3829 37.1606 51.2768 45.4088C58.1707 53.6571 47.085 60.2698 53.9788 68.5181C60.8727 76.7663 69.3478 67.0301 76.2417 75.2784C83.1355 83.5266 72.0498 90.1393 78.9437 98.3876C85.8376 106.636 94.3127 96.8997 101.207 105.148C108.1 113.396 97.0147 120.009 103.909 128.257C110.802 136.505 126.171 135.017 126.171 135.017" stroke="#FFB3B3"/>
<path d="M0.0479004 12.1237C0.0479004 12.1237 15.4169 10.6358 22.3108 18.884C29.2046 27.1323 18.1189 33.745 25.0128 41.9932C31.9066 50.2415 40.3818 40.5053 47.2756 48.7536C54.1695 57.0018 43.0838 63.6145 49.9777 71.8628C56.8715 80.111 65.3467 70.3748 72.2405 78.6231C79.1344 86.8713 68.0487 93.4841 74.9425 101.732C81.8364 109.981 90.3115 100.244 97.2054 108.493C104.099 116.741 93.0136 123.354 99.9074 131.602C106.801 139.85 122.17 138.362 122.17 138.362" stroke="#FFB3B3"/>
</svg>
