<svg width="21" height="19" viewBox="0 0 21 19" fill="none" xmlns="http://www.w3.org/2000/svg">
<path d="M18.0691 13.8293V18.1829M16.9878 0.768293V5.12195M15.9065 16.0061H20.2317M14.8252 2.94512H19.1504M9.4187 0.768293L7.52336 5.60561C7.32017 6.1242 7.21857 6.38349 7.06301 6.60213C6.92512 6.79593 6.75654 6.96562 6.564 7.10442C6.34679 7.26101 6.08919 7.36327 5.57399 7.5678L0.768292 9.47561L5.57399 11.3834C6.08919 11.5879 6.34679 11.6902 6.564 11.8468C6.75654 11.9856 6.92512 12.1553 7.06301 12.3491C7.21857 12.5677 7.32017 12.827 7.52336 13.3456L9.4187 18.1829L11.314 13.3456C11.5172 12.827 11.6188 12.5677 11.7744 12.3491C11.9123 12.1553 12.0809 11.9856 12.2734 11.8468C12.4906 11.6902 12.7482 11.5879 13.2634 11.3834L18.0691 9.47561L13.2634 7.5678C12.7482 7.36327 12.4906 7.26101 12.2734 7.10442C12.0809 6.96562 11.9123 6.79593 11.7744 6.60213C11.6188 6.38349 11.5172 6.1242 11.314 5.60561L9.4187 0.768293Z" stroke="#3785EF" stroke-width="1.5" stroke-linecap="round" stroke-linejoin="round"/>
</svg>
