<svg width="32" height="32" viewBox="0 0 32 32" fill="none" xmlns="http://www.w3.org/2000/svg">
<path d="M5.33301 16.0002H5.34634M10.6663 16.0002H10.6797M21.333 16.0002H21.3463M15.9997 16.0002H16.013M26.6663 16.0002H26.6797M11.333 5.3335H9.59967C8.1062 5.3335 7.35946 5.3335 6.78903 5.62415C6.28727 5.87981 5.87932 6.28776 5.62366 6.78952C5.33301 7.35995 5.33301 8.10669 5.33301 9.60016V11.3335M20.6663 5.3335H22.3997C23.8931 5.3335 24.6399 5.3335 25.2103 5.62415C25.7121 5.87981 26.12 6.28776 26.3757 6.78952C26.6663 7.35995 26.6663 8.10669 26.6663 9.60016V11.3335M26.6663 20.6668V22.4002C26.6663 23.8936 26.6663 24.6404 26.3757 25.2108C26.12 25.7126 25.7121 26.1205 25.2103 26.3762C24.6399 26.6668 23.8931 26.6668 22.3997 26.6668H20.6663M5.33301 20.6668V22.4002C5.33301 23.8936 5.33301 24.6404 5.62366 25.2108C5.87932 25.7126 6.28727 26.1205 6.78903 26.3762C7.35946 26.6668 8.1062 26.6668 9.59967 26.6668H11.333" stroke="#030D24" stroke-width="2" stroke-linecap="round" stroke-linejoin="round"/>
</svg>
