<svg width="33" height="33" viewBox="0 0 33 33" fill="none" xmlns="http://www.w3.org/2000/svg">
<path d="M16.5 32.9836C15.5716 32.9836 14.8046 32.4188 14.522 31.5311L11.545 21.9891C11.4642 21.7268 11.2624 21.5251 11 21.4444L1.45321 18.4688C0.575226 18.1965 0 17.4198 0 16.4918C0 15.5638 0.565134 14.7972 1.45321 14.5148L11 11.5392C11.2624 11.4585 11.4642 11.2568 11.545 10.9945L14.522 1.45248C14.7945 0.574934 15.5716 0 16.5 0C17.4284 0 18.1954 0.564847 18.478 1.45248L21.4551 10.9945C21.5358 11.2568 21.7376 11.4585 22 11.5392L31.5468 14.5148C32.4248 14.7871 33 15.5638 33 16.4918C33 17.4198 32.4349 18.1864 31.5468 18.4688L22 21.4444C21.7376 21.5251 21.5358 21.7268 21.4551 21.9891L18.478 31.5311C18.1954 32.4188 17.4284 32.9836 16.5 32.9836ZM16.5 1.24065C16.2073 1.24065 15.844 1.39196 15.7028 1.82568L12.7257 11.3677C12.5239 12.0133 12.0193 12.5277 11.3633 12.7295L1.81651 15.705C1.38257 15.8362 1.23119 16.1993 1.23119 16.5019C1.23119 16.7944 1.38257 17.1575 1.81651 17.2988L11.3633 20.2743C12.0092 20.4761 12.5239 20.9804 12.7257 21.6361L15.7028 31.1781C15.8339 31.6118 16.1973 31.7631 16.5 31.7631C16.8028 31.7631 17.156 31.6118 17.2973 31.1781L20.2743 21.6361C20.4762 20.9905 20.9807 20.4761 21.6367 20.2743L31.1835 17.2988C31.6174 17.1676 31.7688 16.8045 31.7688 16.5019C31.7688 16.2094 31.6174 15.8463 31.1835 15.705L21.6367 12.7295C20.9908 12.5277 20.4762 12.0234 20.2743 11.3677L17.2973 1.82568C17.156 1.39196 16.7927 1.24065 16.5 1.24065Z" fill="#775BE4"/>
</svg>
