<svg width="176" height="27" viewBox="0 0 176 27" fill="none" xmlns="http://www.w3.org/2000/svg">
<path d="M175.613 15.5474C175.613 15.5474 166.896 26.2259 156.143 26.2259C145.391 26.2259 147.426 15.5474 136.674 15.5474C125.921 15.5474 127.957 26.2259 117.204 26.2259C106.452 26.2259 108.487 15.5474 97.7347 15.5474C86.982 15.5474 89.0179 26.2259 78.2652 26.2259C67.5125 26.2259 69.5484 15.5474 58.7957 15.5474C48.043 15.5474 50.0789 26.2259 39.3262 26.2259C28.5735 26.2259 30.6094 15.5474 19.8567 15.5474C9.104 15.5474 0.387199 26.2259 0.387199 26.2259" stroke="#FF5983"/>
<path d="M175.613 10.2085C175.613 10.2085 166.896 20.887 156.143 20.887C145.391 20.887 147.426 10.2085 136.674 10.2085C125.921 10.2085 127.957 20.887 117.204 20.887C106.452 20.887 108.487 10.2085 97.7347 10.2085C86.982 10.2084 89.0179 20.887 78.2652 20.887C67.5125 20.887 69.5484 10.2084 58.7957 10.2084C48.043 10.2084 50.0789 20.887 39.3262 20.887C28.5735 20.887 30.6094 10.2084 19.8567 10.2084C9.104 10.2084 0.387199 20.887 0.387199 20.887" stroke="#FF5983"/>
<path d="M175.613 4.86906C175.613 4.86906 166.896 15.5476 156.143 15.5476C145.391 15.5476 147.426 4.86906 136.674 4.86906C125.921 4.86906 127.957 15.5476 117.204 15.5476C106.452 15.5476 108.487 4.86906 97.7347 4.86906C86.982 4.86906 89.0179 15.5476 78.2652 15.5476C67.5125 15.5476 69.5484 4.86906 58.7957 4.86906C48.043 4.86906 50.0789 15.5476 39.3262 15.5476C28.5735 15.5476 30.6094 4.86905 19.8567 4.86905C9.104 4.86905 0.387199 15.5476 0.387199 15.5476" stroke="#FF5983"/>
<path d="M175.613 0.500644C175.613 0.500644 166.896 11.1792 156.143 11.1792C145.391 11.1792 147.426 0.500643 136.674 0.500643C125.921 0.500642 127.957 11.1792 117.204 11.1792C106.452 11.1792 108.487 0.500642 97.7347 0.500641C86.982 0.500641 89.0179 11.1792 78.2652 11.1792C67.5125 11.1792 69.5484 0.50064 58.7957 0.500639C48.043 0.500639 50.0789 11.1792 39.3262 11.1792C28.5735 11.1792 30.6094 0.500638 19.8567 0.500638C9.104 0.500637 0.387199 11.1792 0.387199 11.1792" stroke="#FF5983"/>
</svg>
