<svg width="81" height="61" viewBox="0 0 81 61" fill="none" xmlns="http://www.w3.org/2000/svg">
<path d="M81 10.1C81 7.42131 79.9333 4.85234 78.0345 2.95822C76.1357 1.0641 73.5603 0 70.875 0H10.125C7.43968 0 4.86435 1.0641 2.96555 2.95822C1.06674 4.85234 0 7.42131 0 10.1V15.15H81V10.1ZM81 25.25V50.5C81 53.1787 79.9333 55.7477 78.0345 57.6418C76.1357 59.5359 73.5603 60.6 70.875 60.6H10.125C7.43968 60.6 4.86435 59.5359 2.96555 57.6418C1.06674 55.7477 0 53.1787 0 50.5V25.25H81ZM65.8125 35.35H60.75C59.4073 35.35 58.1197 35.882 57.1703 36.8291C56.2209 37.7762 55.6875 39.0607 55.6875 40.4V45.45C55.6875 46.7893 56.2209 48.0738 57.1703 49.0209C58.1197 49.9679 59.4073 50.5 60.75 50.5H65.8125C67.1552 50.5 68.4428 49.9679 69.3922 49.0209C70.3416 48.0738 70.875 46.7893 70.875 45.45V40.4C70.875 39.0607 70.3416 37.7762 69.3922 36.8291C68.4428 35.882 67.1552 35.35 65.8125 35.35Z" fill="#0566EB"/>
<rect x="55.3367" y="35.2871" width="16.0396" height="16.0396" fill="#0566EB"/>
<circle cx="67.4208" cy="44.4208" r="8.17079" stroke="#FF3F3F" stroke-width="0.5"/>
<path d="M62 46.176V45.678H63.086V42.756H62V42.39C62.132 42.378 62.278 42.356 62.438 42.324C62.598 42.288 62.766 42.244 62.942 42.192C63.122 42.136 63.298 42.072 63.47 42H63.692V45.678H64.766V46.176H62Z" fill="white"/>
<path d="M65.6074 46.176V45.99C65.6074 45.738 65.6614 45.522 65.7694 45.342C65.8774 45.162 66.0334 45 66.2374 44.856L67.3834 44.064C67.5154 43.972 67.6274 43.86 67.7194 43.728C67.8114 43.596 67.8574 43.438 67.8574 43.254C67.8574 43.018 67.7874 42.834 67.6474 42.702C67.5114 42.57 67.3114 42.504 67.0474 42.504C66.8874 42.504 66.7434 42.54 66.6154 42.612C66.4914 42.684 66.3934 42.782 66.3214 42.906C66.2494 43.03 66.2134 43.17 66.2134 43.326C66.2134 43.354 66.2134 43.38 66.2134 43.404C66.2134 43.428 66.2154 43.452 66.2194 43.476H65.6494C65.6494 43.448 65.6494 43.428 65.6494 43.416C65.6494 43.4 65.6494 43.384 65.6494 43.368C65.6494 43.1 65.7094 42.864 65.8294 42.66C65.9534 42.452 66.1214 42.29 66.3334 42.174C66.5494 42.058 66.7954 42 67.0714 42H67.1434C67.4234 42 67.6614 42.052 67.8574 42.156C68.0574 42.26 68.2094 42.404 68.3134 42.588C68.4214 42.768 68.4754 42.982 68.4754 43.23C68.4754 43.438 68.4394 43.62 68.3674 43.776C68.2994 43.932 68.2054 44.068 68.0854 44.184C67.9694 44.3 67.8374 44.408 67.6894 44.508L66.6214 45.246C66.5614 45.286 66.5094 45.332 66.4654 45.384C66.4214 45.432 66.3874 45.48 66.3634 45.528C66.3434 45.572 66.3294 45.612 66.3214 45.648H68.4934V46.176H65.6074Z" fill="white"/>
<path d="M70.7208 46.236C70.4328 46.236 70.1828 46.186 69.9708 46.086C69.7628 45.986 69.6028 45.848 69.4908 45.672C69.3788 45.496 69.3228 45.296 69.3228 45.072V44.964H69.8928C69.8928 45.24 69.9728 45.44 70.1328 45.564C70.2928 45.688 70.5088 45.75 70.7808 45.75C71.0408 45.75 71.2548 45.688 71.4228 45.564C71.5908 45.44 71.6748 45.256 71.6748 45.012C71.6748 44.844 71.6368 44.708 71.5608 44.604C71.4848 44.496 71.3808 44.418 71.2488 44.37C71.1208 44.318 70.9808 44.292 70.8288 44.292H70.3128V43.854H70.7748C70.9188 43.854 71.0528 43.828 71.1768 43.776C71.3008 43.724 71.3988 43.646 71.4708 43.542C71.5468 43.438 71.5848 43.31 71.5848 43.158C71.5848 43.006 71.5488 42.882 71.4768 42.786C71.4048 42.686 71.3068 42.612 71.1828 42.564C71.0628 42.516 70.9268 42.492 70.7748 42.492C70.5268 42.492 70.3308 42.554 70.1868 42.678C70.0428 42.802 69.9708 42.982 69.9708 43.218H69.4248V43.116C69.4248 42.888 69.4848 42.692 69.6048 42.528C69.7288 42.36 69.8928 42.23 70.0968 42.138C70.3008 42.046 70.5308 42 70.7868 42H70.8708C71.1188 42 71.3428 42.044 71.5428 42.132C71.7428 42.22 71.9008 42.348 72.0168 42.516C72.1328 42.68 72.1908 42.876 72.1908 43.104C72.1908 43.264 72.1608 43.404 72.1008 43.524C72.0448 43.64 71.9688 43.74 71.8728 43.824C71.7768 43.904 71.6688 43.972 71.5488 44.028V44.058C71.7608 44.126 71.9368 44.242 72.0768 44.406C72.2168 44.566 72.2868 44.782 72.2868 45.054C72.2868 45.286 72.2228 45.49 72.0948 45.666C71.9668 45.842 71.7908 45.982 71.5668 46.086C71.3468 46.186 71.0968 46.236 70.8168 46.236H70.7208Z" fill="white"/>
</svg>
