<svg width="43" height="42" viewBox="0 0 43 42" fill="none" xmlns="http://www.w3.org/2000/svg">
<path d="M32.5011 14.5031C32.8337 14.2577 33.1038 13.9405 33.2901 13.5762C33.4765 13.2119 33.5742 12.8104 33.5755 12.4031V6.5625C33.5755 5.86631 33.2925 5.19863 32.7887 4.70634C32.285 4.21406 31.6018 3.9375 30.8894 3.9375H12.0871C11.3747 3.9375 10.6915 4.21406 10.1878 4.70634C9.68404 5.19863 9.40105 5.86631 9.40105 6.5625V12.4688C9.40234 12.876 9.49999 13.2775 9.68638 13.6418C9.87276 14.0061 10.1428 14.3234 10.4755 14.5688L13.5141 16.8L19.2555 21L10.4755 27.4313C10.1428 27.6766 9.87276 27.9939 9.68638 28.3582C9.49999 28.7225 9.40234 29.124 9.40105 29.5313V35.4375C9.40105 36.1337 9.68404 36.8014 10.1878 37.2937C10.6915 37.7859 11.3747 38.0625 12.0871 38.0625H30.8894C31.6018 38.0625 32.285 37.7859 32.7887 37.2937C33.2925 36.8014 33.5755 36.1337 33.5755 35.4375V29.5969C33.5742 29.1896 33.4765 28.7881 33.2901 28.4238C33.1038 28.0595 32.8337 27.7423 32.5011 27.4969L23.721 21L27.5319 18.1781L32.5011 14.5031ZM12.0871 6.5625H30.8894V12.4031L29.9157 13.125H12.9768L12.0871 12.4688V6.5625ZM30.8894 29.5969V35.4375H12.0871V29.5313L20.1452 23.625V27.5625C20.1452 27.9106 20.2867 28.2444 20.5386 28.4906C20.7905 28.7367 21.1321 28.875 21.4883 28.875C21.8444 28.875 22.1861 28.7367 22.4379 28.4906C22.6898 28.2444 22.8313 27.9106 22.8313 27.5625V23.6414L30.8894 29.5969Z" fill="#0566EB"/>
</svg>
