<svg width="17" height="16" viewBox="0 0 17 16" fill="none" xmlns="http://www.w3.org/2000/svg">
<path fill-rule="evenodd" clip-rule="evenodd" d="M8.01827 8.99994C7.46567 8.99994 7.01597 8.55127 7.01597 7.99994C7.01597 7.99121 7.01798 7.98267 7.02 7.97413C7.02183 7.96634 7.02367 7.95855 7.02399 7.9506L8.06771 8.99194C8.05975 8.99225 8.05194 8.99409 8.04413 8.99592C8.03557 8.99793 8.02701 8.99994 8.01827 8.99994ZM3.14527 2.19526C2.884 1.93459 2.4617 1.93459 2.20044 2.19526C1.93917 2.45592 1.93917 2.87726 2.20044 3.13792L5.96239 6.89126C5.77797 7.23059 5.67974 7.60726 5.67974 7.99992C5.67974 9.28659 6.72881 10.3333 8.01843 10.3333C8.412 10.3333 8.78953 10.2353 9.12965 10.0513L12.8916 13.8046C13.0219 13.9346 13.193 13.9999 13.364 13.9999C13.5351 13.9999 13.7061 13.9346 13.8364 13.8046C14.0977 13.5439 14.0977 13.1226 13.8364 12.8619L3.14527 2.19526ZM8.16524 11.3317C5.28865 11.3983 3.41101 8.94299 2.78825 7.99699C3.09362 7.52099 3.60546 6.82366 4.31375 6.18966L3.37092 5.24832C2.35392 6.17432 1.70176 7.18632 1.42513 7.66832C1.30686 7.87366 1.30686 8.12632 1.42513 8.33166C1.84543 9.06299 4.1173 12.6663 8.03494 12.6663C8.08973 12.6663 8.14452 12.6657 8.19931 12.6643C8.99046 12.6443 9.70677 12.4737 10.3556 12.2177L9.29984 11.1643C8.94235 11.259 8.56615 11.3217 8.16524 11.3317ZM7.83782 3.33552C11.8303 3.21086 14.1857 6.92686 14.612 7.66819C14.7296 7.87352 14.7296 8.12619 14.612 8.33152C14.3347 8.81352 13.6825 9.82552 12.6655 10.7515L11.7227 9.81019C12.431 9.17619 12.9435 8.47886 13.2482 8.00286C12.6255 7.05686 10.7391 4.59619 7.8719 4.66819C7.47098 4.67819 7.09478 4.74086 6.73663 4.83552L5.68088 3.78219C6.33037 3.52619 7.04601 3.35552 7.83782 3.33552Z" fill="#231F20"/>
<mask id="mask0_357_3965" style="mask-type:luminance" maskUnits="userSpaceOnUse" x="1" y="1" width="14" height="13">
<path fill-rule="evenodd" clip-rule="evenodd" d="M8.01827 8.99994C7.46567 8.99994 7.01597 8.55127 7.01597 7.99994C7.01597 7.99121 7.01798 7.98267 7.02 7.97413C7.02183 7.96634 7.02367 7.95855 7.02399 7.9506L8.06771 8.99194C8.05975 8.99225 8.05194 8.99409 8.04413 8.99592C8.03557 8.99793 8.02701 8.99994 8.01827 8.99994ZM3.14527 2.19526C2.884 1.93459 2.4617 1.93459 2.20044 2.19526C1.93917 2.45592 1.93917 2.87726 2.20044 3.13792L5.96239 6.89126C5.77797 7.23059 5.67974 7.60726 5.67974 7.99992C5.67974 9.28659 6.72881 10.3333 8.01843 10.3333C8.412 10.3333 8.78953 10.2353 9.12965 10.0513L12.8916 13.8046C13.0219 13.9346 13.193 13.9999 13.364 13.9999C13.5351 13.9999 13.7061 13.9346 13.8364 13.8046C14.0977 13.5439 14.0977 13.1226 13.8364 12.8619L3.14527 2.19526ZM8.16524 11.3317C5.28865 11.3983 3.41101 8.94299 2.78825 7.99699C3.09362 7.52099 3.60546 6.82366 4.31375 6.18966L3.37092 5.24832C2.35392 6.17432 1.70176 7.18632 1.42513 7.66832C1.30686 7.87366 1.30686 8.12632 1.42513 8.33166C1.84543 9.06299 4.1173 12.6663 8.03494 12.6663C8.08973 12.6663 8.14452 12.6657 8.19931 12.6643C8.99046 12.6443 9.70677 12.4737 10.3556 12.2177L9.29984 11.1643C8.94235 11.259 8.56615 11.3217 8.16524 11.3317ZM7.83782 3.33552C11.8303 3.21086 14.1857 6.92686 14.612 7.66819C14.7296 7.87352 14.7296 8.12619 14.612 8.33152C14.3347 8.81352 13.6825 9.82552 12.6655 10.7515L11.7227 9.81019C12.431 9.17619 12.9435 8.47886 13.2482 8.00286C12.6255 7.05686 10.7391 4.59619 7.8719 4.66819C7.47098 4.67819 7.09478 4.74086 6.73663 4.83552L5.68088 3.78219C6.33037 3.52619 7.04601 3.35552 7.83782 3.33552Z" fill="white"/>
</mask>
<g mask="url(#mask0_357_3965)">
<rect width="16.0367" height="16" fill="white"/>
</g>
</svg>
