<svg width="48" height="48" viewBox="0 0 48 48" fill="none" xmlns="http://www.w3.org/2000/svg">
<rect width="48" height="48" rx="24" fill="#990D81"/>
<path d="M25.6333 25.4557C25.6451 25.434 25.6547 25.4112 25.6651 25.389L29.4467 17.1702C29.4777 17.1032 29.5089 17.0364 29.5393 16.9691C29.55 16.9461 29.5607 16.9258 29.5917 16.9261C29.6613 16.9261 29.7311 16.9261 29.8105 16.9261C29.7931 16.9683 29.7824 16.9996 29.7677 17.0297C28.4194 19.9692 27.0712 22.9087 25.7231 25.848C25.6693 25.9651 25.6138 26.082 25.562 26.2C25.5164 26.3042 25.5232 26.4056 25.5986 26.494C25.6315 26.5352 25.6755 26.5662 25.7254 26.5832C25.7753 26.6002 25.8291 26.6024 25.8802 26.5897C25.9929 26.5669 26.0492 26.4889 26.0931 26.3926C27.4386 23.4645 28.7836 20.537 30.1282 17.6101C30.2566 17.3307 30.3816 17.0505 30.514 16.7723C30.5866 16.618 30.5278 16.4009 30.325 16.3589V16.3403H29.3096C29.3105 16.3432 29.3109 16.3462 29.3106 16.3492C29.3103 16.3523 29.3094 16.3552 29.3079 16.3578C29.1975 16.382 29.1389 16.46 29.0936 16.5549C28.9434 16.8819 28.7932 17.2089 28.643 17.5357C27.5752 19.8662 26.5062 22.1962 25.4361 24.5256C25.4209 24.5591 25.4049 24.5921 25.3866 24.6309C25.3443 24.6028 25.3438 24.556 25.321 24.5231C25.2427 24.4104 25.2618 24.3065 25.3184 24.1835C26.4201 21.7874 27.5183 19.39 28.6132 16.9911C28.6475 16.9156 28.683 16.8405 28.7171 16.7658C28.7976 16.5867 28.7117 16.4076 28.5216 16.3561C28.5207 16.3507 28.5186 16.3456 28.5154 16.3412H27.52C27.5215 16.347 27.5207 16.3531 27.5177 16.3584C27.4079 16.3806 27.3429 16.4533 27.2984 16.5504C27.1268 16.9249 26.9549 17.2993 26.7828 17.6734L24.5201 22.6014C24.5097 22.6237 24.499 22.6456 24.4849 22.6744C24.4393 22.6259 24.4286 22.564 24.3976 22.5147C24.3396 22.4229 24.3489 22.3409 24.3948 22.2415C25.2234 20.447 26.0495 18.6513 26.8729 16.8545C26.9081 16.7779 26.9345 16.7016 26.9151 16.6146C26.9042 16.5584 26.876 16.507 26.8345 16.4677C26.7929 16.4284 26.7401 16.403 26.6834 16.3952C26.6497 16.3912 26.6158 16.3896 26.582 16.3905C26.3235 16.3905 26.065 16.3952 25.8067 16.3885C25.6395 16.384 25.5361 16.4555 25.4688 16.6042C25.0152 17.5962 24.5599 18.5877 24.1028 19.5787C23.9411 19.9307 23.7795 20.2827 23.6179 20.6347C23.6066 20.6598 23.5931 20.6837 23.5745 20.7206C23.5294 20.6221 23.49 20.5336 23.448 20.4449C23.4326 20.4109 23.4565 20.3858 23.4686 20.3605C23.6021 20.0665 23.7362 19.7728 23.871 19.4796C24.278 18.5909 24.6849 17.7021 25.0917 16.8131C25.1481 16.6909 25.1315 16.5696 25.0475 16.4789C25.0244 16.4519 24.9958 16.4301 24.9636 16.415C24.9314 16.4 24.8964 16.392 24.8608 16.3916C24.5561 16.3916 24.2515 16.389 23.9468 16.3916C23.8158 16.3916 23.7311 16.469 23.6781 16.5842L23.374 17.2462C23.1549 17.7238 22.9355 18.201 22.7159 18.6776C22.7049 18.7018 22.7001 18.7311 22.6694 18.7489L22.4416 18.2552C22.1941 17.7162 21.9446 17.1778 21.7007 16.6371C21.6444 16.5101 21.5779 16.3986 21.4447 16.3412H21.3155C21.2921 16.3716 21.253 16.3767 21.2237 16.3975C21.1282 16.4662 21.0804 16.556 21.0947 16.6749C21.1032 16.7171 21.1181 16.7577 21.1389 16.7954C21.5332 17.6563 21.9274 18.517 22.3216 19.3774C22.3348 19.4011 22.342 19.4276 22.3425 19.4547C22.3431 19.4818 22.337 19.5086 22.3247 19.5328C21.8458 20.5708 21.3684 21.6093 20.8925 22.6482C20.8853 22.6715 20.8724 22.6927 20.8551 22.7098C20.8317 22.6792 20.8135 22.6449 20.801 22.6085C19.8836 20.6114 18.9662 18.6141 18.0489 16.6166C18.0347 16.5826 18.0177 16.5498 17.9982 16.5186C17.9138 16.3924 17.7606 16.3496 17.6347 16.4172C17.4883 16.4949 17.4336 16.6425 17.497 16.7917C17.508 16.8174 17.5201 16.8421 17.5314 16.8675L20.558 23.4738C20.5699 23.5027 20.5834 23.5309 20.5983 23.5583C20.7129 23.7554 20.97 23.7605 21.0925 23.5698C21.1143 23.5328 21.1336 23.4943 21.1502 23.4547L22.6244 20.2546C22.6357 20.2214 22.6525 20.1903 22.6739 20.1625C22.717 20.2242 22.7362 20.2962 22.7728 20.3596C22.8026 20.4109 22.7956 20.4551 22.7714 20.5066C22.6435 20.7795 22.5179 21.0538 22.3935 21.3275C21.9429 22.308 21.4923 23.2885 21.0418 24.2691C21.0223 24.3076 21.012 24.3501 21.0117 24.3932C21.0115 24.4364 21.0213 24.479 21.0404 24.5177C21.0643 24.5678 21.0871 24.6182 21.1099 24.6687C21.2302 24.9348 21.351 25.2006 21.4698 25.4673C21.5098 25.5568 21.5701 25.6213 21.6669 25.6461C21.8227 25.6858 21.9516 25.6244 22.022 25.4735C22.1685 25.1584 22.3129 24.8427 22.4582 24.527C22.8149 23.7505 23.1722 22.9743 23.53 22.1982C23.5415 22.1731 23.5455 22.1419 23.579 22.1255C23.6091 22.1911 23.6333 22.2548 23.6663 22.3133C23.6992 22.3719 23.6928 22.4184 23.6663 22.4767C23.1003 23.7076 22.535 24.9394 21.9705 26.1718C21.9564 26.2025 21.9409 26.2329 21.9299 26.2648C21.9161 26.3017 21.9104 26.3412 21.9131 26.3806C21.9159 26.42 21.927 26.4583 21.9458 26.493C21.9646 26.5277 21.9907 26.558 22.0222 26.5818C22.0537 26.6055 22.0899 26.6223 22.1285 26.6308C22.265 26.666 22.3926 26.6027 22.4579 26.4619C22.6081 26.138 22.757 25.814 22.9046 25.4898C23.259 24.719 23.6136 23.9482 23.9684 23.1776C23.9814 23.1494 23.9853 23.1131 24.0231 23.0965C24.0453 23.1441 24.0662 23.1886 24.0867 23.2331C24.1292 23.3251 24.1689 23.4189 24.2151 23.509C24.2377 23.5567 24.2733 23.5972 24.3178 23.6256C24.3622 23.6541 24.4138 23.6695 24.4666 23.6701C24.5823 23.6743 24.6637 23.6138 24.7229 23.5178C24.7394 23.4883 24.7544 23.4579 24.7676 23.4268L27.5369 17.4104C27.6024 17.2679 27.6681 17.1255 27.734 16.9832C27.747 16.9551 27.7557 16.9244 27.7962 16.9269C27.8633 16.93 27.9308 16.921 27.9993 16.9328C28.0021 16.9815 27.9739 17.0173 27.9567 17.0548C27.0808 18.9663 26.2043 20.8774 25.3272 22.7881C25.1066 23.2687 24.8859 23.7492 24.6651 24.2296C24.6469 24.2636 24.6364 24.3013 24.6346 24.3398C24.6327 24.3783 24.6395 24.4168 24.6544 24.4524C24.8046 24.7864 24.9554 25.1197 25.1067 25.4523C25.1582 25.565 25.2523 25.6143 25.3739 25.6151C25.428 25.6168 25.4814 25.6026 25.5275 25.5743C25.5736 25.546 25.6104 25.5048 25.6333 25.4557ZM23.02 19.3906C23.1374 19.1338 23.2554 18.8771 23.3743 18.6204C23.6162 18.0958 23.8592 17.5718 24.098 17.0457C24.1261 16.9821 24.1611 16.9568 24.2289 16.9646C24.2835 16.9675 24.3382 16.9675 24.3928 16.9646L23.1217 19.7356C23.0755 19.6356 23.0392 19.5554 23.0017 19.4759C22.9862 19.4427 23.009 19.4174 23.0211 19.3906H23.02ZM23.2247 21.488C23.0558 21.8569 22.8868 22.2254 22.7179 22.5935C22.4173 23.2495 22.1166 23.906 21.8156 24.5631C21.7993 24.5988 21.7824 24.634 21.7607 24.6805C21.7546 24.674 21.7489 24.6672 21.7438 24.6599C21.7047 24.5732 21.6424 24.489 21.6334 24.3992C21.625 24.3147 21.6945 24.2356 21.7314 24.155C22.1771 23.179 22.6235 22.2037 23.0707 21.2292C23.0822 21.1934 23.1014 21.1605 23.127 21.1329C23.1693 21.2252 23.2115 21.3134 23.2498 21.4021C23.2633 21.4348 23.2397 21.4609 23.2259 21.488H23.2247ZM24.0222 21.6975C23.9772 21.6001 23.942 21.5218 23.9045 21.444C23.8848 21.4032 23.9082 21.3722 23.9231 21.3399C24.0679 21.0239 24.2132 20.7083 24.359 20.3931C24.8704 19.2817 25.3817 18.1703 25.8929 17.0587C25.9019 17.0393 25.912 17.0201 25.9211 17.0001C25.9251 16.9887 25.9328 16.9791 25.9431 16.9727C25.9533 16.9663 25.9654 16.9635 25.9774 16.9649C26.0447 16.9649 26.1117 16.9649 26.1928 16.9649L24.0222 21.6975Z" fill="white"/>
<path d="M14.583 29.0753L13.812 31.1772L13.569 31.8221C13.5659 31.8308 13.0812 31.8485 13.0812 31.8485C13.0794 31.8366 13.0766 31.8248 13.0728 31.8133C12.8483 31.258 12.6234 30.7028 12.3981 30.1477C12.3916 30.1316 12.3888 30.1125 12.3677 30.1077C12.3643 30.1129 12.3611 30.1184 12.3584 30.124L11.6597 31.8485H11.181C11.1875 31.8125 11.1664 31.7832 11.1551 31.7522C11.0276 31.4087 10.9001 31.066 10.7724 30.7241C10.5984 30.2548 10.4243 29.786 10.25 29.3178L10.2478 29.3116L10.1734 29.1136L10.1608 29.0793C10.3646 29.0793 10.5691 29.0793 10.773 29.0742C10.8268 29.0742 10.8391 29.1024 10.8541 29.1424C10.9937 29.5098 11.1341 29.8771 11.2751 30.2443C11.328 30.3811 11.3807 30.518 11.4406 30.6737C11.4578 30.6348 11.4688 30.6118 11.4781 30.5892C11.672 30.1129 11.866 29.6372 12.0602 29.1621C12.1013 29.0618 12.0796 29.0776 12.1922 29.0756C12.333 29.0756 12.4738 29.0756 12.6166 29.0756C12.698 29.0756 12.6983 29.0756 12.7292 29.1522C12.9145 29.627 13.0997 30.102 13.2848 30.5771C13.2955 30.6053 13.3082 30.6334 13.3265 30.6762C13.3426 30.6385 13.3547 30.6154 13.3626 30.5918L13.9308 29.1615C13.9649 29.0753 13.9652 29.0753 14.0536 29.0753H14.583Z" fill="white"/>
<path d="M21.0085 30.8348C21.0085 30.2661 21.0085 29.6974 21.0085 29.1286C21.0085 29.0469 21.0085 29.0463 20.9286 29.0461C20.7596 29.0461 20.5906 29.0503 20.4217 29.0438C20.3414 29.0407 20.2967 29.0649 20.2555 29.1367C19.9973 29.5873 19.7337 30.0348 19.4713 30.4828C19.4552 30.5109 19.4451 30.543 19.4105 30.5625C19.3922 30.5312 19.3761 30.5062 19.3615 30.478C19.108 30.0241 18.8563 29.5707 18.6065 29.1153C18.5969 29.0917 18.5799 29.0718 18.558 29.0588C18.536 29.0458 18.5105 29.0403 18.4851 29.0432C18.3007 29.0477 18.1162 29.0432 17.9318 29.0452C17.8135 29.0452 17.8245 29.0311 17.8245 29.1545C17.8245 29.9938 17.8245 30.8332 17.8245 31.6725C17.8245 31.7308 17.8259 31.7894 17.8267 31.8477H18.4181V30.2017C18.448 30.2079 18.4522 30.2274 18.4603 30.2423C18.7487 30.7565 19.0369 31.2708 19.3249 31.7852C19.3316 31.7988 19.3374 31.8128 19.3423 31.8271C19.3691 31.8432 19.38 31.8246 19.3916 31.8052L19.5749 31.4954C19.819 31.0824 20.0635 30.6702 20.3085 30.2589C20.3215 30.2263 20.3436 30.1982 20.3721 30.1778V30.2527C20.3721 30.7506 20.3721 31.2481 20.3721 31.7452C20.3721 31.779 20.3738 31.8128 20.3747 31.8466H21.0026C21.0108 31.8137 21.013 31.7797 21.0091 31.746C21.0089 31.443 21.0087 31.1393 21.0085 30.8348Z" fill="white"/>
<path d="M17.3097 31.2934C16.7409 31.2934 16.172 31.2934 15.6029 31.2934C15.5162 31.2934 15.5157 31.2934 15.5154 31.2109C15.5154 31.0633 15.5154 30.9155 15.5154 30.7679C15.5154 30.688 15.5154 30.6877 15.5956 30.6868H15.6415C16.0014 30.6868 16.3613 30.6868 16.7212 30.6868C16.7921 30.6868 16.7933 30.6868 16.7936 30.6173C16.7936 30.4852 16.7936 30.3529 16.7936 30.2205C16.7936 30.134 16.7936 30.1417 16.711 30.1411C16.4959 30.1397 16.2805 30.1411 16.0653 30.1411C15.9054 30.1411 15.7454 30.1411 15.5866 30.1411C15.5179 30.1411 15.5168 30.1394 15.5162 30.0687C15.5162 29.9457 15.5162 29.8226 15.5162 29.6995C15.5162 29.6359 15.5179 29.6345 15.5838 29.6345C15.7927 29.6345 16.002 29.6345 16.2112 29.6345C16.5771 29.6345 16.9432 29.6345 17.3094 29.6345C17.3796 29.6345 17.3804 29.6345 17.381 29.5632C17.381 29.434 17.381 29.3047 17.381 29.1758C17.381 29.0719 17.3934 29.0772 17.281 29.0772C16.5182 29.0772 15.7556 29.0772 14.993 29.0772C14.8553 29.0772 14.8739 29.062 14.8739 29.1927C14.8739 30.0782 14.8739 30.9639 14.8739 31.8498H17.4218C17.4218 31.7023 17.4252 31.5547 17.4252 31.4072C17.4235 31.2771 17.437 31.2948 17.3097 31.2934Z" fill="white"/>
<path d="M36.5624 30.1345C36.9882 29.7769 37.4138 29.419 37.8392 29.0608V29.0425C37.5858 29.0425 37.3349 29.047 37.0828 29.0442C37.0158 29.0417 36.9503 29.0647 36.8995 29.1087C36.5134 29.4235 36.1258 29.7364 35.7368 30.0475C35.7148 30.065 35.6982 30.0971 35.6574 30.0875V30.0129C35.6574 29.7144 35.6574 29.416 35.6574 29.1177C35.6574 29.0475 35.656 29.0464 35.5856 29.0461C35.4194 29.0461 35.2534 29.0461 35.0874 29.0461C35.0165 29.0461 35.0165 29.0461 35.0148 29.1168C35.0148 29.1351 35.0148 29.1537 35.0148 29.1731V31.5448C35.0148 31.6186 35.0167 31.6926 35.0148 31.7661C35.0131 31.8131 35.0283 31.8309 35.0773 31.8303C35.2496 31.8278 35.4217 31.8281 35.594 31.8303C35.6399 31.8303 35.6647 31.8191 35.6588 31.7686C35.6576 31.7499 35.6576 31.7311 35.6588 31.7123C35.6588 31.4568 35.6588 31.2015 35.6588 30.9464C35.6588 30.9182 35.6515 30.8847 35.6822 30.8619C35.7858 30.7851 35.889 30.7077 35.9919 30.6296C35.9957 30.6258 36.0004 30.623 36.0055 30.6213C36.0106 30.6197 36.016 30.6193 36.0213 30.6201C36.0266 30.621 36.0316 30.6231 36.036 30.6262C36.0403 30.6294 36.0438 30.6335 36.0463 30.6383C36.0575 30.653 36.0694 30.6665 36.0812 30.6814C36.3799 31.045 36.6784 31.4088 36.9767 31.7726C36.9896 31.791 37.007 31.8058 37.0273 31.8157C37.0475 31.8255 37.0699 31.8301 37.0924 31.8289C37.3078 31.8258 37.5233 31.8289 37.7384 31.8269C37.7576 31.8269 37.7815 31.8388 37.7947 31.814C37.7827 31.7856 37.7649 31.7601 37.7424 31.7391C37.3447 31.2461 36.9468 30.7531 36.5486 30.2601C36.4937 30.1923 36.4802 30.2035 36.5624 30.1345Z" fill="white"/>
<path d="M24.1749 31.4979C23.806 30.7212 23.438 29.9444 23.0708 29.1674C23.0364 29.0941 22.9973 29.0688 22.9187 29.0739C22.8082 29.0806 22.6974 29.0806 22.587 29.0739C22.5126 29.0696 22.4743 29.0936 22.4422 29.1637C22.1446 29.8142 21.8421 30.4624 21.5411 31.1118C21.4285 31.3568 21.3158 31.6029 21.2046 31.8485H21.8137C21.9159 31.6418 22.019 31.4359 22.1187 31.229C22.1403 31.1842 22.1705 31.1766 22.2141 31.1769C22.4785 31.1769 22.7433 31.1769 23.008 31.1769C23.0941 31.1769 23.1803 31.1769 23.2665 31.1769C23.2815 31.1751 23.2968 31.1784 23.3098 31.1861C23.3229 31.1938 23.3331 31.2056 23.3388 31.2197C23.438 31.421 23.5391 31.6212 23.639 31.8223C23.6415 31.8315 23.6423 31.841 23.6416 31.8504H24.3247C24.3382 31.8223 24.318 31.804 24.3081 31.7829C24.2647 31.6877 24.2197 31.5922 24.1749 31.4979ZM22.3611 30.6812L22.7387 29.9418C22.868 30.1989 22.9868 30.4362 23.1107 30.6829L22.3611 30.6812Z" fill="white"/>
<path d="M27.9605 30.4288C27.9306 30.4088 27.8937 30.3978 27.8712 30.3683C27.8734 30.3632 27.874 30.3601 27.876 30.3584C27.8881 30.3488 27.9002 30.3395 27.9126 30.3302C28.0692 30.2176 28.1615 30.0672 28.1745 29.874C28.2026 29.4745 28.0055 29.1782 27.62 29.0836C27.4999 29.0565 27.377 29.0439 27.2539 29.0461C26.7001 29.0461 26.1463 29.0461 25.5925 29.0461C25.5114 29.0461 25.5103 29.0461 25.5103 29.1258C25.5103 29.9995 25.5103 30.8734 25.5103 31.7473C25.5103 31.8275 25.5103 31.8275 25.5911 31.8284H25.628C26.145 31.8284 26.6619 31.8284 27.1787 31.8284C27.2895 31.829 27.4001 31.8232 27.5102 31.8109C27.9531 31.7599 28.2843 31.4589 28.2612 30.9607C28.2592 30.8541 28.2307 30.7496 28.1782 30.6567C28.1257 30.5638 28.0508 30.4855 27.9605 30.4288ZM26.1526 29.6783C26.1526 29.611 26.1543 29.6088 26.2168 29.6088C26.5457 29.6088 26.8748 29.6092 27.2041 29.6102C27.2657 29.6094 27.327 29.618 27.386 29.6358C27.4916 29.6696 27.5378 29.7397 27.5361 29.8611C27.5344 29.9757 27.4854 30.0441 27.3835 30.0757C27.309 30.0953 27.232 30.1039 27.1551 30.101C27.0165 30.1024 26.8783 30.101 26.7397 30.101C26.5677 30.101 26.3953 30.101 26.223 30.101C26.154 30.101 26.1531 30.0993 26.1526 30.0284C26.1518 29.912 26.1518 29.7953 26.1526 29.6783ZM27.4606 31.2128C27.3516 31.2632 27.2336 31.2652 27.1171 31.2691C26.9909 31.2725 26.8636 31.2691 26.7386 31.2691C26.5696 31.2691 26.4007 31.2691 26.2317 31.2691C26.1543 31.2691 26.1531 31.2691 26.1529 31.1953C26.1529 31.0382 26.1529 30.8813 26.1529 30.7245C26.1529 30.6805 26.1672 30.6659 26.2112 30.6662C26.5491 30.6682 26.887 30.6662 27.2249 30.6701C27.299 30.6708 27.3724 30.6844 27.4417 30.7104C27.5521 30.7518 27.6051 30.8349 27.6107 30.9509C27.6163 31.0669 27.5721 31.1615 27.4606 31.2128Z" fill="white"/>
<path d="M34.554 29.0452C34.4093 29.0478 34.2648 29.0452 34.1201 29.0452C34.0142 29.0452 34.0218 29.0365 34.0218 29.146C34.0218 29.6381 34.0218 30.1302 34.0218 30.6225C34.0218 30.6532 34.0322 30.6875 34.0021 30.7239C33.9759 30.694 33.9545 30.6675 33.9309 30.6436C33.4287 30.1318 32.9268 29.6201 32.4251 29.1083C32.4066 29.0865 32.3831 29.0693 32.3567 29.0581C32.3303 29.0469 32.3017 29.042 32.2731 29.0438C32.1531 29.0483 32.0332 29.0438 31.9132 29.0452C31.8006 29.0452 31.8065 29.0331 31.8065 29.1472V31.7218C31.8065 31.7404 31.8065 31.7587 31.8065 31.7782C31.8045 31.812 31.8175 31.8288 31.8538 31.8286C32.0199 31.8286 32.1861 31.8286 32.3522 31.8286C32.3866 31.8286 32.4043 31.817 32.4032 31.7813C32.4032 31.7565 32.4032 31.732 32.4032 31.7072C32.4032 31.2121 32.4032 30.7169 32.4032 30.2215C32.3989 30.1882 32.4013 30.1544 32.4102 30.1221C32.4418 30.1252 32.4536 30.1502 32.4699 30.1657C32.5806 30.2767 32.6904 30.3887 32.8008 30.5003C33.2198 30.9249 33.6388 31.3498 34.0579 31.7751C34.0737 31.7933 34.0935 31.8077 34.1158 31.817C34.138 31.8264 34.1622 31.8306 34.1863 31.8291C34.2989 31.8255 34.4141 31.8291 34.5279 31.8291C34.6177 31.8291 34.6177 31.8291 34.6185 31.7385V29.1629C34.6185 29.1444 34.6171 29.1258 34.6185 29.1066C34.623 29.0593 34.6016 29.0444 34.554 29.0452Z" fill="white"/>
<path d="M30.953 30.6317C30.7131 30.1265 30.4735 29.6214 30.2344 29.1162C30.2104 29.0652 30.1828 29.0424 30.1243 29.0446C29.9984 29.0491 29.8708 29.0497 29.7464 29.0446C29.6847 29.0421 29.6546 29.0624 29.6286 29.1187C29.225 29.9947 28.8202 30.8701 28.4141 31.7449C28.4031 31.7688 28.382 31.7911 28.3947 31.8294C28.5766 31.8294 28.7608 31.8294 28.9441 31.8294C28.9894 31.8294 29.0004 31.7987 29.0142 31.7691C29.1063 31.585 29.2003 31.403 29.2893 31.2161C29.2976 31.1936 29.3132 31.1746 29.3337 31.1622C29.3541 31.1498 29.3782 31.1446 29.402 31.1476C29.7371 31.1502 30.0722 31.1507 30.4073 31.1476C30.4715 31.1476 30.5053 31.1657 30.5331 31.2254C30.6193 31.4087 30.7131 31.5886 30.804 31.7697C30.819 31.7998 30.8291 31.8299 30.8742 31.8297C31.0831 31.8277 31.2921 31.8297 31.508 31.8297C31.5059 31.798 31.4963 31.7673 31.4799 31.7401C31.304 31.3701 31.1284 31.0006 30.953 30.6317ZM29.5554 30.6599C29.5625 30.5979 29.837 30.048 29.9215 29.9277L30.2896 30.6599H29.5554Z" fill="white"/>
</svg>
