<svg width="50" height="28" viewBox="0 0 50 28" fill="none" xmlns="http://www.w3.org/2000/svg">
<path d="M35.8298 27.4392C34.3894 27.4392 33.0884 27.2301 31.8803 26.8119C28.6975 25.7198 26.3975 22.9084 26.3046 19.9807C26.2814 19.1907 26.3975 18.4472 26.5137 17.7269C26.5834 17.2855 26.6531 16.844 26.6995 16.4258C26.746 15.7519 26.746 14.5437 26.0026 13.8931C25.1895 13.1961 23.8187 13.382 22.5874 13.6143L17.1279 14.6134C15.9663 14.8225 14.3865 15.1246 12.9925 14.4275C10.9946 13.4284 10.5067 10.9655 10.6693 9.15317C10.7623 8.29347 10.9481 7.457 11.1572 6.64377C11.3663 5.78407 11.5754 4.94761 11.6218 4.11115C11.6683 3.25145 11.5057 2.20586 10.832 1.81086C10.135 1.39263 9.11277 1.71793 8.18348 2.06646L1.09766 4.64555C0.679483 4.8082 0.214839 4.57585 0.052214 4.15762C-0.110411 3.73939 0.121919 3.27469 0.540099 3.11204L7.62592 0.532933C8.55521 0.207641 10.2511 -0.419707 11.6683 0.416757C12.7835 1.09058 13.3643 2.48469 13.2481 4.22732C13.1784 5.2032 12.9693 6.1326 12.737 7.01554C12.5511 7.80553 12.3653 8.54905 12.2956 9.31581C12.1562 10.7099 12.5511 12.3829 13.736 12.987C14.5723 13.4052 15.641 13.2658 16.8491 13.0334L22.3087 12.0343C23.4703 11.8252 25.6309 11.4302 27.0945 12.6849C28.047 13.5214 28.4884 14.8922 28.349 16.5884C28.3026 17.0764 28.2329 17.5643 28.1632 18.0057C28.047 18.6796 27.9541 19.3302 27.9541 19.9575C28.0238 22.2113 29.8591 24.4186 32.4379 25.3016C34.5288 26.0219 37.0146 26.0219 40.2672 25.2783C43.2409 24.6045 46.1217 23.5357 48.8166 22.1416C49.2115 21.9325 49.6994 22.0951 49.9085 22.4901C50.1176 22.8851 49.955 23.3731 49.56 23.5822C46.7257 25.046 43.7287 26.1613 40.6156 26.8583C38.85 27.2301 37.2702 27.4392 35.8298 27.4392Z" fill="#775BE4"/>
</svg>
