<svg width="22" height="8" viewBox="0 0 22 8" fill="none" xmlns="http://www.w3.org/2000/svg">
<path d="M2.33791 1.16913C2.33791 1.82383 1.82357 2.33823 1.16896 2.33823C0.51434 2.33823 0 1.82383 0 1.16913C0 0.514432 0.51434 2.7135e-05 1.16896 2.7135e-05C1.82357 2.7135e-05 2.33791 0.514432 2.33791 1.16913Z" fill="#5E1355"/>
<path d="M8.88455 1.1691C8.88455 1.8238 8.37021 2.3382 7.71559 2.3382C7.06098 2.3382 6.54664 1.8238 6.54664 1.1691C6.54664 0.514405 7.06098 0 7.71559 0C8.37021 0 8.88455 0.514405 8.88455 1.1691Z" fill="#5E1355"/>
<path d="M15.454 1.1691C15.454 1.8238 14.9397 2.3382 14.2851 2.3382C13.6304 2.3382 13.1161 1.8238 13.1161 1.1691C13.1161 0.514405 13.6304 0 14.2851 0C14.9397 0 15.454 0.514405 15.454 1.1691Z" fill="#5E1355"/>
<path d="M21.9999 1.1691C21.9999 1.8238 21.4856 2.3382 20.8309 2.3382C20.1763 2.3382 19.662 1.8238 19.662 1.1691C19.662 0.514405 20.1763 0 20.8309 0C21.4856 0 21.9999 0.514405 21.9999 1.1691Z" fill="#5E1355"/>
<path d="M2.33816 6.82755C2.33816 7.48225 1.82382 7.99665 1.1692 7.99665C0.514588 7.99665 0.000248091 7.48225 0.000248091 6.82755C0.000248091 6.17285 0.514588 5.65845 1.1692 5.65845C1.82382 5.65845 2.33816 6.19624 2.33816 6.82755Z" fill="#5E1355"/>
<path d="M8.88455 6.82755C8.88455 7.48225 8.37021 7.99665 7.71559 7.99665C7.06098 7.99665 6.54664 7.48225 6.54664 6.82755C6.54664 6.17285 7.06098 5.65845 7.71559 5.65845C8.37021 5.65845 8.88455 6.19624 8.88455 6.82755Z" fill="#5E1355"/>
<path d="M15.454 6.82755C15.454 7.48225 14.9397 7.99665 14.2851 7.99665C13.6304 7.99665 13.1161 7.48225 13.1161 6.82755C13.1161 6.17285 13.6304 5.65845 14.2851 5.65845C14.9397 5.65845 15.454 6.19624 15.454 6.82755Z" fill="#5E1355"/>
<path d="M21.9999 6.82755C21.9999 7.48225 21.4856 7.99665 20.8309 7.99665C20.1763 7.99665 19.662 7.48225 19.662 6.82755C19.662 6.17285 20.1763 5.65845 20.8309 5.65845C21.4856 5.65845 21.9999 6.19624 21.9999 6.82755Z" fill="#5E1355"/>
</svg>
