<svg width="4" height="6" viewBox="0 0 4 6" fill="none" xmlns="http://www.w3.org/2000/svg">
<path d="M1.6011 4.42454V3.71007C1.6011 3.52643 1.64414 3.36862 1.73022 3.23663C1.8163 3.0989 1.92247 2.97552 2.04872 2.86648C2.17497 2.75171 2.30122 2.63693 2.42747 2.52216C2.55946 2.40165 2.6685 2.26392 2.75458 2.10897C2.84066 1.95403 2.8837 1.77039 2.8837 1.55806C2.8837 1.40885 2.85214 1.26825 2.78901 1.13626C2.72588 1.00427 2.62259 0.895238 2.47912 0.809157C2.33565 0.723077 2.14054 0.680036 1.89377 0.680036C1.65849 0.680036 1.46911 0.723077 1.32564 0.809157C1.18791 0.889499 1.08175 0.992796 1.00714 1.11905C0.938278 1.2453 0.892369 1.37155 0.869414 1.4978C0.852198 1.61831 0.84359 1.71874 0.84359 1.79908C0.84359 1.85647 0.846459 1.91099 0.852198 1.96264C0.857936 2.01429 0.860806 2.04298 0.860806 2.04872H0.0258242C0.0200855 2.00855 0.0143468 1.96264 0.00860807 1.91099C0.00286936 1.8536 0 1.79048 0 1.72161C0 1.6011 0.0200855 1.46337 0.0602564 1.30842C0.100427 1.15348 0.166422 1.0014 0.258242 0.852197C0.350061 0.697253 0.473443 0.556654 0.628388 0.430403C0.783333 0.298413 0.97271 0.195116 1.19652 0.120513C1.42033 0.0401709 1.68144 0 1.97985 0C2.32991 0 2.61972 0.048779 2.84927 0.146337C3.08455 0.243895 3.27106 0.370146 3.40879 0.525091C3.54652 0.680036 3.64408 0.852198 3.70146 1.04157C3.76459 1.22521 3.79615 1.40311 3.79615 1.57527C3.79615 1.86795 3.74737 2.10897 3.64982 2.29835C3.558 2.48773 3.44322 2.64841 3.30549 2.7804C3.1735 2.91239 3.03577 3.03291 2.89231 3.14194C2.75458 3.24524 2.63693 3.35714 2.53938 3.47766C2.44756 3.59243 2.40165 3.73016 2.40165 3.89084V4.42454H1.6011ZM1.54084 5.99982V5.07875H2.4619V5.99982H1.54084Z" fill="#48565C"/>
</svg>
