<svg width="4" height="7" viewBox="0 0 4 7" fill="none" xmlns="http://www.w3.org/2000/svg">
<path fill-rule="evenodd" clip-rule="evenodd" d="M2.64919 0.155994C2.64919 0.069841 2.71903 0 2.80519 0H2.91654C3.00269 0 3.07253 0.0698409 3.07253 0.155994V0.661439C3.29341 0.677985 3.50754 0.719642 3.71195 0.783653C3.86611 0.831927 3.95194 0.996028 3.90367 1.15018C3.85539 1.30434 3.69129 1.39017 3.53714 1.3419C3.3225 1.27469 3.0938 1.23834 2.85602 1.23834C1.60193 1.23834 0.586769 2.25173 0.586769 3.49999C0.586769 4.74825 1.60193 5.76164 2.85602 5.76164C3.0938 5.76164 3.3225 5.72529 3.53714 5.65808C3.69129 5.60981 3.85539 5.69564 3.90367 5.8498C3.95194 6.00395 3.86611 6.16805 3.71195 6.21633C3.50754 6.28034 3.29341 6.32199 3.07253 6.33854V6.84386C3.07253 6.93002 3.00269 6.99986 2.91654 6.99986H2.80519C2.71903 6.99986 2.64919 6.93002 2.64919 6.84386V6.33926C1.17009 6.23359 0.00179182 5.00352 0.00179182 3.49999C0.00179182 1.99646 1.17009 0.76639 2.64919 0.66072V0.155994ZM2.85924 1.59509C1.80216 1.59509 0.945474 2.44768 0.945474 3.49909C0.945474 4.5505 1.80216 5.40309 2.85924 5.40309C3.05933 5.40309 3.2522 5.37255 3.43342 5.31592C3.44884 5.3111 3.46524 5.31969 3.47006 5.33511C3.47488 5.35053 3.46629 5.36693 3.45087 5.37175C3.26407 5.43013 3.06532 5.46159 2.85924 5.46159C1.77013 5.46159 0.886976 4.58309 0.886976 3.49909C0.886976 2.4151 1.77013 1.5366 2.85924 1.5366C3.06532 1.5366 3.26407 1.56805 3.45087 1.62643C3.46629 1.63125 3.47488 1.64765 3.47006 1.66307C3.46524 1.67849 3.44884 1.68708 3.43342 1.68227C3.2522 1.62563 3.05933 1.59509 2.85924 1.59509ZM2.84494 2.41665C2.97209 2.41665 3.07517 2.31357 3.07517 2.18641C3.07517 2.05925 2.97209 1.95617 2.84494 1.95617C2.71778 1.95617 2.6147 2.05925 2.6147 2.18641C2.6147 2.31357 2.71778 2.41665 2.84494 2.41665ZM2.14615 2.57329C2.14615 2.70044 2.04307 2.80352 1.91591 2.80352C1.78876 2.80352 1.68567 2.70044 1.68567 2.57329C1.68567 2.44613 1.78876 2.34305 1.91591 2.34305C2.04307 2.34305 2.14615 2.44613 2.14615 2.57329ZM2.84 2.85723C2.48488 2.85723 2.19701 3.1451 2.19701 3.50022C2.19701 3.85533 2.48488 4.1432 2.84 4.1432C2.90728 4.1432 2.97207 4.13288 3.03291 4.11378C3.05805 4.10588 3.08484 4.11986 3.09274 4.14501C3.10063 4.17015 3.08665 4.19694 3.06151 4.20483C2.99152 4.22682 2.9171 4.23865 2.84 4.23865C2.43217 4.23865 2.10156 3.90804 2.10156 3.50022C2.10156 3.09239 2.43217 2.76178 2.84 2.76178C2.9171 2.76178 2.99152 2.77362 3.06151 2.7956C3.08665 2.80349 3.10063 2.83028 3.09274 2.85543C3.08484 2.88057 3.05805 2.89455 3.03291 2.88665C2.97207 2.86755 2.90728 2.85723 2.84 2.85723ZM3.07517 4.81175C3.07517 4.9389 2.97209 5.04199 2.84494 5.04199C2.71778 5.04199 2.6147 4.9389 2.6147 4.81175C2.6147 4.68459 2.71778 4.58151 2.84494 4.58151C2.97209 4.58151 3.07517 4.68459 3.07517 4.81175ZM1.52774 3.72996C1.6549 3.72996 1.75798 3.62688 1.75798 3.49973C1.75798 3.37257 1.6549 3.26949 1.52774 3.26949C1.40058 3.26949 1.2975 3.37257 1.2975 3.49973C1.2975 3.62688 1.40058 3.72996 1.52774 3.72996ZM2.14615 4.42746C2.14615 4.55461 2.04307 4.6577 1.91591 4.6577C1.78876 4.6577 1.68567 4.55461 1.68567 4.42746C1.68567 4.3003 1.78876 4.19722 1.91591 4.19722C2.04307 4.19722 2.14615 4.3003 2.14615 4.42746Z" fill="white"/>
<path fill-rule="evenodd" clip-rule="evenodd" d="M2.64919 0.155994C2.64919 0.069841 2.71903 0 2.80519 0H2.91654C3.00269 0 3.07253 0.0698409 3.07253 0.155994V0.661439C3.29341 0.677985 3.50754 0.719642 3.71195 0.783653C3.86611 0.831927 3.95194 0.996028 3.90367 1.15018C3.85539 1.30434 3.69129 1.39017 3.53714 1.3419C3.3225 1.27469 3.0938 1.23834 2.85602 1.23834C1.60193 1.23834 0.586769 2.25173 0.586769 3.49999C0.586769 4.74825 1.60193 5.76164 2.85602 5.76164C3.0938 5.76164 3.3225 5.72529 3.53714 5.65808C3.69129 5.60981 3.85539 5.69564 3.90367 5.8498C3.95194 6.00395 3.86611 6.16805 3.71195 6.21633C3.50754 6.28034 3.29341 6.32199 3.07253 6.33854V6.84386C3.07253 6.93002 3.00269 6.99986 2.91654 6.99986H2.80519C2.71903 6.99986 2.64919 6.93002 2.64919 6.84386V6.33926C1.17009 6.23359 0.00179182 5.00352 0.00179182 3.49999C0.00179182 1.99646 1.17009 0.76639 2.64919 0.66072V0.155994ZM2.85924 1.59509C1.80216 1.59509 0.945474 2.44768 0.945474 3.49909C0.945474 4.5505 1.80216 5.40309 2.85924 5.40309C3.05933 5.40309 3.2522 5.37255 3.43342 5.31592C3.44884 5.3111 3.46524 5.31969 3.47006 5.33511C3.47488 5.35053 3.46629 5.36693 3.45087 5.37175C3.26407 5.43013 3.06532 5.46159 2.85924 5.46159C1.77013 5.46159 0.886976 4.58309 0.886976 3.49909C0.886976 2.4151 1.77013 1.5366 2.85924 1.5366C3.06532 1.5366 3.26407 1.56805 3.45087 1.62643C3.46629 1.63125 3.47488 1.64765 3.47006 1.66307C3.46524 1.67849 3.44884 1.68708 3.43342 1.68227C3.2522 1.62563 3.05933 1.59509 2.85924 1.59509ZM3.07517 2.18641C3.07517 2.31357 2.97209 2.41665 2.84494 2.41665C2.71778 2.41665 2.6147 2.31357 2.6147 2.18641C2.6147 2.05925 2.71778 1.95617 2.84494 1.95617C2.97209 1.95617 3.07517 2.05925 3.07517 2.18641ZM2.84 2.85723C2.48488 2.85723 2.19701 3.1451 2.19701 3.50022C2.19701 3.85533 2.48488 4.1432 2.84 4.1432C2.90728 4.1432 2.97207 4.13288 3.03291 4.11378C3.05805 4.10588 3.08484 4.11986 3.09274 4.14501C3.10063 4.17015 3.08665 4.19694 3.06151 4.20483C2.99152 4.22682 2.9171 4.23865 2.84 4.23865C2.43217 4.23865 2.10156 3.90804 2.10156 3.50022C2.10156 3.09239 2.43217 2.76178 2.84 2.76178C2.9171 2.76178 2.99152 2.77362 3.06151 2.7956C3.08665 2.80349 3.10063 2.83028 3.09274 2.85543C3.08484 2.88057 3.05805 2.89455 3.03291 2.88665C2.97207 2.86755 2.90728 2.85723 2.84 2.85723ZM2.84494 5.04199C2.97209 5.04199 3.07517 4.9389 3.07517 4.81175C3.07517 4.68459 2.97209 4.58151 2.84494 4.58151C2.71778 4.58151 2.6147 4.68459 2.6147 4.81175C2.6147 4.9389 2.71778 5.04199 2.84494 5.04199ZM1.75798 3.49973C1.75798 3.62688 1.6549 3.72996 1.52774 3.72996C1.40058 3.72996 1.2975 3.62688 1.2975 3.49973C1.2975 3.37257 1.40058 3.26949 1.52774 3.26949C1.6549 3.26949 1.75798 3.37257 1.75798 3.49973Z" fill="white"/>
<path fill-rule="evenodd" clip-rule="evenodd" d="M2.80519 0C2.71903 0 2.64919 0.069841 2.64919 0.155994V0.66072C1.17009 0.76639 0.00179182 1.99646 0.00179182 3.49999C0.00179182 5.00352 1.17009 6.23359 2.64919 6.33926V6.84386C2.64919 6.93002 2.71903 6.99986 2.80519 6.99986H2.91654C3.00269 6.99986 3.07253 6.93002 3.07253 6.84386V6.33854C3.29341 6.32199 3.50754 6.28034 3.71195 6.21633C3.86611 6.16805 3.95194 6.00395 3.90367 5.8498C3.85539 5.69564 3.69129 5.60981 3.53714 5.65808C3.3225 5.72529 3.0938 5.76164 2.85602 5.76164C1.60193 5.76164 0.586769 4.74825 0.586769 3.49999C0.586769 2.25173 1.60193 1.23834 2.85602 1.23834C3.0938 1.23834 3.3225 1.27469 3.53714 1.3419C3.69129 1.39017 3.85539 1.30434 3.90367 1.15018C3.95194 0.996028 3.86611 0.831927 3.71195 0.783653C3.50754 0.719642 3.29341 0.677985 3.07253 0.661439V0.155994C3.07253 0.0698409 3.00269 0 2.91654 0H2.80519ZM3.07517 2.18641C3.07517 2.31357 2.97209 2.41665 2.84494 2.41665C2.71778 2.41665 2.6147 2.31357 2.6147 2.18641C2.6147 2.05925 2.71778 1.95617 2.84494 1.95617C2.97209 1.95617 3.07517 2.05925 3.07517 2.18641ZM2.26064 3.50022C2.26064 3.18024 2.52002 2.92086 2.84 2.92086C2.90074 2.92086 2.9591 2.93017 3.01384 2.94736C3.07251 2.96579 3.13501 2.93316 3.15344 2.87449C3.17187 2.81582 3.13925 2.75332 3.08057 2.73489C3.00449 2.71099 2.92364 2.69815 2.84 2.69815C2.39703 2.69815 2.03793 3.05725 2.03793 3.50022C2.03793 3.94318 2.39703 4.30228 2.84 4.30228C2.92364 4.30228 3.00449 4.28944 3.08057 4.26554C3.13925 4.24711 3.17187 4.18461 3.15344 4.12594C3.13501 4.06727 3.07251 4.03464 3.01384 4.05307C2.9591 4.07026 2.90074 4.07957 2.84 4.07957C2.52002 4.07957 2.26064 3.82019 2.26064 3.50022ZM2.89984 3.82261C2.71399 3.82261 2.56334 3.6783 2.56334 3.50028C2.56334 3.32226 2.71399 3.17795 2.89984 3.17795C2.93501 3.17795 2.96892 3.18311 3.00079 3.1927V3.80785C2.96892 3.81744 2.93501 3.82261 2.89984 3.82261ZM2.84494 5.04199C2.97209 5.04199 3.07517 4.9389 3.07517 4.81175C3.07517 4.68459 2.97209 4.58151 2.84494 4.58151C2.71778 4.58151 2.6147 4.68459 2.6147 4.81175C2.6147 4.9389 2.71778 5.04199 2.84494 5.04199ZM1.75798 3.49973C1.75798 3.62688 1.6549 3.72996 1.52774 3.72996C1.40058 3.72996 1.2975 3.62688 1.2975 3.49973C1.2975 3.37257 1.40058 3.26949 1.52774 3.26949C1.6549 3.26949 1.75798 3.37257 1.75798 3.49973Z" fill="white"/>
</svg>
