<svg width="53" height="176" viewBox="0 0 53 176" fill="none" xmlns="http://www.w3.org/2000/svg">
<path d="M18.1184 0.446388C18.1184 0.446388 31.8938 7.5441 33.2271 18.2499C34.5604 28.9556 21.6136 28.5096 22.9469 39.2154C24.2802 49.9211 36.7222 46.3131 38.0556 57.0188C39.3889 67.7246 26.442 67.2786 27.7754 77.9843C29.1087 88.6901 41.5507 85.082 42.884 95.7878C44.2174 106.494 31.2705 106.048 32.6038 116.753C33.9372 127.459 46.3791 123.851 47.7125 134.557C49.0458 145.263 36.0989 144.817 37.4323 155.522C38.7656 166.228 52.5409 173.326 52.5409 173.326" stroke="#1F2860"/>
<path d="M11.7709 1.23664C11.7709 1.23664 25.5462 8.33435 26.8796 19.0401C28.2129 29.7459 15.266 29.2999 16.5994 40.0056C17.9327 50.7114 30.3747 47.1033 31.708 57.8091C33.0414 68.5148 20.0945 68.0688 21.4278 78.7746C22.7612 89.4803 35.2031 85.8723 36.5365 96.578C37.8698 107.284 24.9229 106.838 26.2563 117.544C27.5896 128.249 40.0316 124.641 41.3649 135.347C42.6983 146.053 29.7514 145.607 31.0847 156.313C32.4181 167.018 46.1934 174.116 46.1934 174.116" stroke="#1F2860"/>
<path d="M5.42435 2.0269C5.42435 2.0269 19.1997 9.12461 20.533 19.8304C21.8663 30.5361 8.91947 30.0901 10.2528 40.7959C11.5862 51.5016 24.0281 47.8936 25.3615 58.5993C26.6948 69.3051 13.7479 68.8591 15.0813 79.5648C16.4146 90.2706 28.8566 86.6625 30.1899 97.3683C31.5233 108.074 18.5764 107.628 19.9097 118.334C21.2431 129.04 33.685 125.432 35.0184 136.137C36.3517 146.843 23.4048 146.397 24.7382 157.103C26.0715 167.809 39.8468 174.906 39.8468 174.906" stroke="#1F2860"/>
<path d="M0.230552 2.6744C0.230552 2.6744 14.0059 9.77211 15.3392 20.4779C16.6725 31.1836 3.72567 30.7376 5.05901 41.4434C6.39235 52.1491 18.8343 48.5411 20.1677 59.2468C21.501 69.9526 8.55413 69.5066 9.88747 80.2123C11.2208 90.9181 23.6628 87.3101 24.9961 98.0158C26.3295 108.722 13.3826 108.276 14.7159 118.981C16.0493 129.687 28.4912 126.079 29.8246 136.785C31.1579 147.491 18.211 147.045 19.5444 157.75C20.8777 168.456 34.653 175.554 34.653 175.554" stroke="#1F2860"/>
</svg>
