<svg width="7" height="12" viewBox="0 0 7 12" fill="none" xmlns="http://www.w3.org/2000/svg">
<path fill-rule="evenodd" clip-rule="evenodd" d="M4.54191 0.267427C4.54191 0.119731 4.66164 0 4.80933 0H5.00023C5.14792 0 5.26765 0.119731 5.26765 0.267427V1.13405C5.64556 1.16253 6.01194 1.23388 6.36171 1.34341C6.62598 1.42617 6.77313 1.70749 6.69037 1.97177C6.60762 2.23604 6.32629 2.38319 6.06201 2.30043C5.69405 2.18521 5.30198 2.12289 4.89435 2.12289C2.74441 2.12289 1.00407 3.8602 1.00407 6.00014C1.00407 8.14008 2.74441 9.87739 4.89435 9.87739C5.30198 9.87739 5.69405 9.81507 6.06202 9.69985C6.32629 9.61709 6.60762 9.76424 6.69037 10.0285C6.77313 10.2928 6.62598 10.5741 6.36171 10.6569C6.01194 10.7664 5.64556 10.8378 5.26765 10.8662V11.7325C5.26765 11.8802 5.14792 12 5.00023 12H4.80933C4.66164 12 4.54191 11.8802 4.54191 11.7325V10.8678C2.00521 10.6876 0.00122375 8.57843 0.00122375 6.00014C0.00122375 3.42185 2.00521 1.31263 4.54191 1.13251V0.267427ZM4.8989 2.73469C3.0867 2.73469 1.61805 4.19631 1.61805 5.99879C1.61805 7.80127 3.0867 9.26289 4.8989 9.26289C5.24193 9.26289 5.57257 9.21053 5.88325 9.11345C5.90968 9.10519 5.9378 9.11992 5.94606 9.14635C5.95432 9.17278 5.93959 9.20091 5.91316 9.20917C5.59291 9.30925 5.25219 9.36318 4.8989 9.36318C3.03179 9.36318 1.51777 7.85713 1.51777 5.99879C1.51777 4.14045 3.03179 2.6344 4.8989 2.6344C5.25219 2.6344 5.59291 2.68833 5.91316 2.78841C5.93959 2.79667 5.95432 2.82479 5.94606 2.85123C5.9378 2.87766 5.90968 2.89239 5.88325 2.88413C5.57257 2.78704 5.24193 2.73469 4.8989 2.73469ZM4.872 4.14367C5.08999 4.14367 5.2667 3.96695 5.2667 3.74897C5.2667 3.53098 5.08999 3.35426 4.872 3.35426C4.65401 3.35426 4.47729 3.53098 4.47729 3.74897C4.47729 3.96695 4.65401 4.14367 4.872 4.14367ZM3.67754 4.41061C3.67754 4.62859 3.50083 4.80531 3.28284 4.80531C3.06485 4.80531 2.88813 4.62859 2.88813 4.41061C2.88813 4.19262 3.06485 4.0159 3.28284 4.0159C3.50083 4.0159 3.67754 4.19262 3.67754 4.41061ZM4.87381 4.89819C4.26503 4.89819 3.77151 5.3917 3.77151 6.00049C3.77151 6.60927 4.26503 7.10279 4.87381 7.10279C4.98917 7.10279 5.10023 7.0851 5.20453 7.05234C5.24764 7.0388 5.29356 7.06277 5.3071 7.10588C5.32064 7.14899 5.29667 7.19491 5.25356 7.20845C5.13358 7.24613 5.00599 7.26641 4.87381 7.26641C4.17466 7.26641 3.60789 6.69964 3.60789 6.00049C3.60789 5.30134 4.17466 4.73456 4.87381 4.73456C5.00599 4.73456 5.13358 4.75485 5.25356 4.79253C5.29667 4.80607 5.32064 4.85199 5.3071 4.8951C5.29356 4.93821 5.24764 4.96217 5.20453 4.94864C5.10023 4.91588 4.98917 4.89819 4.87381 4.89819ZM5.2667 8.24925C5.2667 8.46724 5.08999 8.64396 4.872 8.64396C4.65401 8.64396 4.47729 8.46724 4.47729 8.24925C4.47729 8.03127 4.65401 7.85455 4.872 7.85455C5.08999 7.85455 5.2667 8.03127 5.2667 8.24925ZM2.62447 6.39447C2.84246 6.39447 3.01918 6.21775 3.01918 5.99977C3.01918 5.78178 2.84246 5.60506 2.62447 5.60506C2.40648 5.60506 2.22977 5.78178 2.22977 5.99977C2.22977 6.21775 2.40648 6.39447 2.62447 6.39447ZM3.67754 7.59002C3.67754 7.808 3.50083 7.98472 3.28284 7.98472C3.06485 7.98472 2.88813 7.808 2.88813 7.59002C2.88813 7.37203 3.06485 7.19531 3.28284 7.19531C3.50083 7.19531 3.67754 7.37203 3.67754 7.59002Z" fill="#03A9F4"/>
<path fill-rule="evenodd" clip-rule="evenodd" d="M4.54191 0.267427C4.54191 0.119731 4.66164 0 4.80933 0H5.00023C5.14792 0 5.26765 0.119731 5.26765 0.267427V1.13405C5.64556 1.16253 6.01194 1.23388 6.36171 1.34341C6.62598 1.42617 6.77313 1.70749 6.69037 1.97177C6.60762 2.23604 6.32629 2.38319 6.06201 2.30043C5.69405 2.18521 5.30198 2.12289 4.89435 2.12289C2.74441 2.12289 1.00407 3.8602 1.00407 6.00014C1.00407 8.14008 2.74441 9.87739 4.89435 9.87739C5.30198 9.87739 5.69405 9.81507 6.06202 9.69985C6.32629 9.61709 6.60762 9.76424 6.69037 10.0285C6.77313 10.2928 6.62598 10.5741 6.36171 10.6569C6.01194 10.7664 5.64556 10.8378 5.26765 10.8662V11.7325C5.26765 11.8802 5.14792 12 5.00023 12H4.80933C4.66164 12 4.54191 11.8802 4.54191 11.7325V10.8678C2.00521 10.6876 0.00122375 8.57843 0.00122375 6.00014C0.00122375 3.42185 2.00521 1.31263 4.54191 1.13251V0.267427ZM4.8989 2.73469C3.0867 2.73469 1.61805 4.19631 1.61805 5.99879C1.61805 7.80127 3.0867 9.26289 4.8989 9.26289C5.24193 9.26289 5.57257 9.21053 5.88325 9.11345C5.90968 9.10519 5.9378 9.11992 5.94606 9.14635C5.95432 9.17278 5.93959 9.20091 5.91316 9.20917C5.59291 9.30925 5.25219 9.36318 4.8989 9.36318C3.03179 9.36318 1.51777 7.85713 1.51777 5.99879C1.51777 4.14045 3.03179 2.6344 4.8989 2.6344C5.25219 2.6344 5.59291 2.68833 5.91316 2.78841C5.93959 2.79667 5.95432 2.82479 5.94606 2.85123C5.9378 2.87766 5.90968 2.89239 5.88325 2.88413C5.57257 2.78704 5.24193 2.73469 4.8989 2.73469ZM5.2667 3.74897C5.2667 3.96695 5.08999 4.14367 4.872 4.14367C4.65401 4.14367 4.47729 3.96695 4.47729 3.74897C4.47729 3.53098 4.65401 3.35426 4.872 3.35426C5.08999 3.35426 5.2667 3.53098 5.2667 3.74897ZM4.87381 4.89819C4.26503 4.89819 3.77151 5.3917 3.77151 6.00049C3.77151 6.60927 4.26503 7.10279 4.87381 7.10279C4.98917 7.10279 5.10023 7.0851 5.20453 7.05234C5.24764 7.0388 5.29356 7.06277 5.3071 7.10588C5.32064 7.14899 5.29667 7.19491 5.25356 7.20845C5.13358 7.24613 5.00599 7.26641 4.87381 7.26641C4.17466 7.26641 3.60789 6.69964 3.60789 6.00049C3.60789 5.30134 4.17466 4.73456 4.87381 4.73456C5.00599 4.73456 5.13358 4.75485 5.25356 4.79253C5.29667 4.80607 5.32064 4.85199 5.3071 4.8951C5.29356 4.93821 5.24764 4.96217 5.20453 4.94864C5.10023 4.91588 4.98917 4.89819 4.87381 4.89819ZM4.872 8.64396C5.08999 8.64396 5.2667 8.46724 5.2667 8.24925C5.2667 8.03127 5.08999 7.85455 4.872 7.85455C4.65401 7.85455 4.47729 8.03127 4.47729 8.24925C4.47729 8.46724 4.65401 8.64396 4.872 8.64396ZM3.01918 5.99977C3.01918 6.21775 2.84246 6.39447 2.62447 6.39447C2.40648 6.39447 2.22977 6.21775 2.22977 5.99977C2.22977 5.78178 2.40648 5.60506 2.62447 5.60506C2.84246 5.60506 3.01918 5.78178 3.01918 5.99977Z" fill="#F5490F"/>
<path fill-rule="evenodd" clip-rule="evenodd" d="M4.80933 0C4.66164 0 4.54191 0.119731 4.54191 0.267427V1.13251C2.00521 1.31263 0.00122375 3.42185 0.00122375 6.00014C0.00122375 8.57843 2.00521 10.6876 4.54191 10.8678V11.7325C4.54191 11.8802 4.66164 12 4.80933 12H5.00023C5.14792 12 5.26765 11.8802 5.26765 11.7325V10.8662C5.64556 10.8378 6.01194 10.7664 6.36171 10.6569C6.62598 10.5741 6.77313 10.2928 6.69037 10.0285C6.60762 9.76424 6.32629 9.61709 6.06202 9.69985C5.69405 9.81507 5.30198 9.87739 4.89435 9.87739C2.74441 9.87739 1.00407 8.14008 1.00407 6.00014C1.00407 3.8602 2.74441 2.12289 4.89435 2.12289C5.30198 2.12289 5.69405 2.18521 6.06201 2.30043C6.32629 2.38319 6.60762 2.23604 6.69037 1.97177C6.77313 1.70749 6.62598 1.42617 6.36171 1.34341C6.01194 1.23388 5.64556 1.16253 5.26765 1.13405V0.267427C5.26765 0.119731 5.14792 0 5.00023 0H4.80933ZM5.2667 3.74897C5.2667 3.96695 5.08999 4.14367 4.872 4.14367C4.65401 4.14367 4.47729 3.96695 4.47729 3.74897C4.47729 3.53098 4.65401 3.35426 4.872 3.35426C5.08999 3.35426 5.2667 3.53098 5.2667 3.74897ZM3.88059 6.00049C3.88059 5.45195 4.32527 5.00727 4.87381 5.00727C4.97795 5.00727 5.078 5.02323 5.17185 5.05271C5.27243 5.0843 5.37958 5.02837 5.41117 4.92778C5.44276 4.8272 5.38683 4.72005 5.28625 4.68846C5.15581 4.64749 5.0172 4.62548 4.87381 4.62548C4.11442 4.62548 3.49881 5.24109 3.49881 6.00049C3.49881 6.75988 4.11442 7.3755 4.87381 7.3755C5.0172 7.3755 5.15581 7.35348 5.28625 7.31251C5.38683 7.28092 5.44276 7.17378 5.41117 7.07319C5.37958 6.97261 5.27243 6.91668 5.17185 6.94827C5.078 6.97775 4.97795 6.99371 4.87381 6.99371C4.32527 6.99371 3.88059 6.54903 3.88059 6.00049ZM4.98262 6.55386C4.66402 6.55386 4.40575 6.30646 4.40575 6.00127C4.40575 5.69609 4.66402 5.44868 4.98262 5.44868C5.04292 5.44868 5.10105 5.45755 5.15569 5.47398V6.52856C5.10105 6.545 5.04292 6.55386 4.98262 6.55386ZM4.872 8.64396C5.08999 8.64396 5.2667 8.46724 5.2667 8.24925C5.2667 8.03127 5.08999 7.85455 4.872 7.85455C4.65401 7.85455 4.47729 8.03127 4.47729 8.24925C4.47729 8.46724 4.65401 8.64396 4.872 8.64396ZM3.01918 5.99977C3.01918 6.21775 2.84246 6.39447 2.62447 6.39447C2.40648 6.39447 2.22977 6.21775 2.22977 5.99977C2.22977 5.78178 2.40648 5.60506 2.62447 5.60506C2.84246 5.60506 3.01918 5.78178 3.01918 5.99977Z" fill="#1B1C1C"/>
</svg>
