<svg width="12" height="9" viewBox="0 0 12 9" fill="none" xmlns="http://www.w3.org/2000/svg">
<path d="M12 1.5C12 1.10218 11.842 0.720644 11.5607 0.43934C11.2794 0.158035 10.8978 0 10.5 0H1.5C1.10218 0 0.720645 0.158035 0.439341 0.43934C0.158035 0.720644 0 1.10218 0 1.5V2.25H12V1.5ZM12 3.75V7.5C12 7.89782 11.842 8.27936 11.5607 8.56066C11.2794 8.84196 10.8978 9 10.5 9H1.5C1.10218 9 0.720645 8.84196 0.439341 8.56066C0.158035 8.27936 0 7.89782 0 7.5V3.75H12ZM9.75 5.25H9C8.80109 5.25 8.61032 5.32902 8.46967 5.46967C8.32902 5.61032 8.25 5.80109 8.25 6V6.75C8.25 6.94891 8.32902 7.13968 8.46967 7.28033C8.61032 7.42098 8.80109 7.5 9 7.5H9.75C9.94891 7.5 10.1397 7.42098 10.2803 7.28033C10.421 7.13968 10.5 6.94891 10.5 6.75V6C10.5 5.80109 10.421 5.61032 10.2803 5.46967C10.1397 5.32902 9.94891 5.25 9.75 5.25Z" fill="#9A9EA7"/>
</svg>
