<svg width="51" height="96" viewBox="0 0 51 96" fill="none" xmlns="http://www.w3.org/2000/svg">
<path d="M40.8 5.95818C42.1526 5.95818 43.4498 6.58591 44.4063 7.70329C45.3627 8.82066 45.9 10.3361 45.9 11.9164V83.4145C45.9 84.9947 45.3627 86.5102 44.4063 87.6275C43.4498 88.7449 42.1526 89.3727 40.8 89.3727H10.2C8.8474 89.3727 7.5502 88.7449 6.59376 87.6275C5.63733 86.5102 5.1 84.9947 5.1 83.4145V11.9164C5.1 10.3361 5.63733 8.82066 6.59376 7.70329C7.5502 6.58591 8.8474 5.95818 10.2 5.95818H40.8ZM10.2 0C7.4948 0 4.90039 1.25547 2.98751 3.49022C1.07464 5.72497 0 8.75594 0 11.9164V83.4145C0 86.5749 1.07464 89.6059 2.98751 91.8406C4.90039 94.0754 7.4948 95.3308 10.2 95.3308H40.8C43.5052 95.3308 46.0997 94.0754 48.0125 91.8406C49.9254 89.6059 51 86.5749 51 83.4145V11.9164C51 8.75594 49.9254 5.72497 48.0125 3.49022C46.0997 1.25547 43.5052 0 40.8 0L10.2 0Z" fill="#2C3032"/>
<path d="M25.5004 85.9155C26.4368 85.9155 27.3349 85.5435 27.9971 84.8814C28.6592 84.2192 29.0312 83.3212 29.0312 82.3847C29.0312 81.4483 28.6592 80.5503 27.9971 79.8881C27.3349 79.226 26.4368 78.854 25.5004 78.854C24.564 78.854 23.6659 79.226 23.0038 79.8881C22.3416 80.5503 21.9697 81.4483 21.9697 82.3847C21.9697 83.3212 22.3416 84.2192 23.0038 84.8814C23.6659 85.5435 24.564 85.9155 25.5004 85.9155Z" fill="#2C3032"/>
</svg>
