<svg width="308" height="303" viewBox="0 0 308 303" fill="none" xmlns="http://www.w3.org/2000/svg">
<path d="M200.049 245.86H102.735C97.3495 245.86 92.9804 241.49 92.9804 236.105V34.8211C92.9804 29.4352 97.3495 25.0656 102.735 25.0656H200.049C205.434 25.0656 209.803 29.4352 209.803 34.8211V236.105C209.803 241.49 205.434 245.86 200.049 245.86Z" fill="#9BC2F7"/>
<path d="M200.049 246.749H102.735C96.867 246.749 92.0914 241.973 92.0914 236.105V34.821C92.0914 28.9525 96.867 24.1763 102.735 24.1763H200.049C205.917 24.1763 210.692 28.9525 210.692 34.821V236.105C210.692 241.973 205.917 246.749 200.049 246.749ZM102.735 25.9547C97.8576 25.9547 93.8696 29.9179 93.8696 34.821V236.105C93.8696 240.982 97.8322 244.971 102.735 244.971H200.049C204.926 244.971 208.914 241.008 208.914 236.105V34.821C208.914 29.9433 204.952 25.9547 200.049 25.9547H102.735Z" fill="#473789"/>
<mask id="mask0_71_2476" style="mask-type:alpha" maskUnits="userSpaceOnUse" x="101" y="50" width="101" height="172">
<path d="M200.582 221.624H102.201C101.642 221.624 101.185 221.166 101.185 220.608V51.69C101.185 51.1311 101.642 50.6738 102.201 50.6738H200.582C201.141 50.6738 201.598 51.1311 201.598 51.69V220.608C201.598 221.166 201.141 221.624 200.582 221.624Z" fill="white"/>
</mask>
<g mask="url(#mask0_71_2476)">
<path d="M197.491 229.219H105.065C100.925 229.219 97.5654 225.86 97.5654 221.72V46.7285C97.5654 42.5887 100.925 39.2296 105.065 39.2296H197.491C201.631 39.2296 204.99 42.5887 204.99 46.7285V221.73C204.99 225.87 201.631 229.219 197.491 229.219Z" fill="white"/>
</g>
<path d="M200.582 222.437H102.201C101.185 222.437 100.372 221.624 100.372 220.608V51.69C100.372 50.6738 101.185 49.8608 102.201 49.8608H200.582C201.598 49.8608 202.411 50.6738 202.411 51.69V220.608C202.411 221.624 201.598 222.437 200.582 222.437ZM102.201 51.4867C102.1 51.4867 101.998 51.5884 101.998 51.69V220.608C101.998 220.709 102.1 220.811 102.201 220.811H200.582C200.684 220.811 200.786 220.709 200.786 220.608V51.69C200.786 51.5884 200.684 51.4867 200.582 51.4867H102.201Z" fill="#473789"/>
<path d="M159.939 238.213H142.869C140.126 238.213 137.891 235.978 137.891 233.234C137.891 230.49 140.126 228.254 142.869 228.254H159.939C162.683 228.254 164.918 230.49 164.918 233.234C164.918 235.952 162.657 238.213 159.939 238.213Z" fill="white"/>
<path d="M121.811 40.7912C119.576 40.7912 117.722 38.9621 117.722 36.701C117.722 34.4654 119.551 32.6108 121.811 32.6108C124.047 32.6108 125.901 34.44 125.901 36.701C125.876 38.9621 124.047 40.7912 121.811 40.7912Z" fill="white"/>
<path d="M171.345 39.2669C169.948 39.2669 168.805 38.1237 168.805 36.7265C168.805 35.3292 169.948 34.186 171.345 34.186C172.742 34.186 173.885 35.3292 173.885 36.7265C173.885 38.1237 172.742 39.2669 171.345 39.2669Z" fill="white"/>
<path d="M161.083 38.6318H141.676C141.193 38.6318 140.787 38.2253 140.787 37.7426V35.6848C140.787 35.2021 141.193 34.7956 141.676 34.7956H161.083C161.565 34.7956 161.972 35.2021 161.972 35.6848V37.7426C161.972 38.2507 161.591 38.6318 161.083 38.6318Z" fill="white"/>
<path d="M74.5049 18.1883C73.9945 18.1883 73.5724 17.8744 73.4154 17.3839L71.7763 12.1255C71.7272 11.9784 71.6192 11.8705 71.472 11.8214L66.2111 10.1831C65.7203 10.0359 65.4062 9.60429 65.4062 9.09415C65.4062 8.58402 65.7203 8.16217 66.2111 8.0052L71.472 6.36689C71.6192 6.31783 71.7272 6.20992 71.7763 6.06277L73.4154 0.804443C73.5626 0.313928 73.9945 0 74.5049 0C75.0153 0 75.4373 0.313928 75.5944 0.804443L77.2335 6.06277C77.2826 6.20992 77.3905 6.31783 77.5378 6.36689L82.7987 8.0052C83.2895 8.15236 83.6035 8.58402 83.6035 9.09415C83.6035 9.60429 83.2895 10.0261 82.7987 10.1831L77.5378 11.8214C77.3905 11.8705 77.2826 11.9784 77.2335 12.1255L75.5944 17.3839C75.4471 17.8744 75.0153 18.1883 74.5049 18.1883ZM74.5049 0.67691C74.338 0.67691 74.1417 0.765202 74.0632 1.00065L72.424 6.25897C72.3161 6.61214 72.0314 6.89664 71.6781 7.00456L66.4172 8.64287C66.1816 8.72136 66.0933 8.91756 66.0933 9.08434C66.0933 9.25111 66.1816 9.44732 66.4172 9.5258L71.6781 11.1641C72.0314 11.272 72.3161 11.5565 72.424 11.9097L74.0632 17.168C74.1417 17.4035 74.338 17.4918 74.5049 17.4918C74.6717 17.4918 74.868 17.4035 74.9466 17.168L76.5857 11.9097C76.6937 11.5565 76.9783 11.272 77.3316 11.1641L82.5926 9.5258C82.8281 9.44732 82.9165 9.25111 82.9165 9.08434C82.9165 8.91756 82.8281 8.72136 82.5926 8.64287L77.3316 7.00456C76.9783 6.89664 76.6937 6.61214 76.5857 6.25897L74.9466 1.00065C74.8779 0.765202 74.6717 0.67691 74.5049 0.67691Z" fill="#775BE4"/>
<path d="M34.135 80.4538C33.6246 80.4538 33.2026 80.1398 33.0455 79.6493L31.4064 74.391C31.3573 74.2438 31.2493 74.1359 31.1021 74.0869L25.8412 72.4486C25.3504 72.3014 25.0363 71.8698 25.0363 71.3596C25.0363 70.8495 25.3504 70.4276 25.8412 70.2707L31.1021 68.6324C31.2493 68.5833 31.3573 68.4754 31.4064 68.3282L33.0455 63.0699C33.1927 62.5794 33.6246 62.2655 34.135 62.2655C34.6454 62.2655 35.0674 62.5794 35.2245 63.0699L36.8636 68.3282C36.9127 68.4754 37.0207 68.5833 37.1679 68.6324L42.4288 70.2707C42.9196 70.4178 43.2337 70.8495 43.2337 71.3596C43.2337 71.8698 42.9196 72.2916 42.4288 72.4486L37.1679 74.0869C37.0207 74.1359 36.9127 74.2438 36.8636 74.391L35.2245 79.6493C35.0773 80.1398 34.6454 80.4538 34.135 80.4538ZM34.135 62.9424C33.9681 62.9424 33.7718 63.0307 33.6933 63.2661L32.0542 68.5244C31.9462 68.8776 31.6616 69.1621 31.3082 69.27L26.0473 70.9083C25.8117 70.9868 25.7234 71.183 25.7234 71.3498C25.7234 71.5166 25.8117 71.7128 26.0473 71.7913L31.3082 73.4296C31.6616 73.5375 31.9462 73.822 32.0542 74.1752L33.6933 79.4335C33.7718 79.6689 33.9681 79.7572 34.135 79.7572C34.3019 79.7572 34.4982 79.6689 34.5767 79.4335L36.2158 74.1752C36.3238 73.822 36.6084 73.5375 36.9618 73.4296L42.2227 71.7913C42.4583 71.7128 42.5466 71.5166 42.5466 71.3498C42.5466 71.183 42.4583 70.9868 42.2227 70.9083L36.9716 69.2798C36.6182 69.1719 36.3336 68.8874 36.2256 68.5342L34.5767 63.2661C34.4982 63.0307 34.3019 62.9424 34.135 62.9424Z" fill="#775BE4"/>
<path d="M292.187 134.052C291.676 134.052 291.254 133.738 291.097 133.248L289.458 127.989C289.409 127.842 289.301 127.734 289.154 127.685L283.893 126.047C283.402 125.9 283.088 125.468 283.088 124.958C283.088 124.448 283.402 124.026 283.893 123.869L289.154 122.231C289.301 122.182 289.409 122.074 289.458 121.927L291.097 116.668C291.245 116.178 291.676 115.864 292.187 115.864C292.697 115.864 293.119 116.178 293.276 116.668L294.915 121.927C294.964 122.074 295.072 122.182 295.22 122.231L300.481 123.869C300.971 124.016 301.285 124.448 301.285 124.958C301.285 125.468 300.971 125.89 300.481 126.047L295.22 127.685C295.072 127.734 294.964 127.842 294.915 127.989L293.276 133.248C293.119 133.738 292.697 134.052 292.187 134.052ZM292.187 116.551C292.02 116.551 291.824 116.639 291.745 116.874L290.106 122.133C289.998 122.486 289.713 122.77 289.36 122.878L284.099 124.517C283.863 124.595 283.775 124.791 283.775 124.958C283.775 125.125 283.863 125.321 284.099 125.4L289.36 127.038C289.713 127.146 289.998 127.43 290.106 127.783L291.745 133.042C291.824 133.277 292.02 133.365 292.187 133.365C292.354 133.365 292.55 133.277 292.628 133.042L294.268 127.783C294.376 127.43 294.66 127.146 295.014 127.038L300.274 125.4C300.51 125.321 300.598 125.125 300.598 124.958C300.598 124.791 300.51 124.595 300.274 124.517L295.014 122.878C294.66 122.77 294.376 122.486 294.268 122.133L292.628 116.874C292.55 116.629 292.344 116.551 292.187 116.551Z" fill="#775BE4"/>
<path d="M243.74 248.559C243.23 248.559 242.807 248.245 242.65 247.755L241.011 242.496C240.962 242.349 240.854 242.241 240.707 242.192L235.446 240.554C234.955 240.407 234.641 239.975 234.641 239.465C234.641 238.955 234.955 238.533 235.446 238.376L240.707 236.738C240.854 236.689 240.962 236.581 241.011 236.434L242.65 231.175C242.798 230.685 243.23 230.371 243.74 230.371C244.25 230.371 244.672 230.685 244.829 231.175L246.469 236.434C246.518 236.581 246.626 236.689 246.773 236.738L252.034 238.376C252.525 238.523 252.839 238.955 252.839 239.465C252.839 239.975 252.525 240.397 252.034 240.554L246.773 242.192C246.626 242.241 246.518 242.349 246.469 242.496L244.829 247.755C244.682 248.245 244.25 248.559 243.74 248.559ZM243.74 231.048C243.573 231.048 243.377 231.136 243.298 231.372L241.659 236.63C241.551 236.983 241.267 237.268 240.913 237.375L235.652 239.014C235.417 239.092 235.328 239.288 235.328 239.455C235.328 239.622 235.417 239.818 235.652 239.897L240.913 241.535C241.267 241.643 241.551 241.927 241.659 242.281L243.298 247.539C243.377 247.774 243.573 247.863 243.74 247.863C243.907 247.863 244.103 247.774 244.182 247.539L245.821 242.281C245.929 241.927 246.213 241.643 246.567 241.535L251.828 239.897C252.063 239.818 252.152 239.622 252.152 239.455C252.152 239.288 252.063 239.092 251.828 239.014L246.567 237.375C246.213 237.268 245.929 236.983 245.821 236.63L244.182 231.372C244.103 231.136 243.907 231.048 243.74 231.048Z" fill="#775BE4"/>
<path d="M16.0478 280.148C15.1448 280.148 14.3989 279.598 14.124 278.735L11.2286 269.455C11.15 269.2 10.9537 269.003 10.6985 268.925L1.41338 266.031C0.559461 265.766 0 265.011 0 264.108C0 263.205 0.549646 262.46 1.41338 262.185L10.6985 259.291C10.9537 259.213 11.15 259.016 11.2286 258.761L14.124 249.481C14.389 248.627 15.1448 248.068 16.0478 248.068C16.9508 248.068 17.6968 248.618 17.9716 249.481L20.8671 258.761C20.9456 259.016 21.1419 259.213 21.3971 259.291L30.6822 262.185C31.5362 262.45 32.0956 263.205 32.0956 264.108C32.0956 265.011 31.546 265.756 30.6822 266.031L21.3971 268.925C21.1419 269.003 20.9456 269.2 20.8671 269.455L17.9716 278.735C17.6968 279.598 16.9508 280.148 16.0478 280.148ZM16.0478 249.275C15.7632 249.275 15.4098 249.422 15.2724 249.844L12.3769 259.124C12.1806 259.752 11.6899 260.253 11.0519 260.449L1.76673 263.343C1.34468 263.47 1.19745 263.823 1.19745 264.118C1.19745 264.402 1.34468 264.755 1.76673 264.893L11.0519 267.787C11.6801 267.983 12.1806 268.474 12.3769 269.111L15.2724 278.392C15.4 278.814 15.7534 278.961 16.0478 278.961C16.3423 278.961 16.6858 278.814 16.8232 278.392L19.7187 269.111C19.915 268.483 20.4057 267.983 21.0437 267.787L30.3289 264.893C30.7509 264.765 30.8982 264.412 30.8982 264.118C30.8982 263.833 30.7509 263.48 30.3289 263.343L21.0437 260.449C20.4156 260.253 19.915 259.762 19.7187 259.124L16.8232 249.844C16.6858 249.422 16.3325 249.275 16.0478 249.275Z" fill="#775BE4"/>
<path d="M298.911 281.382H290.343C285.337 281.382 281.263 277.311 281.263 272.307V264.969C281.263 263.095 282.785 261.575 284.66 261.575H286.004V256.317C286.004 251.559 289.871 247.693 294.632 247.693C299.392 247.693 303.259 251.559 303.259 256.317V261.575H304.604C306.479 261.575 308 263.095 308 264.969V272.298C307.99 277.311 303.917 281.382 298.911 281.382ZM284.65 262.271C283.158 262.271 281.951 263.488 281.951 264.969V272.298C281.951 276.918 285.71 280.685 290.343 280.685H298.911C303.534 280.685 307.303 276.928 307.303 272.298V264.969C307.303 263.478 306.096 262.271 304.604 262.271H302.916C302.719 262.271 302.572 262.114 302.572 261.928V256.326C302.572 251.951 299.009 248.39 294.632 248.39C290.254 248.39 286.691 251.951 286.691 256.326V261.928C286.691 262.124 286.534 262.271 286.348 262.271H284.65ZM294.632 274.338C293.974 274.338 293.434 273.799 293.434 273.141V271.238C292.845 270.885 292.443 270.277 292.355 269.59C292.345 269.492 292.335 269.384 292.335 269.276C292.335 268.619 292.62 267.981 293.12 267.549C293.542 267.186 294.072 266.98 294.632 266.98C295.191 266.98 295.721 267.186 296.143 267.549C296.644 267.981 296.928 268.609 296.928 269.276C296.928 269.384 296.919 269.492 296.909 269.59C296.811 270.277 296.418 270.875 295.829 271.238V273.141C295.819 273.799 295.289 274.338 294.632 274.338ZM294.632 267.677C294.239 267.677 293.866 267.814 293.572 268.069C293.228 268.373 293.022 268.815 293.022 269.276C293.022 269.354 293.032 269.423 293.042 269.492C293.11 270.022 293.444 270.483 293.935 270.718C294.053 270.777 294.131 270.895 294.131 271.032V273.141C294.131 273.416 294.357 273.642 294.632 273.642C294.907 273.642 295.132 273.416 295.132 273.141V271.032C295.132 270.895 295.211 270.777 295.329 270.718C295.81 270.483 296.143 270.022 296.222 269.492C296.232 269.423 296.241 269.354 296.241 269.276C296.241 268.815 296.045 268.373 295.692 268.069C295.388 267.814 295.015 267.677 294.632 267.677ZM301.169 262.271H288.065C287.869 262.271 287.722 262.114 287.722 261.928V256.326C287.722 252.53 290.814 249.43 294.622 249.43C298.42 249.43 301.522 252.52 301.522 256.326V261.928C301.522 262.114 301.365 262.271 301.169 262.271ZM288.419 261.575H300.825V256.317C300.825 252.903 298.038 250.116 294.622 250.116C291.206 250.116 288.419 252.903 288.419 256.317V261.575Z" fill="#775BE4"/>
<path d="M190.682 194.867H109.795C109.432 194.867 109.137 194.573 109.137 194.21V194.043C109.137 193.68 109.432 193.386 109.795 193.386H190.682C191.045 193.386 191.339 193.68 191.339 194.043V194.21C191.349 194.573 191.045 194.867 190.682 194.867Z" fill="#3785EF"/>
<path d="M150.233 143.913C144.658 143.913 139.25 142.824 134.156 140.666C129.239 138.586 124.822 135.613 121.024 131.817C117.235 128.03 114.251 123.605 112.17 118.69C110.021 113.599 108.921 108.193 108.921 102.621C108.921 97.0489 110.011 91.6435 112.17 86.5519C114.251 81.6369 117.225 77.2223 121.024 73.4257C124.812 69.6389 129.239 66.6566 134.156 64.5768C139.25 62.4284 144.658 61.3296 150.233 61.3296C155.808 61.3296 161.217 62.4186 166.311 64.5768C171.228 66.6566 175.645 69.6291 179.443 73.4257C183.232 77.2125 186.216 81.6369 188.297 86.5519C190.446 91.6435 191.546 97.0489 191.546 102.621C191.546 108.193 190.456 113.599 188.297 118.69C186.216 123.605 183.242 128.02 179.443 131.817C175.655 135.603 171.228 138.586 166.311 140.666C161.226 142.824 155.818 143.913 150.233 143.913ZM150.233 62.497C128.09 62.497 110.08 80.4989 110.08 102.631C110.08 124.763 128.09 142.765 150.233 142.765C172.377 142.765 190.387 124.763 190.387 102.631C190.387 80.4989 172.377 62.497 150.233 62.497Z" fill="#B1CDEF"/>
<path d="M178.089 215.852H122.388C121.72 215.852 121.181 216.391 121.181 217.058V217.363C121.181 218.03 121.72 218.569 122.388 218.569H178.089C178.756 218.569 179.296 218.03 179.296 217.363V217.058C179.296 216.391 178.756 215.852 178.089 215.852Z" fill="white"/>
<path d="M122.613 178.553H127.924V192.876H118.952L118.952 182.222L118.952 182.22C118.943 180.193 120.582 178.553 122.613 178.553Z" fill="#B1CDEF" stroke="#020A1D"/>
<path d="M128.914 183.733C128.914 181.569 127.804 179.666 126.122 178.563H181.083C183.947 178.563 186.265 180.88 186.265 183.743V288.262C186.265 294.562 190.194 299.944 195.736 302.094H142.754C135.109 302.094 128.914 295.902 128.914 288.262V183.733Z" fill="#EAF6FD" stroke="#020A1D"/>
<path d="M225.615 293.842C227.254 297.715 230.384 300.655 234.171 302.104H154.853C158.637 300.657 161.763 297.72 163.395 293.842C163.395 293.842 163.395 293.842 163.395 293.841L163.905 292.636C166.124 287.395 171.262 283.984 176.95 283.984H212.059C217.758 283.984 222.895 287.386 225.104 292.635L225.104 292.636L225.615 293.842L225.615 293.842Z" fill="#B1CDEF" stroke="#020A1D"/>
<path d="M192.204 295.797L192.204 295.797L191.261 293.119C189.756 288.835 186.456 285.553 182.38 283.994H212.069C217.767 283.994 222.905 287.396 225.114 292.645L225.114 292.645L225.624 293.852C225.624 293.852 225.624 293.852 225.624 293.852C227.257 297.718 230.384 300.655 234.171 302.104H201.105C197.097 302.104 193.527 299.579 192.204 295.797Z" fill="#EAF6FD" stroke="#020A1D"/>
<path d="M239.567 302.104H203.724C204.964 301.329 206.298 299.975 206.833 297.669H245.437C245.429 297.692 245.421 297.714 245.412 297.737C245.252 298.157 244.984 298.726 244.552 299.316C243.7 300.481 242.199 301.75 239.567 302.104Z" fill="#B1CDEF" stroke="#020A1D"/>
<path d="M142.607 201.332C142.273 201.332 141.959 201.185 141.753 200.93L136.629 194.671C136.237 194.2 136.315 193.504 136.786 193.111C137.258 192.719 137.954 192.798 138.347 193.268L142.617 198.478L150.577 188.805C150.969 188.334 151.666 188.265 152.137 188.658C152.609 189.05 152.677 189.747 152.285 190.217L143.461 200.93C143.255 201.185 142.941 201.332 142.607 201.332Z" fill="#47C372"/>
<path d="M178.305 193.376H158.203C157.654 193.376 157.212 192.935 157.212 192.385V192.13C157.212 191.581 157.654 191.14 158.203 191.14H178.305C178.854 191.14 179.296 191.581 179.296 192.13V192.385C179.296 192.935 178.854 193.376 178.305 193.376Z" fill="#3EA2E5"/>
<path d="M172.396 198.694H158.203C157.654 198.694 157.212 198.252 157.212 197.703V197.448C157.212 196.898 157.654 196.457 158.203 196.457H172.396C172.946 196.457 173.387 196.898 173.387 197.448V197.703C173.387 198.252 172.946 198.694 172.396 198.694Z" fill="#B1CDEF"/>
<path d="M142.607 221.228C142.273 221.228 141.959 221.081 141.753 220.826L136.629 214.567C136.237 214.096 136.315 213.399 136.786 213.007C137.258 212.614 137.954 212.693 138.347 213.164L142.617 218.373L150.577 208.7C150.969 208.229 151.666 208.16 152.137 208.553C152.609 208.945 152.677 209.642 152.285 210.113L143.461 220.826C143.255 221.081 142.941 221.228 142.607 221.228Z" fill="#47C372"/>
<path d="M178.305 213.272H158.203C157.654 213.272 157.212 212.83 157.212 212.281V212.026C157.212 211.476 157.654 211.035 158.203 211.035H178.305C178.854 211.035 179.296 211.476 179.296 212.026V212.281C179.296 212.83 178.854 213.272 178.305 213.272Z" fill="#3EA2E5"/>
<path d="M172.396 218.589H158.203C157.654 218.589 157.212 218.147 157.212 217.598V217.343C157.212 216.794 157.654 216.352 158.203 216.352H172.396C172.946 216.352 173.387 216.794 173.387 217.343V217.598C173.387 218.147 172.946 218.589 172.396 218.589Z" fill="#B1CDEF"/>
<path d="M142.607 241.123C142.273 241.123 141.959 240.976 141.753 240.721L136.629 234.462C136.237 233.991 136.315 233.294 136.786 232.902C137.258 232.51 137.954 232.588 138.347 233.059L142.617 238.268L150.577 228.595C150.969 228.124 151.666 228.056 152.137 228.448C152.609 228.841 152.677 229.537 152.285 230.008L143.461 240.721C143.255 240.976 142.941 241.123 142.607 241.123Z" fill="#47C372"/>
<path d="M178.305 233.167H158.203C157.654 233.167 157.212 232.725 157.212 232.176V231.921C157.212 231.372 157.654 230.93 158.203 230.93H178.305C178.854 230.93 179.296 231.372 179.296 231.921V232.176C179.296 232.725 178.854 233.167 178.305 233.167Z" fill="#3EA2E5"/>
<path d="M172.396 238.474H158.203C157.654 238.474 157.212 238.033 157.212 237.483V237.228C157.212 236.679 157.654 236.238 158.203 236.238H172.396C172.946 236.238 173.387 236.679 173.387 237.228V237.483C173.387 238.033 172.946 238.474 172.396 238.474Z" fill="#B1CDEF"/>
<path d="M142.607 261.018C142.273 261.018 141.959 260.871 141.753 260.616L136.629 254.357C136.237 253.886 136.315 253.19 136.786 252.797C137.258 252.405 137.954 252.483 138.347 252.954L142.617 258.164L150.577 248.491C150.969 248.02 151.666 247.951 152.137 248.343C152.609 248.736 152.677 249.432 152.285 249.903L143.461 260.616C143.255 260.861 142.941 261.018 142.607 261.018Z" fill="#47C372"/>
<path d="M178.305 253.052H158.203C157.654 253.052 157.212 252.611 157.212 252.062V251.806C157.212 251.257 157.654 250.816 158.203 250.816H178.305C178.854 250.816 179.296 251.257 179.296 251.806V252.062C179.296 252.611 178.854 253.052 178.305 253.052Z" fill="#3EA2E5"/>
<path d="M172.396 258.37H158.203C157.654 258.37 157.212 257.928 157.212 257.379V257.124C157.212 256.574 157.654 256.133 158.203 256.133H172.396C172.946 256.133 173.387 256.574 173.387 257.124V257.379C173.387 257.928 172.946 258.37 172.396 258.37Z" fill="#B1CDEF"/>
<path d="M142.607 280.904C142.273 280.904 141.959 280.757 141.753 280.502L136.629 274.243C136.237 273.772 136.315 273.075 136.786 272.683C137.258 272.29 137.954 272.369 138.347 272.84L142.617 278.049L150.577 268.376C150.969 267.905 151.666 267.837 152.137 268.229C152.609 268.621 152.677 269.318 152.285 269.789L143.461 280.502C143.255 280.757 142.941 280.904 142.607 280.904Z" fill="#47C372"/>
<path d="M178.305 272.948H158.203C157.654 272.948 157.212 272.506 157.212 271.957V271.702C157.212 271.152 157.654 270.711 158.203 270.711H178.305C178.854 270.711 179.296 271.152 179.296 271.702V271.957C179.296 272.506 178.854 272.948 178.305 272.948Z" fill="#3EA2E5"/>
<path d="M172.396 278.265H158.203C157.654 278.265 157.212 277.823 157.212 277.274V277.019C157.212 276.47 157.654 276.028 158.203 276.028H172.396C172.946 276.028 173.387 276.47 173.387 277.019V277.274C173.387 277.823 172.946 278.265 172.396 278.265Z" fill="#B1CDEF"/>
<path d="M155.114 152.328H155.364V152.078V143.667C155.364 140.885 153.103 138.625 150.32 138.625C147.537 138.625 145.276 140.885 145.276 143.667V152.078H145.519V152.328H145.526H145.776H155.114ZM155.746 153.1H144.886C144.674 153.1 144.504 152.926 144.504 152.718V143.674C144.504 140.472 147.116 137.861 150.32 137.861C153.524 137.861 156.136 140.472 156.136 143.674V152.718C156.136 152.928 155.964 153.1 155.746 153.1Z" fill="#EAF6FD" stroke="black" stroke-width="0.5"/>
<path d="M142.766 148.018H157.873C158.827 148.018 159.6 148.796 159.607 149.745V156.087C159.607 159.081 157.182 161.505 154.186 161.505H146.46C143.465 161.505 141.04 159.081 141.04 156.087V149.744C141.04 148.79 141.812 148.018 142.766 148.018Z" fill="#FFD15F" stroke="black" stroke-width="0.5"/>
<path d="M149.945 154.442V154.285L149.804 154.217C149.412 154.027 149.14 153.624 149.14 153.156C149.14 152.504 149.667 151.976 150.32 151.976C150.972 151.976 151.5 152.504 151.5 153.156C151.5 153.623 151.229 154.025 150.824 154.216L150.681 154.283V154.442V155.986C150.681 156.186 150.512 156.354 150.313 156.354C150.111 156.354 149.945 156.191 149.945 155.986V154.442Z" fill="white" stroke="#020816" stroke-width="0.5"/>
<path d="M150.347 131.594C166.284 131.594 179.203 118.673 179.203 102.734C179.203 86.7954 166.284 73.8743 150.347 73.8743C134.41 73.8743 121.49 86.7954 121.49 102.734C121.49 118.673 134.41 131.594 150.347 131.594Z" fill="white"/>
<path d="M150.347 132.484C133.937 132.484 120.601 119.146 120.601 102.734C120.601 86.3228 133.937 72.9852 150.347 72.9852C166.756 72.9852 180.092 86.3228 180.092 102.734C180.092 119.146 166.731 132.484 150.347 132.484ZM150.347 74.7635C134.928 74.7635 122.379 87.3136 122.379 102.734C122.379 118.155 134.928 130.705 150.347 130.705C165.766 130.705 178.314 118.155 178.314 102.734C178.314 87.3136 165.766 74.7635 150.347 74.7635Z" fill="#5E1355"/>
<path d="M150.347 126.336C163.38 126.336 173.945 115.769 173.945 102.734C173.945 89.6998 163.38 79.1332 150.347 79.1332C137.314 79.1332 126.748 89.6998 126.748 102.734C126.748 115.769 137.314 126.336 150.347 126.336Z" fill="#F4C458"/>
<path d="M159.771 104.64C159.313 103.751 158.678 103.014 157.866 102.43C157.053 101.845 156.062 101.363 154.893 100.956C153.725 100.55 152.43 100.168 150.982 99.8382C149.839 99.5588 149 99.3301 148.518 99.1777C148.01 99.0253 147.527 98.822 147.044 98.5426C146.562 98.2885 146.181 97.9582 145.901 97.5772C145.622 97.1961 145.495 96.7642 145.495 96.2561C145.495 95.4432 145.901 94.7318 146.714 94.1475C147.527 93.5632 148.619 93.2583 149.94 93.2583C151.388 93.2583 152.43 93.5378 153.065 94.0713C153.725 94.6048 154.258 95.367 154.741 96.3323C155.097 96.9929 155.427 97.501 155.732 97.7804C156.037 98.0853 156.494 98.2123 157.078 98.2123C157.739 98.2123 158.272 97.9583 158.704 97.4756C159.136 96.9929 159.364 96.434 159.364 95.8242C159.364 95.1637 159.186 94.4524 158.831 93.7664C158.475 93.0551 157.942 92.3946 157.18 91.734C156.418 91.0989 155.478 90.5654 154.335 90.1843C153.369 89.8541 152.252 89.6762 151.007 89.6254V85.8909C151.007 85.1033 150.372 84.4936 149.61 84.4936C148.848 84.4936 148.213 85.1287 148.213 85.8909V89.727C147.095 89.8541 146.104 90.1081 145.19 90.4892C143.742 91.0735 142.624 91.9119 141.862 93.0043C141.1 94.0967 140.719 95.3415 140.719 96.7388C140.719 98.2123 141.075 99.4317 141.812 100.448C142.548 101.439 143.514 102.226 144.758 102.785C146.003 103.369 147.527 103.852 149.356 104.284C150.728 104.589 151.82 104.894 152.633 105.173C153.446 105.453 154.106 105.859 154.639 106.393C155.148 106.926 155.402 107.612 155.402 108.451C155.402 109.518 154.919 110.407 153.979 111.118C153.039 111.829 151.769 112.185 150.245 112.185C149.127 112.185 148.238 112.007 147.552 111.652C146.867 111.296 146.333 110.839 145.952 110.305C145.571 109.772 145.215 109.086 144.911 108.273C144.657 107.587 144.326 107.079 143.945 106.723C143.564 106.367 143.107 106.189 142.574 106.189C141.913 106.189 141.354 106.418 140.923 106.85C140.491 107.307 140.262 107.841 140.262 108.451C140.262 109.518 140.618 110.635 141.354 111.779C142.091 112.922 143.031 113.836 144.174 114.522C145.317 115.183 146.663 115.615 148.238 115.818V120.315C148.238 121.102 148.873 121.712 149.635 121.712C150.397 121.712 151.032 121.077 151.032 120.315V115.92C152.861 115.843 154.462 115.513 155.808 114.878C157.332 114.192 158.501 113.227 159.288 111.982C160.075 110.762 160.482 109.365 160.482 107.815C160.456 106.596 160.228 105.504 159.771 104.64Z" fill="#5E1355"/>
<path d="M252.633 43.9318C263.516 43.9318 272.339 35.1135 272.339 24.2356C272.339 13.3576 263.516 4.53931 252.633 4.53931C241.749 4.53931 232.927 13.3576 232.927 24.2356C232.927 35.1135 241.749 43.9318 252.633 43.9318Z" fill="#47C372"/>
<path d="M240.54 37.8192L238.812 45.7391C238.593 46.7406 239.687 47.5004 240.551 46.9594L248.371 42.0785L240.54 37.8192Z" fill="#47C372"/>
<path d="M248.798 36.2191C248.245 36.2191 247.715 35.9658 247.37 35.5399L238.847 25.1335C238.202 24.3507 238.317 23.188 239.112 22.5434C239.895 21.8987 241.058 22.0138 241.703 22.8081L248.798 31.4763L262.043 15.3832C262.687 14.6004 263.851 14.4853 264.634 15.1299C265.417 15.7746 265.532 16.9372 264.887 17.72L250.214 35.5514C249.869 35.9773 249.35 36.2191 248.798 36.2191Z" fill="white"/>
<path d="M71.17 183.299C58.073 185.141 50.6178 176.391 50.3875 176.103C50.1572 176.391 42.7307 185.112 29.6049 183.299C29.6049 183.299 28.799 214.732 50.3875 225.123C71.976 214.732 71.17 183.299 71.17 183.299Z" fill="#3785EF"/>
<path d="M50.3871 225.843C50.2719 225.843 50.1568 225.814 50.0704 225.785C41.0608 221.439 34.5267 212.717 31.2165 200.512C28.7982 191.673 28.8762 184.149 28.8844 183.358C28.8847 183.33 28.8849 183.31 28.8849 183.299C28.8849 183.098 28.9713 182.896 29.144 182.781C29.3167 182.666 29.5182 182.579 29.7197 182.608C42.1591 184.353 49.2859 176.324 49.8303 175.711L49.8402 175.7C49.9265 175.585 50.0704 175.498 50.2144 175.441C50.2719 175.412 50.3295 175.412 50.3871 175.412C50.4446 175.412 50.5022 175.412 50.5598 175.441C50.7037 175.47 50.8476 175.585 50.934 175.7C51.3657 176.218 58.5043 184.364 71.0545 182.608C71.256 182.579 71.4574 182.637 71.6302 182.781C71.7741 182.925 71.8892 183.098 71.8892 183.299C71.8892 183.31 71.8894 183.33 71.8897 183.358C71.8979 184.149 71.976 191.673 69.5577 200.512C66.2474 212.688 59.7133 221.439 50.7037 225.785C50.6173 225.814 50.5022 225.843 50.3871 225.843ZM30.3529 184.105C30.3817 186.321 30.6408 192.856 32.6269 200.138C34.8433 208.255 39.7367 218.992 50.4158 224.288C61.095 218.992 65.9596 208.255 68.2048 200.138C70.1909 192.856 70.45 186.293 70.4788 184.105C59.3679 185.314 52.3732 179.154 50.4158 177.168C48.6312 178.981 42.6728 184.278 33.2314 184.278C32.2815 184.278 31.3316 184.22 30.3529 184.105Z" fill="#020A1D"/>
<path d="M50.3871 225.843C50.2719 225.843 50.1568 225.814 50.0704 225.785C41.0608 221.439 34.5267 212.717 31.2165 200.512C28.7982 191.673 28.8762 184.149 28.8844 183.358C28.8847 183.33 28.8849 183.31 28.8849 183.299C28.8849 183.098 28.9713 182.896 29.144 182.781C29.3167 182.666 29.5182 182.579 29.7197 182.608C42.1591 184.353 49.2859 176.324 49.8303 175.711L49.8402 175.7C49.9265 175.585 50.0704 175.498 50.2144 175.441C50.2719 175.412 50.3295 175.412 50.3871 175.412C50.4446 175.412 50.5022 175.412 50.5598 175.441C50.7037 175.47 50.8476 175.585 50.934 175.7C51.3657 176.218 58.5043 184.364 71.0545 182.608C71.256 182.579 71.4574 182.637 71.6302 182.781C71.7741 182.925 71.8892 183.098 71.8892 183.299C71.8892 183.31 71.8894 183.33 71.8897 183.358C71.8979 184.149 71.976 191.673 69.5577 200.512C66.2474 212.688 59.7133 221.439 50.7037 225.785C50.6173 225.814 50.5022 225.843 50.3871 225.843ZM30.3529 184.105C30.3817 186.321 30.6408 192.856 32.6269 200.138C34.8433 208.255 39.7367 218.992 50.4158 224.288C61.095 218.992 65.9596 208.255 68.2048 200.138C70.1909 192.856 70.45 186.293 70.4788 184.105C59.3679 185.314 52.3732 179.154 50.4158 177.168C48.6312 178.981 42.6728 184.278 33.2314 184.278C32.2815 184.278 31.3316 184.22 30.3529 184.105Z" stroke="#3785EF"/>
<path d="M54.5678 200.256H54.8178V200.005V192.354C54.8178 189.812 52.7512 187.746 50.2076 187.746C47.6639 187.746 45.5973 189.812 45.5973 192.354V200.005H45.8408V200.256H45.8473H46.0974H54.5678ZM55.143 200.912H45.2655C45.085 200.912 44.9403 200.764 44.9403 200.587V192.361C44.9403 189.461 47.3058 187.096 50.2076 187.096C53.1093 187.096 55.4748 189.461 55.4748 192.361V200.587C55.4748 200.765 55.3291 200.912 55.143 200.912Z" fill="#EAF6FD" stroke="#020816" stroke-width="0.5"/>
<path d="M43.3371 196.335H57.0781C57.9325 196.335 58.6261 197.033 58.6322 197.883V203.651C58.6322 206.362 56.4367 208.556 53.7245 208.556H46.6972C43.985 208.556 41.7895 206.362 41.7895 203.651V197.882C41.7895 197.027 42.4815 196.335 43.3371 196.335Z" fill="white" stroke="#020816" stroke-width="0.5"/>
<path d="M49.8888 202.155V201.998L49.7478 201.93C49.3992 201.761 49.1567 201.402 49.1567 200.986C49.1567 200.405 49.6264 199.935 50.2075 199.935C50.7886 199.935 51.2583 200.405 51.2583 200.986C51.2583 201.401 51.017 201.759 50.6567 201.929L50.5131 201.996V202.155V203.56C50.5131 203.729 50.3702 203.872 50.201 203.872C50.0298 203.872 49.8888 203.733 49.8888 203.56V202.155Z" fill="#FFD15F" stroke="#020816" stroke-width="0.5"/>
</svg>
