<svg width="48" height="48" viewBox="0 0 48 48" fill="none" xmlns="http://www.w3.org/2000/svg">
<circle cx="24" cy="24" r="24" fill="#E6F0FD"/>
<circle cx="24" cy="24" r="18" fill="#CDE0FB"/>
<path d="M15 21H33M19 27H21M18.2 31H29.8C30.9201 31 31.4802 31 31.908 30.782C32.2843 30.5903 32.5903 30.2843 32.782 29.908C33 29.4802 33 28.9201 33 27.8V20.2C33 19.0799 33 18.5198 32.782 18.092C32.5903 17.7157 32.2843 17.4097 31.908 17.218C31.4802 17 30.9201 17 29.8 17H18.2C17.0799 17 16.5198 17 16.092 17.218C15.7157 17.4097 15.4097 17.7157 15.218 18.092C15 18.5198 15 19.0799 15 20.2V27.8C15 28.9201 15 29.4802 15.218 29.908C15.4097 30.2843 15.7157 30.5903 16.092 30.782C16.5198 31 17.0799 31 18.2 31Z" stroke="#0566EB" stroke-width="1.5" stroke-linecap="round" stroke-linejoin="round"/>
</svg>
