<svg width="25" height="38" viewBox="0 0 25 38" fill="none" xmlns="http://www.w3.org/2000/svg">
<path d="M24.8405 22.0858C24.9229 22.5649 24.9635 23.0746 24.9853 23.6111C25.1635 29.4292 21.8282 35.1703 16.7076 37.9064C16.3205 38.1139 15.8249 37.9643 15.6174 37.5771C15.4099 37.19 15.5596 36.6945 15.9467 36.487C20.5511 34.0276 23.5431 28.8857 23.3756 23.6765C23.3345 22.3447 23.0207 20.5195 21.8167 19.5286C20.3106 18.2843 17.9109 18.6735 16.1679 19.4665C15.4046 19.8091 14.6987 20.2124 13.9244 20.6274C12.6606 21.338 11.3511 22.0564 9.89151 22.4483C8.45474 22.8363 7.21333 22.7209 6.30808 22.1014C5.13544 21.2931 4.6405 19.7809 4.8272 17.5878C5.12614 14.2715 6.14491 11.0427 7.81256 8.1722L4.48837 8.64981C3.34358 8.82317 2.06902 8.92488 1.06001 8.11185C-0.0559519 7.22325 -0.140173 5.64049 0.127869 4.46694C0.578768 2.58076 1.89497 0.94513 3.64901 0.0797847C4.06293 -0.108835 4.53568 0.0447403 4.7243 0.458597C4.91292 0.872453 4.75928 1.34517 4.34537 1.53379C3.04695 2.17986 2.0181 3.43723 1.6941 4.83181C1.52621 5.49488 1.5423 6.40819 2.06213 6.83556C2.55523 7.24404 3.40731 7.14453 4.23265 7.02611L9.2988 6.29587C9.61824 6.24094 9.92735 6.39918 10.0924 6.67615C10.2575 6.95311 10.2479 7.30711 10.0818 7.57057C8.01519 10.5802 6.73903 14.0881 6.42656 17.7356C6.29366 19.2853 6.56539 20.319 7.20716 20.7724C7.82218 21.2069 8.7616 21.0688 9.43828 20.9055C10.7192 20.5678 11.8729 19.8996 13.095 19.2197C13.8655 18.7819 14.6398 18.3669 15.4676 17.9896C18.3044 16.7267 21.0493 16.8419 22.8038 18.3019C23.8813 19.1032 24.5541 20.4203 24.8405 22.0858Z" fill="#775BE4"/>
</svg>
