<svg width="95" height="65" viewBox="0 0 95 65" fill="none" xmlns="http://www.w3.org/2000/svg">
<path d="M84.8268 32.2092H35.0426C34.3966 32.2092 33.8891 31.7016 33.8891 31.0556V22.9572C33.8891 22.3111 34.3966 21.8035 35.0426 21.8035H84.8268C85.4727 21.8035 85.9802 22.3111 85.9802 22.9572V31.0556C85.9802 31.7016 85.4727 32.2092 84.8268 32.2092Z" fill="#FEBB66"/>
<path d="M84.8266 33.0167H35.0424C33.9581 33.0167 33.0815 32.14 33.0815 31.0556V22.9571C33.0815 21.8727 33.9581 20.996 35.0424 20.996H84.8266C85.9108 20.996 86.7875 21.8727 86.7875 22.9571V31.0556C86.7875 32.14 85.9108 33.0167 84.8266 33.0167ZM35.0655 22.611C34.8809 22.611 34.7194 22.7725 34.7194 22.9571V31.0556C34.7194 31.2401 34.8809 31.4016 35.0655 31.4016H84.8266C85.0111 31.4016 85.1726 31.2401 85.1726 31.0556V22.9571C85.1726 22.7725 85.0111 22.611 84.8266 22.611H35.0655Z" fill="#473789"/>
<path d="M59.1272 26.4641H33.9122C33.4739 26.4641 33.1047 26.095 33.1047 25.6566C33.1047 25.2182 33.4739 24.8491 33.9122 24.8491H59.1272C59.5655 24.8491 59.9346 25.2182 59.9346 25.6566C59.9346 26.095 59.5655 26.4641 59.1272 26.4641Z" fill="#5E1355"/>
<path d="M80.4202 21.8034H30.6361C29.9901 21.8034 29.4826 21.2958 29.4826 20.6498V12.5514C29.4826 11.9053 29.9901 11.3977 30.6361 11.3977H80.4202C81.0662 11.3977 81.5737 11.9053 81.5737 12.5514V20.6498C81.5737 21.2958 81.0662 21.8034 80.4202 21.8034Z" fill="#FEBB66"/>
<path d="M80.42 22.611H30.6359C29.5516 22.611 28.675 21.7343 28.675 20.6499V12.5514C28.675 11.467 29.5516 10.5903 30.6359 10.5903H80.42C81.5043 10.5903 82.381 11.467 82.381 12.5514V20.6499C82.381 21.7343 81.5043 22.611 80.42 22.611ZM30.6589 12.1822C30.4744 12.1822 30.3129 12.3438 30.3129 12.5283V20.6268C30.3129 20.8114 30.4744 20.9729 30.6589 20.9729H80.4431C80.6277 20.9729 80.7891 20.8114 80.7891 20.6268V12.5283C80.7891 12.3438 80.6277 12.1822 80.4431 12.1822H30.6589Z" fill="#473789"/>
<path d="M54.7205 16.0353H29.5054C29.0671 16.0353 28.698 15.6661 28.698 15.2278C28.698 14.7894 29.0671 14.4202 29.5054 14.4202H54.7205C55.1588 14.4202 55.5279 14.7894 55.5279 15.2278C55.5279 15.6661 55.1588 16.0353 54.7205 16.0353Z" fill="#473789"/>
<path d="M87.1336 11.2133H37.3494C36.7035 11.2133 36.1959 10.7057 36.1959 10.0596V1.96121C36.1959 1.31518 36.7035 0.807587 37.3494 0.807587H87.1336C87.7795 0.807587 88.2871 1.31518 88.2871 1.96121V10.0596C88.2871 10.6826 87.7795 11.2133 87.1336 11.2133Z" fill="#FEBB66"/>
<path d="M87.1336 12.0208H37.3495C36.2652 12.0208 35.3885 11.144 35.3885 10.0596V1.96116C35.3885 0.876754 36.2652 0 37.3495 0H87.1336C88.2179 0 89.0945 0.876754 89.0945 1.96116V10.0596C89.0945 11.144 88.2179 12.0208 87.1336 12.0208ZM37.3726 1.59201C37.188 1.59201 37.0265 1.75351 37.0265 1.93809V10.0365C37.0265 10.2211 37.188 10.3826 37.3726 10.3826H87.1336C87.3182 10.3826 87.4797 10.2211 87.4797 10.0365V1.93809C87.4797 1.75351 87.3182 1.59201 87.1336 1.59201H37.3726Z" fill="#473789"/>
<path d="M61.4338 5.44514H36.2187C35.7804 5.44514 35.4113 5.07598 35.4113 4.6376C35.4113 4.19922 35.7804 3.83006 36.2187 3.83006H61.4338C61.8721 3.83006 62.2412 4.19922 62.2412 4.6376C62.2412 5.07598 61.8721 5.44514 61.4338 5.44514Z" fill="#473789"/>
<path d="M93.0385 42.6378H43.2544C42.6084 42.6378 42.1009 42.1302 42.1009 41.4842V33.3627C42.1009 32.7167 42.6084 32.2091 43.2544 32.2091H93.0385C93.6845 32.2091 94.192 32.7167 94.192 33.3627V41.4611C94.192 42.1071 93.6845 42.6378 93.0385 42.6378Z" fill="#FEBB66"/>
<path d="M93.0391 43.4455H43.2549C42.1707 43.4455 41.294 42.5687 41.294 41.4843V33.3628C41.294 32.2784 42.1707 31.4016 43.2549 31.4016H93.0391C94.1233 31.4016 95 32.2784 95 33.3628V41.4612C95 42.5687 94.1233 43.4455 93.0391 43.4455ZM43.2549 33.0167C43.0704 33.0167 42.9089 33.1782 42.9089 33.3628V41.4612C42.9089 41.6458 43.0704 41.8073 43.2549 41.8073H93.0391C93.2236 41.8073 93.3851 41.6458 93.3851 41.4612V33.3628C93.3851 33.1782 93.2236 33.0167 93.0391 33.0167H43.2549Z" fill="#473789"/>
<path d="M67.8235 36.616H42.6085C42.1701 36.616 41.801 36.2468 41.801 35.8084C41.801 35.37 42.1701 35.0009 42.6085 35.0009H67.8235C68.2618 35.0009 68.6309 35.37 68.6309 35.8084C68.6309 36.2468 68.2618 36.616 67.8235 36.616Z" fill="#473789"/>
<path d="M80.0968 53.0436H30.3127C29.6667 53.0436 29.1592 52.5361 29.1592 51.89V43.7916C29.1592 43.1455 29.6667 42.6379 30.3127 42.6379H80.0968C80.7428 42.6379 81.2503 43.1455 81.2503 43.7916V51.89C81.2503 52.5361 80.7428 53.0436 80.0968 53.0436Z" fill="#FEBB66"/>
<path d="M80.0971 53.8512H30.313C29.2287 53.8512 28.3521 52.9744 28.3521 51.89V43.7916C28.3521 42.7071 29.2287 41.8304 30.313 41.8304H80.0971C81.1814 41.8304 82.0581 42.7071 82.0581 43.7916V51.89C82.0581 52.9744 81.1814 53.8512 80.0971 53.8512ZM30.313 43.4455C30.1284 43.4455 29.9669 43.607 29.9669 43.7916V51.89C29.9669 52.0746 30.1284 52.2361 30.313 52.2361H80.0971C80.2817 52.2361 80.4432 52.0746 80.4432 51.89V43.7916C80.4432 43.607 80.2817 43.4455 80.0971 43.4455H30.313Z" fill="#473789"/>
<path d="M80.7662 47.9908H55.5511C55.1128 47.9908 54.7437 47.6216 54.7437 47.1832C54.7437 46.7449 55.1128 46.3757 55.5511 46.3757H80.7662C81.2045 46.3757 81.5736 46.7449 81.5736 47.1832C81.5736 47.6216 81.2045 47.9908 80.7662 47.9908Z" fill="#473789"/>
<path d="M88.8866 63.4724H39.1025C38.4565 63.4724 37.949 62.9648 37.949 62.3188V54.2204C37.949 53.5743 38.4565 53.0667 39.1025 53.0667H88.8866C89.5325 53.0667 90.0401 53.5743 90.0401 54.2204V62.3188C90.0401 62.9418 89.5095 63.4724 88.8866 63.4724Z" fill="#FEBB66"/>
<path d="M88.8867 64.2799H39.1025C38.0183 64.2799 37.1416 63.4032 37.1416 62.3188V54.2203C37.1416 53.1359 38.0183 52.2592 39.1025 52.2592H88.8867C89.9709 52.2592 90.8476 53.1359 90.8476 54.2203V62.3188C90.8476 63.4032 89.9709 64.2799 88.8867 64.2799ZM39.1025 53.8512C38.918 53.8512 38.7565 54.0127 38.7565 54.1973V62.2957C38.7565 62.4803 38.918 62.6418 39.1025 62.6418H88.8867C89.0712 62.6418 89.2327 62.4803 89.2327 62.2957V54.1973C89.2327 54.0127 89.0712 53.8512 88.8867 53.8512H39.1025Z" fill="#473789"/>
<path d="M89.2096 57.6812H63.9945C63.5562 57.6812 63.1871 57.312 63.1871 56.8736C63.1871 56.4352 63.5562 56.0661 63.9945 56.0661H89.2096C89.6479 56.0661 90.017 56.4352 90.017 56.8736C90.017 57.312 89.6479 57.6812 89.2096 57.6812Z" fill="#473789"/>
<path d="M45.5378 55.9564C55.7722 45.7208 55.7722 29.1255 45.5378 18.8898C35.3034 8.65412 18.7102 8.65412 8.4758 18.8898C-1.75859 29.1255 -1.75859 45.7208 8.4758 55.9564C18.7102 66.1921 35.3034 66.1921 45.5378 55.9564Z" fill="white"/>
<path d="M27.0145 64.4414C12.1115 64.4414 0 52.3284 0 37.4236C0 22.5187 12.1115 10.4057 27.0145 10.4057C41.9174 10.4057 54.0289 22.5187 54.0289 37.4236C54.0289 52.3284 41.9174 64.4414 27.0145 64.4414ZM27.0145 12.0208C13.0112 12.0208 1.61487 23.4186 1.61487 37.4236C1.61487 51.4286 13.0112 62.8264 27.0145 62.8264C41.0177 62.8264 52.4141 51.4286 52.4141 37.4236C52.4141 23.4186 41.0177 12.0208 27.0145 12.0208Z" fill="#473789"/>
<path d="M27.0142 58.8579C38.8506 58.8579 48.4459 49.2614 48.4459 37.4236C48.4459 25.5857 38.8506 15.9892 27.0142 15.9892C15.1779 15.9892 5.58258 25.5857 5.58258 37.4236C5.58258 49.2614 15.1779 58.8579 27.0142 58.8579Z" fill="#FEBB66"/>
<path d="M40.0192 34.8507V33.0794H36.1888C35.5467 29.2401 38.4604 25.6134 32.4823 26.5035C32.1236 32.0742 34.4972 33.7392 27.3367 33.0794L23.3778 26.5035C16.6248 25.6975 19.3216 28.3102 18.8212 33.0794H14.3353C13.4231 36.002 17.351 34.5142 18.8212 34.8507C19.3836 39.4826 17.9355 38.2914 14.3309 38.3933C13.4453 41.3115 17.351 39.8281 18.8212 40.1646V48.4189H22.4966C23.2716 43.4991 19.7024 39.062 27.1507 40.1646L32.0572 48.4189H36.1888V40.1646H40.0192C40.7764 37.3704 37.7165 38.6678 36.1888 38.3933C35.8965 34.1953 36.202 34.802 40.0192 34.8507ZM22.3062 31.2505C22.749 31.5384 22.8952 32.5347 23.2627 33.0794C21.9475 33.4027 22.4656 32.114 22.3018 31.2505H22.3062ZM22.4479 34.8507C24.7772 34.244 25.0207 36.932 26.1101 38.3933C22.7136 38.7564 22.1114 38.2782 22.4435 34.8507H22.4479ZM32.8454 43.2644C32.2963 42.4053 31.9199 41.1875 31.3531 40.1646C33.3812 39.6642 32.4912 41.927 32.841 43.2511L32.8454 43.2644ZM32.5532 38.3933C29.9892 39.0708 29.5951 36.5777 28.4083 34.8507C31.7782 34.6116 33.0181 34.5761 32.5487 38.3933H32.5532Z" fill="#473789"/>
</svg>
