<svg width="280" height="323" viewBox="0 0 280 323" fill="none" xmlns="http://www.w3.org/2000/svg">
<path d="M228.187 34.6079L201.174 7.59464L226.899 8.88291L228.187 34.6079Z" fill="#FEBB66"/>
<path d="M232.777 18.8267C232.232 19.3714 232.232 20.2546 232.777 20.7993C233.322 21.3441 234.205 21.3441 234.75 20.7993C235.294 20.2546 235.294 19.3714 234.75 18.8267C234.205 18.2819 233.322 18.2819 232.777 18.8267Z" fill="#47C372"/>
<path d="M228.228 14.4385C227.683 14.9833 227.683 15.8664 228.228 16.4112C228.773 16.9559 229.656 16.9559 230.2 16.4112C230.745 15.8665 230.745 14.9833 230.2 14.4385C229.656 13.8938 228.773 13.8938 228.228 14.4385Z" fill="#47C372"/>
<path d="M223.658 9.86923C223.114 10.414 223.114 11.2971 223.658 11.8419C224.203 12.3866 225.086 12.3866 225.631 11.8419C226.176 11.2971 226.176 10.414 225.631 9.86923C225.086 9.3245 224.203 9.3245 223.658 9.86923Z" fill="#47C372"/>
<path d="M219.089 5.29993C218.544 5.84466 218.544 6.72783 219.089 7.27256C219.634 7.8173 220.517 7.81731 221.062 7.27258C221.606 6.72784 221.606 5.84466 221.062 5.29993C220.517 4.75519 219.634 4.75519 219.089 5.29993Z" fill="#47C372"/>
<path d="M232.314 10.3523C231.769 10.897 231.769 11.7802 232.314 12.3249C232.859 12.8697 233.742 12.8697 234.287 12.3249C234.831 11.7802 234.831 10.897 234.287 10.3523C233.742 9.80755 232.859 9.80757 232.314 10.3523Z" fill="#47C372"/>
<path d="M227.745 5.78299C227.2 6.32772 227.2 7.21092 227.745 7.75565C228.29 8.30038 229.173 8.30037 229.717 7.75564C230.262 7.21091 230.262 6.32772 229.717 5.78299C229.173 5.23826 228.29 5.23826 227.745 5.78299Z" fill="#47C372"/>
<path d="M231.811 1.71693C231.266 2.26166 231.266 3.14483 231.811 3.68956C232.356 4.2343 233.239 4.23431 233.783 3.68958C234.328 3.14484 234.328 2.26166 233.783 1.71693C233.239 1.17219 232.356 1.17219 231.811 1.71693Z" fill="#47C372"/>
<path d="M223.175 1.21368C222.631 1.75841 222.631 2.64161 223.175 3.18634C223.72 3.73107 224.603 3.73106 225.148 3.18633C225.693 2.64159 225.693 1.75841 225.148 1.21368C224.603 0.668945 223.72 0.668945 223.175 1.21368Z" fill="#47C372"/>
<path d="M214.52 0.73061C213.975 1.27534 213.975 2.15851 214.52 2.70325C215.064 3.24798 215.948 3.248 216.492 2.70327C217.037 2.15854 217.037 1.27534 216.492 0.73061C215.948 0.185877 215.064 0.185877 214.52 0.73061Z" fill="#47C372"/>
<path d="M228.55 23.0538C228.005 23.5985 228.005 24.4817 228.55 25.0264C229.095 25.5712 229.978 25.5712 230.522 25.0264C231.067 24.4817 231.067 23.5985 230.522 23.0538C229.978 22.509 229.095 22.509 228.55 23.0538Z" fill="#47C372"/>
<path d="M233.119 27.462C232.574 28.0068 232.574 28.8899 233.119 29.4347C233.664 29.9794 234.547 29.9794 235.092 29.4347C235.637 28.8899 235.637 28.0068 235.092 27.462C234.547 26.9173 233.664 26.9173 233.119 27.462Z" fill="#47C372"/>
<path d="M224.001 18.6657C223.456 19.2104 223.456 20.0935 224.001 20.6383C224.545 21.183 225.429 21.183 225.973 20.6383C226.518 20.0936 226.518 19.2104 225.973 18.6656C225.429 18.1209 224.545 18.1209 224.001 18.6657Z" fill="#47C372"/>
<path d="M219.431 14.0963C218.887 14.6411 218.887 15.5242 219.431 16.069C219.976 16.6137 220.859 16.6137 221.404 16.069C221.949 15.5243 221.949 14.6411 221.404 14.0963C220.859 13.5516 219.976 13.5516 219.431 14.0963Z" fill="#47C372"/>
<path d="M214.862 9.52704C214.317 10.0718 214.317 10.9549 214.862 11.4997C215.407 12.0444 216.29 12.0444 216.835 11.4997C217.379 10.955 217.379 10.0718 216.835 9.52704C216.29 8.9823 215.407 8.9823 214.862 9.52704Z" fill="#47C372"/>
<path d="M210.293 4.95772C209.748 5.50245 209.748 6.38562 210.293 6.93036C210.838 7.47509 211.721 7.47511 212.266 6.93038C212.81 6.38565 212.81 5.50245 212.266 4.95772C211.721 4.41299 210.838 4.41299 210.293 4.95772Z" fill="#47C372"/>
<path d="M205.744 0.408548C205.199 0.953281 205.199 1.83645 205.744 2.38118C206.288 2.92592 207.171 2.92593 207.716 2.3812C208.261 1.83646 208.261 0.953281 207.716 0.408548C207.171 -0.136185 206.288 -0.136185 205.744 0.408548Z" fill="#47C372"/>
<path d="M11.0736 121.855H182.416C188.137 121.855 192.777 126.495 192.777 132.217V300.228C192.777 305.95 188.137 310.59 182.416 310.59H11.0736C5.35177 310.59 0.71167 305.95 0.71167 300.228V132.188C0.71167 126.495 5.35177 121.855 11.0736 121.855Z" fill="#020816"/>
<path d="M18.8084 128.921H179.943C185.324 128.921 189.688 133.219 189.688 138.518V294.122C189.688 299.422 185.324 303.719 179.943 303.719H18.8084C13.4274 303.719 9.06372 299.422 9.06372 294.122V138.492C9.06372 133.219 13.4274 128.921 18.8084 128.921Z" fill="#18122E"/>
<path d="M182.416 311.273H11.0736C4.9817 311.273 0 306.32 0 300.2V132.188C0 126.096 4.95323 121.115 11.0736 121.115H182.416C188.507 121.115 193.489 126.068 193.489 132.188V300.2C193.489 306.32 188.507 311.273 182.416 311.273ZM11.0736 122.567C5.7503 122.567 1.42334 126.894 1.42334 132.217V300.228C1.42334 305.551 5.7503 309.878 11.0736 309.878H182.416C187.739 309.878 192.066 305.551 192.066 300.228V132.188C192.066 126.865 187.739 122.538 182.416 122.538H11.0736V122.567Z" fill="#020816"/>
<path d="M33.4202 303.786V318.276C33.4202 319.756 34.6158 320.98 36.1245 320.98H53.0623C54.5425 320.98 55.7666 319.785 55.7666 318.276V303.786H33.4202Z" fill="#020816"/>
<path d="M53.0337 321.664H36.0959C34.2171 321.664 32.6799 320.126 32.6799 318.248V303.046H56.4213V318.248C56.4213 320.126 54.9125 321.664 53.0337 321.664ZM34.1317 304.498V318.276C34.1317 319.358 35.0142 320.269 36.1244 320.269H53.0622C54.1439 320.269 55.0549 319.386 55.0549 318.276V304.498H34.1317Z" fill="#020816"/>
<path d="M177.007 303.786V318.276C177.007 319.756 178.202 320.98 179.711 320.98H196.649C198.129 320.98 199.353 319.785 199.353 318.276V303.786H177.007Z" fill="black"/>
<path d="M196.621 321.664H179.683C177.804 321.664 176.267 320.126 176.267 318.248V303.046H200.008V318.248C200.008 320.126 198.499 321.664 196.621 321.664ZM177.719 304.498V318.276C177.719 319.358 178.601 320.269 179.711 320.269H196.649C197.731 320.269 198.642 319.386 198.642 318.276V304.498H177.719Z" fill="black"/>
<path d="M30.4308 121.855H201.773C207.495 121.855 212.135 126.495 212.135 132.217V300.228C212.135 305.95 207.495 310.59 201.773 310.59H30.4308C24.7089 310.59 20.0688 305.95 20.0688 300.228V132.188C20.0688 126.495 24.7089 121.855 30.4308 121.855Z" fill="white"/>
<path d="M201.773 311.273H30.431C24.3391 311.273 19.3574 306.32 19.3574 300.2V132.188C19.3574 126.096 24.3106 121.115 30.431 121.115H201.773C207.865 121.115 212.847 126.068 212.847 132.188V300.2C212.847 306.32 207.865 311.273 201.773 311.273ZM30.431 122.567C25.1077 122.567 20.7808 126.893 20.7808 132.217V300.228C20.7808 305.551 25.1077 309.878 30.431 309.878H201.773C207.096 309.878 211.423 305.551 211.423 300.228V132.188C211.423 126.865 207.096 122.538 201.773 122.538H30.431V122.567Z" fill="#020A1D"/>
<path d="M33.2776 141.696V290.72C33.2776 295.389 37.0637 299.146 41.7038 299.146H190.472C195.14 299.146 198.898 295.36 198.898 290.72V141.696C198.898 137.028 195.112 133.27 190.472 133.27H41.7038C37.0637 133.27 33.2776 137.028 33.2776 141.696Z" fill="white"/>
<path d="M190.5 299.858H41.7038C36.6651 299.858 32.5659 295.759 32.5659 290.72V141.696C32.5659 136.658 36.6651 132.558 41.7038 132.558H190.471C195.51 132.558 199.609 136.658 199.609 141.696V290.72C199.638 295.759 195.539 299.858 190.5 299.858ZM41.7038 133.982C37.4337 133.982 33.9892 137.455 33.9892 141.696V290.72C33.9892 294.99 37.4622 298.435 41.7038 298.435H190.471C194.713 298.435 198.186 294.962 198.186 290.72V141.696C198.186 137.426 194.713 133.982 190.471 133.982H41.7038Z" fill="#020A1D"/>
<path d="M29.6341 156.841C31.6552 156.841 33.2779 158.463 33.2779 160.484V177.337C33.2779 179.358 31.6552 180.98 29.6341 180.98C27.613 180.98 25.9903 179.358 25.9903 177.337V160.513C25.9619 158.492 27.613 156.841 29.6341 156.841Z" fill="#69A3F3"/>
<path d="M29.6342 181.692C27.2145 181.692 25.2788 179.728 25.2788 177.337V160.513C25.2788 158.093 27.243 156.157 29.6342 156.157C32.0254 156.157 33.9897 158.122 33.9897 160.513V177.337C33.9897 179.728 32.0254 181.692 29.6342 181.692ZM29.6342 157.552C28.0116 157.552 26.7021 158.862 26.7021 160.484V177.337C26.7021 178.959 28.0116 180.269 29.6342 180.269C31.2568 180.269 32.5663 178.959 32.5663 177.337V160.513C32.5663 158.89 31.2568 157.552 29.6342 157.552Z" fill="#020816"/>
<path d="M29.6341 252.233C31.6552 252.233 33.2779 253.856 33.2779 255.877V272.701C33.2779 274.722 31.6552 276.344 29.6341 276.344C27.613 276.344 25.9903 274.722 25.9903 272.701V255.877C25.9619 253.884 27.613 252.233 29.6341 252.233Z" fill="#69A3F3"/>
<path d="M29.6342 277.085C27.2145 277.085 25.2788 275.12 25.2788 272.729V255.905C25.2788 253.486 27.243 251.55 29.6342 251.55C32.0254 251.55 33.9897 253.514 33.9897 255.905V272.701C33.9897 275.12 32.0254 277.085 29.6342 277.085ZM29.6342 252.945C28.0116 252.945 26.7021 254.254 26.7021 255.877V272.701C26.7021 274.323 28.0116 275.633 29.6342 275.633C31.2568 275.633 32.5663 274.323 32.5663 272.701V255.877C32.5663 254.254 31.2568 252.945 29.6342 252.945Z" fill="#020816"/>
<path d="M115.689 264.872C143.014 264.872 165.165 242.721 165.165 215.397C165.165 188.072 143.014 165.922 115.689 165.922C88.3647 165.922 66.2138 188.072 66.2138 215.397C66.2138 242.721 88.3647 264.872 115.689 264.872Z" fill="white"/>
<path d="M115.689 265.584C88.0194 265.584 65.5022 243.067 65.5022 215.397C65.5022 187.727 88.0194 165.21 115.689 165.21C143.359 165.21 165.876 187.727 165.876 215.397C165.876 243.067 143.359 265.584 115.689 265.584ZM115.689 166.605C88.788 166.605 66.9255 188.496 66.9255 215.368C66.9255 242.241 88.788 264.161 115.689 264.161C142.59 264.161 164.453 242.27 164.453 215.397C164.453 188.524 142.59 166.605 115.689 166.605Z" fill="#020A1D"/>
<path d="M115.689 259.378C139.979 259.378 159.671 239.687 159.671 215.397C159.671 191.107 139.979 171.416 115.689 171.416C91.3991 171.416 71.708 191.107 71.708 215.397C71.708 239.687 91.3991 259.378 115.689 259.378Z" fill="white"/>
<path d="M115.689 260.061C91.037 260.061 70.9963 240.021 70.9963 215.368C70.9963 190.716 91.037 170.675 115.689 170.675C140.342 170.675 160.382 190.716 160.382 215.368C160.382 240.021 140.342 260.061 115.689 260.061ZM115.689 172.127C91.834 172.127 72.4196 191.542 72.4196 215.397C72.4196 239.252 91.834 258.667 115.689 258.667C139.544 258.667 158.959 239.252 158.959 215.397C158.959 191.542 139.544 172.127 115.689 172.127Z" fill="#020A1D"/>
<path d="M151.33 211.924H124.059L143.359 192.623C144.697 191.285 144.697 189.094 143.359 187.727C142.021 186.389 139.829 186.389 138.463 187.727L119.162 207.028V179.756C119.162 177.849 117.625 176.283 115.689 176.283C113.782 176.283 112.216 177.821 112.216 179.756V207.028L92.9159 187.727C91.5779 186.389 89.386 186.389 88.0196 187.727C86.6816 189.065 86.6816 191.257 88.0196 192.623L107.32 211.924H80.0489C78.1416 211.924 76.5759 213.461 76.5759 215.397C76.5759 217.304 78.1131 218.87 80.0489 218.87H107.32L88.0196 238.17C86.6816 239.508 86.6816 241.7 88.0196 243.067C89.3575 244.405 91.5495 244.405 92.9159 243.067L112.216 223.766V251.037C112.216 252.945 113.754 254.51 115.689 254.51C117.597 254.51 119.162 252.973 119.162 251.037V223.738L138.463 243.038C139.801 244.376 141.993 244.376 143.359 243.038C144.697 241.7 144.697 239.508 143.359 238.142L124.059 218.841H151.33C153.237 218.841 154.803 217.304 154.803 215.368C154.803 213.49 153.237 211.924 151.33 211.924Z" fill="#FEBB66"/>
<path d="M115.689 255.194C113.383 255.194 111.505 253.315 111.505 251.009V225.446L93.4282 243.522C92.6311 244.319 91.5778 244.746 90.4676 244.746C89.3574 244.746 88.3041 244.319 87.5071 243.522C86.71 242.725 86.283 241.7 86.283 240.562C86.283 239.423 86.71 238.398 87.5071 237.601L105.584 219.525H80.0203C77.7145 219.525 75.8357 217.646 75.8357 215.34C75.8357 213.034 77.7145 211.155 80.0203 211.155H105.584L87.5071 193.079C85.8845 191.456 85.8845 188.809 87.5071 187.186C89.1297 185.564 91.7771 185.564 93.3997 187.186L111.476 205.263V179.699C111.476 177.394 113.355 175.515 115.661 175.515C117.967 175.515 119.845 177.394 119.845 179.699V205.263L137.922 187.186C139.544 185.564 142.192 185.564 143.814 187.186C144.612 187.983 145.039 189.037 145.039 190.147C145.039 191.257 144.612 192.31 143.814 193.107L125.767 211.212H151.33C153.636 211.212 155.514 213.091 155.514 215.397C155.514 217.703 153.636 219.582 151.33 219.582H125.767L143.843 237.658C144.64 238.455 145.067 239.508 145.067 240.619C145.067 241.729 144.64 242.782 143.843 243.579C143.046 244.376 142.021 244.803 140.882 244.803C139.744 244.803 138.719 244.376 137.922 243.579L119.874 225.474V251.037C119.874 253.343 117.995 255.194 115.689 255.194ZM112.928 222.03V251.037C112.928 252.546 114.152 253.799 115.689 253.799C117.198 253.799 118.451 252.575 118.451 251.037V222.03L138.947 242.526C139.459 243.038 140.171 243.323 140.882 243.323C141.594 243.323 142.306 243.038 142.818 242.526C143.331 242.013 143.615 241.302 143.615 240.59C143.615 239.878 143.331 239.167 142.818 238.654L122.322 218.158H151.33C152.838 218.158 154.091 216.934 154.091 215.397C154.091 213.86 152.867 212.636 151.33 212.636H122.322L142.818 192.139C143.9 191.058 143.9 189.321 142.818 188.24C141.736 187.158 140 187.158 138.918 188.24L118.422 208.736V179.756C118.422 178.248 117.198 176.995 115.661 176.995C114.152 176.995 112.899 178.219 112.899 179.756V208.764L92.4034 188.268C91.3216 187.186 89.5851 187.186 88.5034 188.268C87.4217 189.35 87.4217 191.086 88.5034 192.168L109 212.664H80.0488C78.54 212.664 77.2875 213.888 77.2875 215.425C77.2875 216.963 78.5115 218.187 80.0488 218.187H109.056L88.5603 238.683C88.0479 239.195 87.7633 239.907 87.7633 240.619C87.7633 241.33 88.0479 242.042 88.5603 242.554C89.6421 243.636 91.3786 243.636 92.4603 242.554L112.928 222.03Z" fill="#020A1D"/>
<path d="M115.689 244.746C131.899 244.746 145.039 231.606 145.039 215.397C145.039 199.188 131.899 186.048 115.689 186.048C99.4802 186.048 86.3401 199.188 86.3401 215.397C86.3401 231.606 99.4802 244.746 115.689 244.746Z" fill="white"/>
<path d="M115.689 245.458C99.1217 245.458 85.6284 231.965 85.6284 215.397C85.6284 198.829 99.1217 185.336 115.689 185.336C132.257 185.336 145.75 198.829 145.75 215.397C145.75 231.965 132.286 245.458 115.689 245.458ZM115.689 186.731C99.8903 186.731 87.0517 199.569 87.0517 215.368C87.0517 231.168 99.8903 244.006 115.689 244.006C131.488 244.006 144.327 231.168 144.327 215.368C144.327 199.569 131.488 186.731 115.689 186.731Z" fill="#020A1D"/>
<path d="M115.69 231.025C124.321 231.025 131.318 224.028 131.318 215.397C131.318 206.766 124.321 199.769 115.69 199.769C107.058 199.769 100.061 206.766 100.061 215.397C100.061 224.028 107.058 231.025 115.69 231.025Z" fill="#FEBB66"/>
<path d="M115.689 231.737C106.665 231.737 99.3491 224.392 99.3491 215.397C99.3491 206.401 106.694 199.057 115.689 199.057C124.685 199.057 132.029 206.401 132.029 215.397C132.029 224.392 124.713 231.737 115.689 231.737ZM115.689 200.452C107.462 200.452 100.772 207.142 100.772 215.368C100.772 223.595 107.462 230.285 115.689 230.285C123.916 230.285 130.606 223.595 130.606 215.368C130.606 207.142 123.916 200.452 115.689 200.452Z" fill="#020A1D"/>
<path d="M180.452 199.342C182.729 199.342 184.551 201.192 184.551 203.441V230.114C184.551 232.392 182.7 234.214 180.452 234.214C178.174 234.214 176.352 232.363 176.352 230.114V203.441C176.324 201.192 178.174 199.342 180.452 199.342Z" fill="white"/>
<path d="M180.451 234.925C177.804 234.925 175.641 232.762 175.641 230.114V203.441C175.641 200.793 177.804 198.63 180.451 198.63C183.099 198.63 185.262 200.793 185.262 203.441V230.114C185.262 232.762 183.099 234.925 180.451 234.925ZM180.451 200.053C178.573 200.053 177.064 201.562 177.064 203.441V230.114C177.064 231.993 178.573 233.502 180.451 233.502C182.33 233.502 183.839 231.993 183.839 230.114V203.441C183.839 201.59 182.302 200.053 180.451 200.053Z" fill="black"/>
<path d="M180.451 225.645C185.341 225.645 189.304 221.681 189.304 216.792C189.304 211.902 185.341 207.939 180.451 207.939C175.562 207.939 171.598 211.902 171.598 216.792C171.598 221.681 175.562 225.645 180.451 225.645Z" fill="white"/>
<path d="M180.451 226.357C175.185 226.357 170.886 222.058 170.886 216.792C170.886 211.525 175.185 207.227 180.451 207.227C185.718 207.227 190.016 211.525 190.016 216.792C190.016 222.058 185.718 226.357 180.451 226.357ZM180.451 208.65C175.953 208.65 172.31 212.294 172.31 216.792C172.31 221.29 175.953 224.933 180.451 224.933C184.949 224.933 188.593 221.29 188.593 216.792C188.593 212.294 184.921 208.65 180.451 208.65Z" fill="black"/>
<path d="M180.451 220.891C182.715 220.891 184.551 219.056 184.551 216.792C184.551 214.528 182.715 212.693 180.451 212.693C178.187 212.693 176.352 214.528 176.352 216.792C176.352 219.056 178.187 220.891 180.451 220.891Z" fill="#FEBB66"/>
<path d="M180.451 221.603C177.804 221.603 175.641 219.439 175.641 216.792C175.641 214.144 177.804 211.981 180.451 211.981C183.099 211.981 185.262 214.144 185.262 216.792C185.262 219.439 183.099 221.603 180.451 221.603ZM180.451 213.404C178.573 213.404 177.064 214.913 177.064 216.792C177.064 218.671 178.573 220.179 180.451 220.179C182.33 220.179 183.839 218.671 183.839 216.792C183.839 214.913 182.302 213.404 180.451 213.404Z" fill="black"/>
<path d="M201.545 173.038C223.886 173.038 241.996 154.928 241.996 132.587C241.996 110.246 223.886 92.1355 201.545 92.1355C179.204 92.1355 161.094 110.246 161.094 132.587C161.094 154.928 179.204 173.038 201.545 173.038Z" fill="#3785EF"/>
<path d="M201.545 173.75C178.857 173.75 160.382 155.275 160.382 132.587C160.382 109.899 178.857 91.4238 201.545 91.4238C224.233 91.4238 242.708 109.899 242.708 132.587C242.708 155.275 224.262 173.75 201.545 173.75ZM201.545 92.8756C179.626 92.8756 161.805 110.696 161.805 132.615C161.805 154.535 179.626 172.355 201.545 172.355C223.465 172.355 241.285 154.535 241.285 132.615C241.285 110.696 223.465 92.8756 201.545 92.8756Z" fill="#020A1D"/>
<path d="M201.545 163.73C218.745 163.73 232.688 149.786 232.688 132.587C232.688 115.387 218.745 101.444 201.545 101.444C184.346 101.444 170.403 115.387 170.403 132.587C170.403 149.786 184.346 163.73 201.545 163.73Z" fill="white"/>
<path d="M201.545 164.47C183.981 164.47 169.691 150.179 169.691 132.615C169.691 115.051 183.981 100.761 201.545 100.761C219.109 100.761 233.4 115.051 233.4 132.615C233.4 150.179 219.138 164.47 201.545 164.47ZM201.545 102.156C184.75 102.156 171.114 115.82 171.114 132.587C171.114 149.354 184.778 163.018 201.545 163.018C218.341 163.018 231.976 149.354 231.976 132.587C231.976 115.82 218.341 102.156 201.545 102.156Z" fill="#020A1D"/>
<path d="M222.098 116.247C209.146 118.069 201.773 109.415 201.545 109.13C201.318 109.415 193.973 118.04 180.992 116.247C180.992 116.247 180.195 147.333 201.545 157.609C222.895 147.333 222.098 116.247 222.098 116.247Z" fill="#3785EF"/>
<path d="M201.545 158.321C201.431 158.321 201.317 158.292 201.232 158.264C192.322 153.965 185.86 145.34 182.586 133.27C180.109 124.218 180.28 116.56 180.28 116.247C180.28 116.048 180.366 115.848 180.536 115.734C180.707 115.621 180.907 115.535 181.106 115.564C193.489 117.3 200.549 109.244 201.004 108.732C201.09 108.618 201.232 108.532 201.374 108.475C201.431 108.447 201.488 108.447 201.545 108.447C201.602 108.447 201.659 108.447 201.716 108.475C201.858 108.504 202 108.618 202.086 108.732C202.513 109.244 209.573 117.3 221.984 115.564C222.183 115.535 222.383 115.592 222.554 115.734C222.696 115.877 222.81 116.048 222.81 116.247C222.81 116.56 222.981 124.218 220.504 133.27C217.23 145.312 210.768 153.965 201.858 158.264C201.773 158.292 201.659 158.321 201.545 158.321ZM181.732 117.044C181.761 119.236 182.017 125.698 183.981 132.9C186.173 140.928 191.012 151.546 201.573 156.784C212.135 151.546 216.946 140.928 219.166 132.9C221.13 125.698 221.386 119.207 221.415 117.044C210.427 118.24 203.509 112.148 201.573 110.183C199.809 111.977 193.916 117.215 184.579 117.215C183.639 117.215 182.7 117.158 181.732 117.044Z" fill="#020A1D"/>
<path d="M198.414 143.233L189.191 134.494C188.223 133.555 188.166 132.018 189.105 131.05C190.045 130.082 191.582 130.025 192.55 130.964L198.329 136.43L210.512 124.246C211.452 123.307 213.017 123.307 213.957 124.246C214.896 125.185 214.896 126.751 213.957 127.691L198.414 143.233Z" fill="white"/>
<path d="M198.414 144.23L188.707 135.035C188.109 134.466 187.739 133.669 187.739 132.843C187.71 131.989 188.023 131.192 188.593 130.594C189.788 129.342 191.781 129.285 193.034 130.48L198.3 135.462L210 123.762C210.598 123.164 211.395 122.851 212.22 122.851C213.046 122.851 213.843 123.193 214.441 123.762C215.038 124.36 215.352 125.157 215.352 125.983C215.352 126.808 215.01 127.605 214.441 128.203L198.414 144.23ZM190.87 130.993C190.415 130.993 189.959 131.164 189.618 131.534C189.304 131.875 189.134 132.302 189.134 132.758C189.134 133.213 189.333 133.64 189.675 133.953L198.385 142.209L213.444 127.15C213.757 126.837 213.957 126.381 213.957 125.926C213.957 125.47 213.786 125.043 213.444 124.702C213.103 124.36 212.676 124.189 212.22 124.189C211.765 124.189 211.338 124.36 210.996 124.702L198.3 137.398L192.037 131.448C191.724 131.164 191.297 130.993 190.87 130.993Z" fill="#020A1D"/>
<path d="M40.786 102.492C56.559 102.492 69.3455 89.7058 69.3455 73.9328C69.3455 58.1599 56.559 45.3734 40.786 45.3734C25.0131 45.3734 12.2266 58.1599 12.2266 73.9328C12.2266 89.7058 25.0131 102.492 40.786 102.492Z" fill="white"/>
<path d="M40.786 103.066C24.7285 103.066 11.6531 89.9904 11.6531 73.9328C11.6531 57.8753 24.7285 44.7999 40.786 44.7999C56.8435 44.7999 69.919 57.8753 69.919 73.9328C69.919 89.9904 56.8435 103.066 40.786 103.066ZM40.786 45.9239C25.3478 45.9239 12.8 58.4717 12.8 73.9099C12.8 89.3481 25.3478 101.896 40.786 101.896C56.2242 101.896 68.772 89.3481 68.772 73.9099C68.772 58.4947 56.2242 45.9239 40.786 45.9239Z" fill="#020A1D"/>
<path d="M51.7575 71.334H47.4586V66.4947C47.4586 62.8536 44.4987 59.8702 40.8341 59.8702C37.1694 59.8702 34.2095 62.8301 34.2095 66.4947V71.334H29.9106V66.4947C29.9106 60.481 34.8203 55.5713 40.8341 55.5713C46.8479 55.5713 51.7575 60.481 51.7575 66.4947V71.334Z" fill="white"/>
<path d="M52.3447 71.9212H46.8712V66.4947C46.8712 63.1589 44.1697 60.4574 40.834 60.4574C37.4982 60.4574 34.7967 63.1589 34.7967 66.4947V71.9212H29.3232V66.4947C29.3232 60.1521 34.4913 54.984 40.834 54.984C47.1766 54.984 52.3447 60.1521 52.3447 66.4947V71.9212ZM48.0223 70.7466H51.1466V66.4947C51.1466 60.7863 46.5189 56.1585 40.8105 56.1585C35.1021 56.1585 30.4743 60.7863 30.4743 66.4947V70.7466H33.5986V66.4947C33.5986 62.5247 36.8404 59.2829 40.8105 59.2829C44.7805 59.2829 48.0223 62.5247 48.0223 66.4947V70.7466Z" fill="black"/>
<path d="M27.2561 90.4793V71.7098C27.2561 70.8641 27.9373 70.1593 28.8065 70.1593H52.8851C53.7308 70.1593 54.4355 70.8406 54.4355 71.7098V90.4793C54.4355 91.325 53.7543 92.0297 52.8851 92.0297H28.783C27.9373 92.0063 27.2561 91.325 27.2561 90.4793Z" fill="#FEBB66"/>
<path d="M52.8615 92.5936H28.783C27.6084 92.5936 26.6453 91.6304 26.6453 90.4559V71.6863C26.6453 70.5117 27.6084 69.5486 28.783 69.5486H52.8615C54.0361 69.5486 54.9993 70.5117 54.9993 71.6863V90.4559C54.9993 91.6539 54.0361 92.5936 52.8615 92.5936ZM28.783 70.7467C28.2661 70.7467 27.8198 71.1695 27.8198 71.7098V90.4794C27.8198 90.9962 28.2427 91.4425 28.783 91.4425H52.8615C53.3784 91.4425 53.8247 91.0197 53.8247 90.4794V71.7098C53.8247 71.193 53.4018 70.7467 52.8615 70.7467H28.783Z" fill="#020A1D"/>
<path d="M43.8172 78.2874C43.8172 76.549 42.3608 75.163 40.5989 75.304C39.119 75.3979 37.9209 76.6195 37.827 78.0994C37.7565 79.18 38.2498 80.1432 39.0485 80.7304L38.4143 86.1804C38.3673 86.5798 38.6727 86.9322 39.072 86.9322H42.5722C42.9716 86.9322 43.2769 86.5798 43.23 86.1804L42.5957 80.7304C43.3474 80.1432 43.8172 79.274 43.8172 78.2874Z" fill="white"/>
<path d="M42.5725 87.4959H39.0723C38.7199 87.4959 38.3676 87.3315 38.1327 87.0731C37.8978 86.8147 37.7803 86.4388 37.8273 86.0864L38.4146 80.9419C37.5924 80.2136 37.1695 79.133 37.24 78.0289C37.3574 76.2436 38.7904 74.8106 40.5758 74.6932C41.5859 74.6227 42.549 74.9516 43.2773 75.6563C44.0055 76.3376 44.4283 77.3007 44.4283 78.2873C44.4283 79.2975 43.982 80.2841 43.2303 80.9419L43.8176 86.0864C43.8645 86.4388 43.7471 86.7912 43.5122 87.0731C43.2773 87.3315 42.9249 87.4959 42.5725 87.4959ZM40.8342 75.8677C40.7872 75.8677 40.7167 75.8677 40.6697 75.8677C39.4717 75.9617 38.5085 76.9248 38.438 78.0994C38.3911 78.9216 38.7434 79.7203 39.4247 80.2136L39.7066 80.425L39.0253 86.2274C39.0253 86.2509 39.0253 86.2744 39.0488 86.2979C39.0723 86.3214 39.0958 86.3214 39.1193 86.3214H42.5725C42.596 86.3214 42.6195 86.3214 42.643 86.2979C42.6665 86.2744 42.6665 86.2509 42.6665 86.2274L41.9852 80.425L42.2671 80.2136C42.9014 79.7438 43.2538 79.0391 43.2538 78.2638C43.2538 77.5826 42.9719 76.9718 42.4786 76.502C42.0322 76.1026 41.4449 75.8677 40.8342 75.8677Z" fill="#020A1D"/>
<path d="M194.4 303.53H234.709C235.506 303.53 236.133 304.157 236.133 304.954V311.074C236.133 311.871 235.506 312.497 234.709 312.497H194.4C193.603 312.497 192.977 311.871 192.977 311.074V304.954C192.977 304.157 193.603 303.53 194.4 303.53Z" fill="#FEBB66"/>
<path d="M234.709 313.209H194.4C193.233 313.209 192.265 312.241 192.265 311.074V304.954C192.265 303.786 193.233 302.819 194.4 302.819H234.709C235.877 302.819 236.844 303.786 236.844 304.954V311.074C236.844 312.27 235.877 313.209 234.709 313.209ZM194.4 304.242C194.002 304.242 193.689 304.555 193.689 304.954V311.074C193.689 311.473 194.002 311.786 194.4 311.786H234.709C235.108 311.786 235.421 311.473 235.421 311.074V304.954C235.421 304.555 235.108 304.242 234.709 304.242H194.4Z" fill="black"/>
<path d="M194.4 312.497H234.709C235.506 312.497 236.133 313.124 236.133 313.921V320.041C236.133 320.838 235.506 321.464 234.709 321.464H194.4C193.603 321.464 192.977 320.838 192.977 320.041V313.921C192.977 313.152 193.603 312.497 194.4 312.497Z" fill="#FEBB66"/>
<path d="M234.709 322.204H194.4C193.233 322.204 192.265 321.237 192.265 320.069V313.949C192.265 312.782 193.233 311.814 194.4 311.814H234.709C235.877 311.814 236.844 312.782 236.844 313.949V320.069C236.844 321.237 235.877 322.204 234.709 322.204ZM194.4 313.209C194.002 313.209 193.689 313.522 193.689 313.921V320.041C193.689 320.44 194.002 320.753 194.4 320.753H234.709C235.108 320.753 235.421 320.44 235.421 320.041V313.921C235.421 313.522 235.108 313.209 234.709 313.209H194.4Z" fill="black"/>
<path d="M202.713 276.487H243.022C243.819 276.487 244.445 277.113 244.445 277.91V284.031C244.445 284.828 243.819 285.454 243.022 285.454H202.713C201.915 285.454 201.289 284.828 201.289 284.031V277.91C201.289 277.113 201.915 276.487 202.713 276.487Z" fill="#FEBB66"/>
<path d="M242.993 286.166H202.713C201.545 286.166 200.578 285.198 200.578 284.03V277.91C200.578 276.743 201.545 275.775 202.713 275.775H243.022C244.189 275.775 245.157 276.743 245.157 277.91V284.03C245.128 285.226 244.16 286.166 242.993 286.166ZM202.713 277.198C202.314 277.198 202.001 277.512 202.001 277.91V284.03C202.001 284.429 202.314 284.742 202.713 284.742H243.022C243.42 284.742 243.733 284.429 243.733 284.03V277.91C243.733 277.512 243.42 277.198 243.022 277.198H202.713Z" fill="black"/>
<path d="M145.01 276.572H185.319C186.116 276.572 186.742 277.198 186.742 277.995V284.116C186.742 284.913 186.116 285.539 185.319 285.539H145.01C144.213 285.539 143.587 284.913 143.587 284.116V277.995C143.587 277.227 144.213 276.572 145.01 276.572Z" fill="#FEBB66"/>
<path d="M185.319 286.279H145.01C143.843 286.279 142.875 285.311 142.875 284.144V278.024C142.875 276.857 143.843 275.889 145.01 275.889H185.319C186.486 275.889 187.454 276.857 187.454 278.024V284.144C187.454 285.311 186.486 286.279 185.319 286.279ZM145.01 277.284C144.612 277.284 144.299 277.597 144.299 277.995V284.116C144.299 284.514 144.612 284.827 145.01 284.827H185.319C185.718 284.827 186.031 284.514 186.031 284.116V277.995C186.031 277.597 185.718 277.284 185.319 277.284H145.01Z" fill="black"/>
<path d="M129.98 267.605H170.289C171.086 267.605 171.712 268.231 171.712 269.028V275.149C171.712 275.946 171.086 276.572 170.289 276.572H129.98C129.183 276.572 128.556 275.946 128.556 275.149V269.028C128.556 268.231 129.183 267.605 129.98 267.605Z" fill="#FEBB66"/>
<path d="M170.289 277.284H129.98C128.813 277.284 127.845 276.316 127.845 275.149V269.028C127.845 267.861 128.813 266.893 129.98 266.893H170.289C171.456 266.893 172.424 267.861 172.424 269.028V275.149C172.424 276.344 171.456 277.284 170.289 277.284ZM129.98 268.317C129.581 268.317 129.268 268.63 129.268 269.028V275.149C129.268 275.547 129.581 275.86 129.98 275.86H170.289C170.687 275.86 171 275.547 171 275.149V269.028C171 268.63 170.687 268.317 170.289 268.317H129.98Z" fill="black"/>
<path d="M132.542 258.61H172.851C173.648 258.61 174.274 259.236 174.274 260.033V266.153C174.274 266.95 173.648 267.577 172.851 267.577H132.542C131.745 267.577 131.118 266.95 131.118 266.153V260.033C131.118 259.264 131.745 258.61 132.542 258.61Z" fill="#FEBB66"/>
<path d="M172.851 268.317H132.542C131.375 268.317 130.407 267.349 130.407 266.182V260.061C130.407 258.894 131.375 257.926 132.542 257.926H172.851C174.018 257.926 174.986 258.894 174.986 260.061V266.182C174.986 267.349 174.018 268.317 172.851 268.317ZM132.542 259.321C132.143 259.321 131.83 259.634 131.83 260.033V266.153C131.83 266.552 132.143 266.865 132.542 266.865H172.851C173.249 266.865 173.562 266.552 173.562 266.153V260.033C173.562 259.634 173.249 259.321 172.851 259.321H132.542Z" fill="black"/>
<path d="M132.115 285.568H172.424C173.221 285.568 173.847 286.194 173.847 286.991V293.111C173.847 293.908 173.221 294.535 172.424 294.535H132.115C131.318 294.535 130.691 293.908 130.691 293.111V286.991C130.691 286.194 131.346 285.568 132.115 285.568Z" fill="#FEBB66"/>
<path d="M172.424 295.246H132.115C130.948 295.246 129.98 294.279 129.98 293.111V286.991C129.98 285.824 130.948 284.856 132.115 284.856H172.424C173.591 284.856 174.559 285.824 174.559 286.991V293.111C174.559 294.307 173.591 295.246 172.424 295.246ZM132.115 286.279C131.716 286.279 131.403 286.592 131.403 286.991V293.111C131.403 293.51 131.716 293.823 132.115 293.823H172.424C172.822 293.823 173.135 293.51 173.135 293.111V286.991C173.135 286.592 172.822 286.279 172.424 286.279H132.115Z" fill="black"/>
<path d="M132.115 294.535H172.424C173.221 294.535 173.847 295.161 173.847 295.958V302.078C173.847 302.876 173.221 303.502 172.424 303.502H132.115C131.318 303.502 130.691 302.876 130.691 302.078V295.958C130.691 295.19 131.346 294.535 132.115 294.535Z" fill="#FEBB66"/>
<path d="M172.424 304.242H132.115C130.948 304.242 129.98 303.274 129.98 302.107V295.987C129.98 294.819 130.948 293.852 132.115 293.852H172.424C173.591 293.852 174.559 294.819 174.559 295.987V302.107C174.559 303.274 173.591 304.242 172.424 304.242ZM132.115 295.246C131.716 295.246 131.403 295.56 131.403 295.958V302.078C131.403 302.477 131.716 302.79 132.115 302.79H172.424C172.822 302.79 173.135 302.477 173.135 302.078V295.958C173.135 295.56 172.822 295.246 172.424 295.246H132.115Z" fill="black"/>
<path d="M127.276 303.53H167.585C168.382 303.53 169.008 304.157 169.008 304.954V311.074C169.008 311.871 168.382 312.497 167.585 312.497H127.276C126.479 312.497 125.852 311.871 125.852 311.074V304.954C125.852 304.157 126.507 303.53 127.276 303.53Z" fill="#FEBB66"/>
<path d="M167.584 313.209H127.275C126.108 313.209 125.14 312.241 125.14 311.074V304.954C125.14 303.786 126.108 302.819 127.275 302.819H167.584C168.751 302.819 169.719 303.786 169.719 304.954V311.074C169.719 312.27 168.751 313.209 167.584 313.209ZM127.275 304.242C126.877 304.242 126.563 304.555 126.563 304.954V311.074C126.563 311.473 126.877 311.786 127.275 311.786H167.584C167.983 311.786 168.296 311.473 168.296 311.074V304.954C168.296 304.555 167.983 304.242 167.584 304.242H127.275Z" fill="black"/>
<path d="M132.115 312.497H172.424C173.221 312.497 173.847 313.124 173.847 313.921V320.041C173.847 320.838 173.221 321.464 172.424 321.464H132.115C131.318 321.464 130.691 320.838 130.691 320.041V313.921C130.691 313.152 131.346 312.497 132.115 312.497Z" fill="#FEBB66"/>
<path d="M172.424 322.204H132.115C130.948 322.204 129.98 321.237 129.98 320.069V313.949C129.98 312.782 130.948 311.814 132.115 311.814H172.424C173.591 311.814 174.559 312.782 174.559 313.949V320.069C174.559 321.237 173.591 322.204 172.424 322.204ZM132.115 313.209C131.716 313.209 131.403 313.522 131.403 313.921V320.041C131.403 320.44 131.716 320.753 132.115 320.753H172.424C172.822 320.753 173.135 320.44 173.135 320.041V313.921C173.135 313.522 172.822 313.209 172.424 313.209H132.115Z" fill="black"/>
<path d="M195.767 285.568H236.076C236.873 285.568 237.499 286.194 237.499 286.991V293.111C237.499 293.908 236.873 294.535 236.076 294.535H195.767C194.969 294.535 194.343 293.908 194.343 293.111V286.991C194.343 286.194 194.969 285.568 195.767 285.568Z" fill="#FEBB66"/>
<path d="M236.076 295.246H195.767C194.599 295.246 193.632 294.279 193.632 293.111V286.991C193.632 285.824 194.599 284.856 195.767 284.856H236.076C237.243 284.856 238.211 285.824 238.211 286.991V293.111C238.211 294.307 237.243 295.246 236.076 295.246ZM195.767 286.279C195.368 286.279 195.055 286.592 195.055 286.991V293.111C195.055 293.51 195.368 293.823 195.767 293.823H236.076C236.474 293.823 236.787 293.51 236.787 293.111V286.991C236.787 286.592 236.474 286.279 236.076 286.279H195.767Z" fill="black"/>
<path d="M206.299 294.535H246.608C247.405 294.535 248.032 295.161 248.032 295.958V302.078C248.032 302.876 247.405 303.502 246.608 303.502H206.299C205.502 303.502 204.876 302.876 204.876 302.078V295.958C204.876 295.19 205.531 294.535 206.299 294.535Z" fill="#FEBB66"/>
<path d="M246.608 304.242H206.299C205.132 304.242 204.164 303.274 204.164 302.107V295.987C204.164 294.819 205.132 293.852 206.299 293.852H246.608C247.775 293.852 248.743 294.819 248.743 295.987V302.107C248.743 303.274 247.775 304.242 246.608 304.242ZM206.299 295.246C205.901 295.246 205.588 295.56 205.588 295.958V302.078C205.588 302.477 205.901 302.79 206.299 302.79H246.608C247.007 302.79 247.32 302.477 247.32 302.078V295.958C247.32 295.56 247.007 295.246 246.608 295.246H206.299Z" fill="black"/>
<path d="M237.556 312.497H277.865C278.662 312.497 279.288 313.124 279.288 313.921V320.041C279.288 320.838 278.662 321.464 277.865 321.464H237.556C236.759 321.464 236.132 320.838 236.132 320.041V313.921C236.132 313.152 236.759 312.497 237.556 312.497Z" fill="#FEBB66"/>
<path d="M277.837 322.204H237.556C236.389 322.204 235.421 321.237 235.421 320.069V313.949C235.421 312.782 236.389 311.814 237.556 311.814H277.865C279.032 311.814 280 312.782 280 313.949V320.069C279.972 321.237 279.032 322.204 277.837 322.204ZM237.556 313.209C237.157 313.209 236.844 313.522 236.844 313.921V320.041C236.844 320.44 237.157 320.753 237.556 320.753H277.865C278.264 320.753 278.577 320.44 278.577 320.041V313.921C278.577 313.522 278.264 313.209 277.865 313.209H237.556Z" fill="black"/>
<path d="M99.0078 320.98C114.541 320.98 127.133 308.388 127.133 292.855C127.133 277.322 114.541 264.73 99.0078 264.73C83.4746 264.73 70.8825 277.322 70.8825 292.855C70.8825 308.388 83.4746 320.98 99.0078 320.98Z" fill="#FEBB66"/>
<path d="M99.0078 321.721C83.0948 321.721 70.1709 308.768 70.1709 292.884C70.1709 276.999 83.1233 264.047 99.0078 264.047C114.921 264.047 127.845 276.999 127.845 292.884C127.845 308.768 114.921 321.721 99.0078 321.721ZM99.0078 265.442C83.8919 265.442 71.5942 277.739 71.5942 292.855C71.5942 307.971 83.8919 320.269 99.0078 320.269C114.124 320.269 126.421 307.971 126.421 292.855C126.45 277.739 114.152 265.442 99.0078 265.442Z" fill="#020816"/>
<path d="M99.0078 313.636C110.485 313.636 119.789 304.332 119.789 292.855C119.789 281.378 110.485 272.074 99.0078 272.074C87.5309 272.074 78.227 281.378 78.227 292.855C78.227 304.332 87.5309 313.636 99.0078 313.636Z" fill="white"/>
<path d="M99.0078 314.376C87.1656 314.376 77.5153 304.726 77.5153 292.884C77.5153 281.041 87.1656 271.391 99.0078 271.391C110.85 271.391 120.5 281.041 120.5 292.884C120.5 304.726 110.878 314.376 99.0078 314.376ZM99.0078 272.786C87.9342 272.786 78.9387 281.782 78.9387 292.855C78.9387 303.929 87.9342 312.924 99.0078 312.924C110.081 312.924 119.077 303.929 119.077 292.855C119.077 281.782 110.081 272.786 99.0078 272.786Z" fill="#020816"/>
<path d="M109.899 290.742V289.136H106.651C106.106 285.655 108.577 282.367 103.507 283.174C103.203 288.224 105.216 289.734 99.1425 289.136L95.7847 283.174C90.057 282.443 92.3443 284.812 91.9199 289.136H88.1152C87.3414 291.785 90.6729 290.436 91.9199 290.742C92.3969 294.941 91.1687 293.861 88.1114 293.953C87.3602 296.599 90.6729 295.254 91.9199 295.559V303.043H95.0373C95.6946 298.582 92.6673 294.56 98.9848 295.559L103.146 303.043H106.651V295.559H109.899C110.542 293.026 107.946 294.202 106.651 293.953C106.403 290.147 106.662 290.697 109.899 290.742ZM94.8758 287.478C95.2514 287.739 95.3753 288.642 95.6871 289.136C94.5716 289.429 95.011 288.26 94.872 287.478H94.8758ZM94.996 290.742C96.9716 290.192 97.1782 292.628 98.1021 293.953C95.2213 294.283 94.7105 293.849 94.9922 290.742H94.996ZM103.815 298.37C103.349 297.591 103.03 296.487 102.549 295.559C104.269 295.106 103.514 297.157 103.811 298.357L103.815 298.37ZM103.567 293.953C101.392 294.568 101.058 292.307 100.051 290.742C102.91 290.525 103.961 290.493 103.563 293.953H103.567Z" fill="#473789"/>
<path d="M225.4 283.603H139.317V321.379H225.4V283.603Z" fill="white"/>
<path d="M226.14 322.091H138.605V282.892H226.112V322.091H226.14ZM140.028 320.667H224.689V284.315H140.028V320.667Z" fill="#020816"/>
<path d="M222.753 286.45H142.021V318.561H222.753V286.45Z" fill="white"/>
<path d="M223.436 319.244H141.309V285.738H223.465V319.244H223.436ZM142.733 317.821H222.041V287.162H142.733V317.821Z" fill="#020816"/>
<path d="M218.938 309.081V295.873C215.921 295.873 213.473 293.425 213.473 290.407H151.301C151.301 293.425 148.853 295.873 145.835 295.873V309.081C148.853 309.081 151.301 311.529 151.301 314.547H213.444C213.444 311.529 215.892 309.081 218.938 309.081Z" fill="#3785EF"/>
<path d="M213.444 315.287H151.301C150.903 315.287 150.59 314.974 150.59 314.575C150.59 311.956 148.455 309.821 145.836 309.821C145.437 309.821 145.124 309.508 145.124 309.11V295.901C145.124 295.503 145.437 295.189 145.836 295.189C148.455 295.189 150.59 293.054 150.59 290.435C150.59 290.037 150.903 289.724 151.301 289.724H213.444C213.843 289.724 214.156 290.037 214.156 290.435C214.156 293.054 216.291 295.189 218.91 295.189C219.309 295.189 219.622 295.503 219.622 295.901V309.11C219.622 309.508 219.309 309.821 218.91 309.821C216.291 309.821 214.156 311.956 214.156 314.575C214.156 314.945 213.843 315.287 213.444 315.287ZM151.956 313.864H212.761C213.074 311.017 215.352 308.768 218.198 308.427V296.556C215.352 296.243 213.103 293.965 212.761 291.119H151.956C151.643 293.965 149.366 296.214 146.519 296.556V308.427C149.366 308.74 151.643 311.017 151.956 313.864Z" fill="#020816"/>
<path d="M182.358 313.266C186.871 313.266 190.528 308.436 190.528 302.477C190.528 296.518 186.871 291.688 182.358 291.688C177.846 291.688 174.188 296.518 174.188 302.477C174.188 308.436 177.846 313.266 182.358 313.266Z" fill="white"/>
<path d="M182.358 313.978C177.462 313.978 173.477 308.825 173.477 302.477C173.477 296.129 177.462 290.976 182.358 290.976C187.255 290.976 191.24 296.129 191.24 302.477C191.24 308.825 187.255 313.978 182.358 313.978ZM182.358 292.4C178.259 292.4 174.9 296.926 174.9 302.477C174.9 308.028 178.231 312.554 182.358 312.554C186.486 312.554 189.817 308.028 189.817 302.477C189.817 296.926 186.486 292.4 182.358 292.4Z" fill="#020816"/>
<path d="M159.073 305.864C161.022 305.864 162.603 304.284 162.603 302.335C162.603 300.385 161.022 298.805 159.073 298.805C157.123 298.805 155.543 300.385 155.543 302.335C155.543 304.284 157.123 305.864 159.073 305.864Z" fill="white"/>
<path d="M159.073 306.576C156.738 306.576 154.831 304.669 154.831 302.335C154.831 300 156.738 298.093 159.073 298.093C161.407 298.093 163.314 300 163.314 302.335C163.343 304.669 161.435 306.576 159.073 306.576ZM159.073 299.488C157.507 299.488 156.254 300.769 156.254 302.306C156.254 303.843 157.535 305.124 159.073 305.124C160.61 305.124 161.891 303.843 161.891 302.306C161.891 300.769 160.638 299.488 159.073 299.488Z" fill="#020816"/>
<path d="M205.673 305.864C207.622 305.864 209.203 304.284 209.203 302.335C209.203 300.385 207.622 298.805 205.673 298.805C203.723 298.805 202.143 300.385 202.143 302.335C202.143 304.284 203.723 305.864 205.673 305.864Z" fill="white"/>
<path d="M205.673 306.576C203.339 306.576 201.431 304.669 201.431 302.335C201.431 300 203.339 298.093 205.673 298.093C208.007 298.093 209.914 300 209.914 302.335C209.914 304.669 208.007 306.576 205.673 306.576ZM205.673 299.488C204.107 299.488 202.855 300.769 202.855 302.306C202.855 303.843 204.136 305.124 205.673 305.124C207.21 305.124 208.491 303.843 208.491 302.306C208.491 300.769 207.239 299.488 205.673 299.488Z" fill="#020816"/>
<path d="M186.954 300.662V299.698H185.477C185.23 297.61 186.353 295.637 184.049 296.121C183.91 299.152 184.825 300.057 182.065 299.698L180.538 296.121C177.935 295.683 178.975 297.104 178.782 299.698H177.052C176.701 301.288 178.215 300.479 178.782 300.662C178.999 303.182 178.44 302.534 177.051 302.589C176.709 304.176 178.215 303.37 178.782 303.553V308.043H180.199C180.497 305.366 179.121 302.953 181.993 303.553L183.885 308.043H185.477V303.553H186.954C187.246 302.033 186.066 302.738 185.477 302.589C185.365 300.305 185.483 300.635 186.954 300.662ZM180.125 298.704C180.296 298.86 180.352 299.402 180.494 299.698C179.987 299.874 180.187 299.173 180.124 298.704H180.125ZM180.18 300.662C181.078 300.332 181.172 301.794 181.592 302.589C180.282 302.787 180.05 302.526 180.178 300.662H180.18ZM184.189 305.239C183.977 304.771 183.832 304.109 183.613 303.553C184.395 303.28 184.052 304.511 184.187 305.232L184.189 305.239ZM184.076 302.589C183.087 302.958 182.935 301.601 182.478 300.662C183.777 300.532 184.255 300.513 184.074 302.589H184.076Z" fill="#473789"/>
</svg>
