<svg width="16" height="16" viewBox="0 0 16 16" fill="none" xmlns="http://www.w3.org/2000/svg">
<path d="M10.0003 2V4.26667C10.0003 4.64004 10.0003 4.82672 10.073 4.96933C10.1369 5.09477 10.2389 5.19676 10.3643 5.26067C10.5069 5.33333 10.6936 5.33333 11.067 5.33333H13.3337M6.66699 5.33333H4.00033C3.26395 5.33333 2.66699 5.93029 2.66699 6.66667V12.6667C2.66699 13.403 3.26395 14 4.00033 14H8.00033C8.73671 14 9.33366 13.403 9.33366 12.6667V10.6667M10.667 2H8.80033C8.05359 2 7.68022 2 7.39501 2.14532C7.14412 2.27316 6.94015 2.47713 6.81232 2.72801C6.66699 3.01323 6.66699 3.3866 6.66699 4.13333V8.53333C6.66699 9.28007 6.66699 9.65344 6.81232 9.93865C6.94015 10.1895 7.14412 10.3935 7.39501 10.5213C7.68022 10.6667 8.05359 10.6667 8.80033 10.6667H11.2003C11.9471 10.6667 12.3204 10.6667 12.6056 10.5213C12.8565 10.3935 13.0605 10.1895 13.1883 9.93865C13.3337 9.65344 13.3337 9.28007 13.3337 8.53333V4.66667L10.667 2Z" stroke="white" stroke-linejoin="round"/>
</svg>
